<?xml version="1.0" encoding="UTF-8" standalone="no"?>
<!-- Created with Inkscape (http://www.inkscape.org/) -->

<svg
   width="100.0mm"
   height="100.0mm"
   viewBox="0 0 100.0 100.0"
   version="1.1"
   id="svg5"
   sodipodi:docname="drawing.svg"
   inkscape:version="1.1 (c68e22c387, 2021-05-23)"
   xmlns:inkscape="http://www.inkscape.org/namespaces/inkscape"
   xmlns:sodipodi="http://sodipodi.sourceforge.net/DTD/sodipodi-0.dtd"
   xmlns="http://www.w3.org/2000/svg"
   xmlns:svg="http://www.w3.org/2000/svg">
  <sodipodi:namedview
     id="namedview7"
     pagecolor="#ffffff"
     bordercolor="#666666"
     borderopacity="1.0"
     inkscape:pageshadow="2"
     inkscape:pageopacity="0.0"
     inkscape:pagecheckerboard="0"
     inkscape:document-units="mm"
     showgrid="false"
     inkscape:zoom="4"
     inkscape:cx="87.625"
     inkscape:cy="189.25"
     inkscape:window-width="3840"
     inkscape:window-height="2036"
     inkscape:window-x="4468"
     inkscape:window-y="-12"
     inkscape:window-maximized="1"
     inkscape:current-layer="g842" />
  <defs
     id="defs2" />
  <g
     inkscape:label="[fixed] BG"
     inkscape:groupmode="layer"
     sodipodi:insensitive="true"
     id="g832">
    <rect
       x="0"
       y="0"
       width="100.0"
       height="100.0"
       style="fill:#FFFFFF;fill-opacity:1;stroke:none"
       id="rect830" />
  </g>
  <g
     inkscape:label="Edge.Cuts"
     inkscape:groupmode="layer"
     id="g834">
    <path
       id="path1029"
       style="color:#000000;fill:#ff0000;stroke-width:0.999999;stroke-linejoin:round;-inkscape-stroke:none"
       d="M 61.7963 2.67014 L 61.5134 2.67874 L 61.2309 2.69369 L 60.9486 2.71501 L 60.6662 2.74269 L 60.3839 2.77674 L 60.1024 2.81717 L 59.8209 2.86397 L 59.5399 2.91715 L 59.2597 2.97634 L 58.9798 3.04108 L 58.7009 3.11138 L 58.4223 3.18719 L 58.1445 3.26847 L 57.8675 3.3552 L 57.5907 3.44735 L 57.3148 3.5449 L 57.0393 3.6478 L 56.7644 3.75601 L 56.4901 3.86955 L 56.2165 3.98832 L 55.9432 4.11235 L 55.6704 4.24158 L 55.3981 4.37596 L 55.1261 4.5155 L 54.8549 4.66015 L 54.584 4.80987 L 54.3136 4.96465 L 54.0437 5.12446 L 53.7741 5.28924 L 53.505 5.45897 L 53.2365 5.63365 L 52.9679 5.81323 L 52.7002 5.99767 L 52.4324 6.18692 L 52.1652 6.38099 L 51.8982 6.57983 L 51.3654 6.9917 L 50.8338 7.42231 L 50.3033 7.87139 L 49.7736 8.3387 L 49.2453 8.82399 L 48.7174 9.32702 L 48.1904 9.84753 L 47.6638 10.3853 L 47.1379 10.9401 L 46.6124 11.5116 L 46.0872 12.0996 L 45.562 12.7039 L 45.0373 13.3242 L 44.5124 13.9603 L 43.9875 14.6119 L 43.4623 15.2788 L 42.9371 15.9607 L 42.4113 16.6574 L 42.2859 16.8169 L 42.1441 17.0084 L 41.9862 17.2309 L 41.8131 17.4832 L 41.4231 18.0729 L 40.9789 18.7691 L 40.4852 19.5631 L 39.9468 20.4462 L 39.3678 21.4099 L 38.754 22.4454 L 38.1092 23.5442 L 37.4385 24.6977 L 36.7466 25.8971 L 36.0381 27.1339 L 34.5903 29.685 L 33.1329 32.282 L 31.7036 34.8558 L 30.3401 37.3373 L 29.0801 39.6576 L 28.5007 40.7356 L 27.9614 41.7475 L 27.4667 42.6844 L 27.0215 43.5379 L 26.6305 44.2994 L 26.2983 44.9601 L 26.0298 45.5112 L 25.8295 45.9446 L 25.7564 46.1142 L 25.7022 46.2512 L 25.6674 46.3542 L 25.6527 46.4224 L 25.6051 46.669 L 25.5697 46.9198 L 25.5476 47.1749 L 25.54 47.4347 L 25.5441 47.634 L 25.5563 47.8308 L 25.5765 48.0247 L 25.6043 48.2163 L 25.6397 48.4052 L 25.6825 48.5915 L 25.7324 48.7751 L 25.7892 48.9561 L 25.8529 49.1347 L 25.9231 49.3106 L 25.9998 49.4839 L 26.0826 49.6546 L 26.1715 49.8228 L 26.2663 49.9885 L 26.3667 50.1515 L 26.4725 50.3118 L 26.5836 50.4695 L 26.6998 50.6248 L 26.8209 50.7775 L 26.9467 50.9275 L 27.0771 51.0749 L 27.2117 51.2198 L 27.3505 51.3619 L 27.4932 51.5016 L 27.6397 51.6389 L 27.7898 51.7734 L 27.9433 51.9054 L 28.1 52.0348 L 28.4221 52.2859 L 28.7548 52.5264 L 29.0988 52.7589 L 29.456 52.9857 L 29.8262 53.2066 L 30.2093 53.422 L 30.6052 53.6318 L 31.0137 53.8363 L 31.4348 54.0358 L 31.8683 54.23 L 32.3141 54.4197 L 32.772 54.6044 L 33.2421 54.7846 L 33.724 54.9605 L 34.2177 55.132 L 34.7233 55.2995 L 35.2403 55.4627 L 35.7687 55.6225 L 36.2884 55.7723 L 36.8183 55.9183 L 37.3586 56.0607 L 37.9089 56.199 L 38.469 56.3332 L 39.039 56.4636 L 39.6184 56.5901 L 40.2068 56.7121 L 40.8048 56.8303 L 41.4112 56.9441 L 42.0266 57.0539 L 42.6505 57.1592 L 43.2826 57.2605 L 43.9226 57.3571 L 44.5709 57.4495 L 45.2268 57.5376 L 45.2292 58.0974 L 45.2271 58.6549 L 45.2202 59.21 L 45.2091 59.7627 L 45.1932 60.3133 L 45.1731 60.8613 L 45.1482 61.4074 L 45.1194 61.9511 L 45.0858 62.4924 L 45.0479 63.0316 L 45.0059 63.5687 L 44.9596 64.1037 L 44.909 64.6366 L 44.8542 65.1671 L 44.7952 65.6957 L 44.7323 66.2222 L 44.6651 66.7466 L 44.5939 67.2692 L 44.5185 67.7894 L 44.4394 68.3079 L 44.356 68.8244 L 44.269 69.3388 L 44.178 69.8515 L 44.083 70.3622 L 43.9843 70.871 L 43.8819 71.3779 L 43.7755 71.883 L 43.6655 72.3862 L 43.552 72.8879 L 43.4345 73.3874 L 43.189 74.3817 L 42.9291 75.3691 L 42.6556 76.3497 L 42.3682 77.3239 L 42.0674 78.2917 L 41.7536 79.2535 L 41.4268 80.2091 L 41.0874 81.159 L 40.7357 82.1033 L 40.3719 83.042 L 39.9962 83.9752 L 39.6094 84.9036 L 39.211 85.827 L 38.8016 86.7454 L 38.3817 87.6595 L 37.9513 88.5689 L 37.5107 89.4741 L 37.4724 89.5563 L 37.4385 89.6423 L 37.4099 89.7326 L 37.3859 89.8262 L 37.3663 89.9238 L 37.3515 90.0246 L 37.3406 90.1292 L 37.3342 90.2366 L 37.3321 90.3474 L 37.3337 90.4612 L 37.3488 90.6972 L 37.3782 90.9438 L 37.4213 91.1999 L 37.4769 91.4648 L 37.5441 91.7373 L 37.6218 92.0162 L 37.7092 92.3011 L 37.8055 92.5903 L 37.9092 92.8835 L 38.0198 93.1793 L 38.1362 93.4767 L 38.3823 94.0728 L 38.6397 94.6641 L 38.9008 95.2422 L 39.1577 95.8 L 39.6276 96.8213 L 39.8253 97.2695 L 39.9877 97.6653 L 49.7276 98.2021 L 49.8122 98.0005 L 49.912 97.7917 L 50.0255 97.5764 L 50.1514 97.3552 L 50.289 97.1282 L 50.4364 96.8961 L 50.593 96.6596 L 50.7576 96.4186 L 51.105 95.9264 L 51.4693 95.4235 L 51.8408 94.9131 L 52.2104 94.3995 L 52.5681 93.8865 L 52.7399 93.6312 L 52.905 93.3774 L 53.0621 93.1258 L 53.2105 92.8766 L 53.3492 92.6305 L 53.4762 92.3876 L 53.5908 92.149 L 53.6918 91.9146 L 53.7781 91.6849 L 53.8482 91.4605 L 53.8768 91.3507 L 53.9011 91.2423 L 53.9207 91.1354 L 53.9355 91.0301 L 53.9456 90.9263 L 53.9504 90.8245 L 53.9501 90.7245 L 53.9445 90.6263 L 53.9265 90.3943 L 53.9125 90.1593 L 53.8961 89.6802 L 53.895 89.1888 L 53.9087 88.6864 L 53.937 88.1723 L 53.9796 87.6474 L 54.036 87.1116 L 54.1064 86.5655 L 54.19 86.0093 L 54.2866 85.4434 L 54.3961 84.8677 L 54.5181 84.2829 L 54.6522 83.6889 L 54.7983 83.0865 L 54.9557 82.4756 L 55.1248 81.8564 L 55.3044 81.2296 L 55.4949 80.5952 L 55.6957 79.9533 L 55.9066 79.3045 L 56.1273 78.6494 L 56.3575 77.9874 L 56.5966 77.3196 L 56.8448 76.646 L 57.1015 75.9668 L 57.3666 75.2823 L 57.6394 74.5928 L 57.9198 73.8988 L 58.208 73.2003 L 58.5027 72.4976 L 58.8043 71.7912 L 59.1126 71.0813 L 59.4631 70.2854 L 59.8203 69.4853 L 60.5514 67.8743 L 61.302 66.2508 L 62.0677 64.6167 L 62.845 62.9745 L 63.6293 61.3259 L 65.203 58.0191 L 66.2079 57.9379 L 67.1993 57.8469 L 68.1766 57.746 L 69.1395 57.636 L 70.0875 57.5161 L 71.0196 57.3873 L 71.9356 57.2494 L 72.8352 57.1023 L 73.717 56.9467 L 74.5814 56.7822 L 75.4273 56.6094 L 76.2544 56.4282 L 77.0619 56.2387 L 77.8495 56.0411 L 78.6166 55.8355 L 79.3624 55.6225 L 79.8911 55.4627 L 80.4078 55.2994 L 80.9131 55.132 L 81.4069 54.9605 L 81.8887 54.7846 L 82.3586 54.6044 L 82.8163 54.4197 L 83.2616 54.23 L 83.695 54.0358 L 84.1157 53.8363 L 84.5242 53.6318 L 84.9197 53.422 L 85.3026 53.2066 L 85.6727 52.9857 L 86.0299 52.7589 L 86.3739 52.5264 L 86.6636 52.3179 L 86.9456 52.1014 L 87.2187 51.8771 L 87.4819 51.645 L 87.7346 51.405 L 87.9754 51.1574 L 88.2032 50.9018 L 88.3122 50.7711 L 88.4175 50.6386 L 88.5191 50.5039 L 88.617 50.3674 L 88.7109 50.2287 L 88.8006 50.0882 L 88.8864 49.9459 L 88.9678 49.8014 L 89.0446 49.6551 L 89.1171 49.5069 L 89.1848 49.3566 L 89.2475 49.2045 L 89.3057 49.0503 L 89.3586 48.8942 L 89.4063 48.7362 L 89.4489 48.5761 L 89.4859 48.4142 L 89.5174 48.2502 L 89.5677 47.7842 L 89.5793 47.635 L 89.5886 47.4347 L 89.5349 46.9169 L 89.4738 46.3936 L 89.4052 45.8647 L 89.3296 45.331 L 89.2468 44.7926 L 89.1571 44.2494 L 89.0605 43.702 L 88.9573 43.1503 L 88.8475 42.5947 L 88.7311 42.0351 L 88.6086 41.4723 L 88.4797 40.9061 L 88.3448 40.3369 L 88.204 39.7647 L 88.0572 39.1899 L 87.9048 38.6127 L 87.7468 38.0333 L 87.5833 37.4518 L 87.4145 36.8686 L 87.2407 36.2838 L 87.0616 35.6977 L 86.8774 35.1105 L 86.6885 34.5223 L 86.4948 33.9335 L 86.2964 33.3442 L 86.0937 32.7546 L 85.8866 32.165 L 85.6752 31.5756 L 85.2404 30.3982 L 84.7901 29.2241 L 84.3253 28.055 L 83.8469 26.8928 L 83.3561 25.7392 L 82.8539 24.5958 L 82.3411 23.4645 L 81.8189 22.3469 L 81.2878 21.2448 L 80.7494 20.1601 L 80.2044 19.0943 L 79.6538 18.0492 L 79.0987 17.0267 L 78.5399 16.0283 L 77.9784 15.0559 L 77.4154 14.1112 L 77.1336 13.6498 L 76.8516 13.196 L 76.5698 12.7499 L 76.2883 12.3119 L 76.0586 11.9698 L 75.8279 11.6338 L 75.5967 11.3039 L 75.3644 10.9801 L 75.1313 10.6625 L 74.8971 10.3509 L 74.6622 10.0455 L 74.4264 9.74617 L 74.1896 9.45296 L 73.9518 9.16586 L 73.7128 8.88487 L 73.4731 8.61 L 73.2323 8.34121 L 72.9905 8.07856 L 72.7474 7.82199 L 72.5034 7.57154 L 72.2584 7.32719 L 72.0121 7.08894 L 71.7647 6.85679 L 71.516 6.63076 L 71.2665 6.41084 L 71.0154 6.197 L 70.7633 5.98925 L 70.5101 5.78761 L 70.2553 5.59209 L 69.9994 5.40264 L 69.7422 5.21931 L 69.4837 5.04207 L 69.2242 4.87091 L 68.963 4.70587 L 68.7003 4.54693 L 68.4365 4.39405 L 68.1711 4.24753 L 67.9044 4.10754 L 67.6362 3.97411 L 67.3668 3.84719 L 67.0959 3.72683 L 66.8239 3.61295 L 66.5506 3.50561 L 66.2765 3.40478 L 66.0013 3.31045 L 65.7251 3.22259 L 65.4481 3.14123 L 65.17 3.06632 L 64.8914 2.9979 L 64.6122 2.93594 L 64.3323 2.88043 L 64.0518 2.83137 L 63.7709 2.78875 L 63.4896 2.75255 L 63.2078 2.72282 L 62.926 2.69948 L 62.6437 2.68255 L 62.3614 2.67204 L 62.0789 2.66789 L 61.7963 2.67014 L 61.7963 2.67014"
       sodipodi:nodetypes="ssccssscccccscsscccsss" />
  </g>
  <g
     inkscape:label="B.Cu"
     inkscape:groupmode="layer"
     id="g836" />
  <g
     inkscape:label="B.Mask"
     inkscape:groupmode="layer"
     id="g838" />
  <g
     inkscape:label="B.SilkS"
     inkscape:groupmode="layer"
     id="g840" />
  <g
     inkscape:label="F.Cu"
     inkscape:groupmode="layer"
     id="g842">
    <path
       id="path2305"
       style="color:#000000;fill:#000000;stroke-width:1;stroke-linejoin:round;-inkscape-stroke:none"
       d="m 61.633964,5.8094645 c -0.579027,0.00297 -1.160592,0.050227 -1.74408,0.1410766 -5.33477,0.8306271 -10.54431,5.0998349 -15.827975,11.9083169 -6.780591,9.537711 -12.092494,19.318523 -15.987137,27.732673 -0.148033,0.398023 -0.22996,0.81252 -0.22996,1.243851 0,1.580153 1.065276,2.941498 2.668054,4.058669 1.602777,1.117169 3.820819,2.065827 6.531385,2.86494 2.956081,0.871498 6.512864,1.547548 10.447941,1.990061 -0.224063,3.334083 -0.803299,7.334787 -1.588535,11.398787 -0.957553,4.955825 -2.21996,10.014603 -3.492293,14.119034 -1.272334,4.104428 -2.683005,7.347395 -3.44165,8.252209 l -0.388607,0.462505 2.793111,6.754108 6.908107,0.320395 c 0.84451,-1.453499 4.61283,-4.443018 4.814689,-5.863207 -0.820674,-14.242989 5.307314,-24.52271 11.423592,-35.082095 5.564338,-0.366763 10.554604,-1.190342 14.494205,-2.351797 2.710564,-0.799113 4.928608,-1.747771 6.531385,-2.86494 1.602777,-1.117171 2.665987,-2.478516 2.665987,-4.058669 C 85.355821,36.62513 80.780971,22.920685 75.046064,14.575338 70.971573,8.7850925 66.50815,5.8882823 61.882011,5.811015 c -0.08261,-0.00138 -0.16533,-0.00198 -0.248047,-0.00156 z m 0.02842,1.9947104 c 0.06946,-7.408e-4 0.138853,-7.673e-4 0.208256,0 3.886496,0.042771 7.672525,2.4262181 11.540898,7.9235471 3.92385,5.576172 7.771497,14.316335 11.446845,26.605095 -1.527564,-0.926687 -3.501054,-1.730949 -5.843571,-2.421558 -5.42113,-1.59823 -12.816882,-2.568319 -20.986316,-2.568319 -8.169431,0 -15.56312,0.970089 -20.984247,2.568319 -1.982996,0.584616 -3.701042,1.250734 -5.108733,2.003495 C 36.609684,32.568191 41.196363,24.813306 45.641659,19.08514 50.778827,12.465433 55.719479,8.6245306 60.198391,7.9271649 60.688275,7.85089 61.176135,7.8092988 61.662386,7.8041749 Z M 58.757137,39.03741 c 1.905378,0.01404 3.764264,0.08293 5.561417,0.199471 -0.940718,0.860062 -1.708272,2.011054 -2.316139,3.412195 -0.900877,-0.09583 -1.840343,-0.171326 -2.832901,-0.208256 -0.826969,-0.845516 -1.518616,-1.989016 -0.834573,-2.949174 0.108014,-0.14829 0.24874,-0.300567 0.422196,-0.454236 z m -1.323951,0.0026 c -0.706896,1.162564 -0.335267,2.443107 0.355017,3.365688 -0.101645,-7.94e-4 -0.196402,-0.0078 -0.29869,-0.0078 -0.857462,0 -1.681128,0.03145 -2.484086,0.07751 -1.720932,-0.864299 -3.779226,-1.524492 -4.865335,-3.11092 2.325198,-0.195833 4.766815,-0.307436 7.293094,-0.324528 z m 8.361764,0.313676 c 3.254611,0.264848 6.248823,0.699399 8.926587,1.251087 -2.880548,0.475328 -5.605386,1.466635 -8.178314,2.92437 -0.279021,-0.08778 -0.539599,-0.18183 -0.848526,-0.260448 -0.7894,-0.200898 -1.690135,-0.36371 -2.655134,-0.496612 0.71727,-1.562466 1.63059,-2.701058 2.755387,-3.418397 z m -16.743164,0.110588 c 0.03454,0.07506 0.0724,0.149477 0.113689,0.222725 0.929188,1.42622 2.409531,2.279941 3.77186,2.957443 -0.569682,0.06352 -1.124124,0.135245 -1.647444,0.22066 -2.831817,-0.693407 -4.999431,-1.663441 -6.459037,-2.896466 1.343075,-0.202376 2.765872,-0.363362 4.220932,-0.504362 z m -5.476152,0.704866 c 1.298064,1.339147 3.172049,2.370593 5.569685,3.141928 -0.968089,0.254802 -1.792666,0.549894 -2.452563,0.931209 -5.39786,0.245631 -9.857981,-0.135914 -13.258622,-1.178221 1.151096,-0.549379 2.507366,-1.07241 4.084505,-1.537375 1.786509,-0.526685 3.83318,-0.980651 6.056995,-1.357541 z m 34.096626,1.13378 c 0.282363,0.07664 0.595037,0.143849 0.866097,0.223758 2.510476,0.957567 5.296956,1.657321 7.113262,3.525369 0.183177,0.635649 0.559322,1.99321 0.612371,2.190565 -6.022658,-3.430085 -11.1413,-3.579135 -17.035653,-2.252059 -0.242173,-0.275741 -0.537848,-0.511109 -0.852144,-0.700217 -0.180432,-0.108561 -0.373867,-0.209939 -0.578776,-0.305925 3.077615,-1.612259 6.354755,-2.530356 9.874848,-2.681488 z m -45.464407,2.40863 c 3.440224,1.24999 7.916767,1.736318 13.332518,1.575102 -0.178149,0.283424 -0.306956,0.598643 -0.306956,0.976167 0,0.158305 0.0254,0.30453 0.06098,0.44545 -6.157666,1.811914 -11.295305,1.648938 -15.374773,-0.675413 0.418095,-1.154705 1.328927,-1.755899 2.288233,-2.321306 z m 25.28166,0.686266 c 3.039319,0 5.793703,0.320365 7.712707,0.808738 0.959503,0.244153 1.710851,0.539195 2.142506,0.798918 0.182599,0.109865 0.280014,0.19467 0.334346,0.248563 -0.0063,0.01251 -0.01331,0.02471 -0.01963,0.0372 -0.05792,0.05434 -0.154305,0.132934 -0.314709,0.229446 -0.431654,0.259721 -1.183002,0.554731 -2.142506,0.798918 -1.919004,0.48837 -4.673388,0.806667 -7.712707,0.806667 -3.039316,0 -5.792152,-0.318297 -7.711157,-0.806667 -0.51113,-0.13008 -0.961231,-0.274765 -1.337902,-0.420648 -0.563753,-0.157509 -1.200875,-0.665732 -0.80667,-0.893482 0.431654,-0.259723 1.185069,-0.554765 2.144572,-0.798918 2.822617,-0.513151 5.024596,-0.804804 7.711152,-0.808738 z m 28.392582,3.808555 c -1.330468,1.621282 -3.421649,2.539323 -5.034835,3.15536 -2.015575,-2.122313 -5.819492,-3.555582 -11.196733,-4.538226 0.0568,-0.17409 0.09457,-0.358418 0.09457,-0.560689 0,-0.123621 -0.01357,-0.240993 -0.03566,-0.353983 5.534943,-1.240732 11.976706,-0.851546 16.172656,2.297538 z M 29.540316,46.967169 c 4.402418,2.453526 9.9002,2.544794 16.272391,0.62942 0.231878,0.246374 0.500946,0.463171 0.790133,0.637169 0.124359,0.07482 0.254656,0.146169 0.390673,0.214971 0.02098,0.04773 0.03876,0.125397 0.05943,0.17725 -0.759084,1.231704 -1.699884,1.989579 -3.092833,2.502175 -1.590019,0.585113 -3.806802,0.810083 -6.929811,0.857311 -2.362562,-0.733451 -4.279774,-1.584537 -5.55625,-2.474267 -1.293617,-0.901681 -1.874553,-1.768173 -1.933731,-2.544029 z M 69.1472,47.750581 c 5.139311,0.920962 8.748387,2.283984 10.644311,3.986324 -0.409604,0.137792 -0.812733,0.277365 -1.253154,0.407207 -1.451202,0.427839 -3.100294,0.796954 -4.849315,1.126032 -1.114163,-2.091401 -3.491497,-3.194362 -5.361947,-3.976502 0.273116,-0.51457 0.553553,-1.023398 0.820105,-1.543061 z m -2.982765,1.37976 c -0.979291,1.800818 -1.99917,3.58689 -3.033921,5.372799 L 62.126957,56.2343 C 56.256639,66.358002 50.431633,76.749409 51.10644,90.862678 l -3.685561,4.152204 -4.683437,-0.218593 -1.902209,-4.597654 c 1.189053,-1.688462 2.299234,-4.51136 3.486092,-8.340058 1.299215,-4.191151 2.573565,-9.304245 3.545004,-14.331942 0.791178,-4.094745 1.38335,-8.125071 1.617987,-11.571383 l 0.08578,-1.683623 c 0.02466,-1.667158 0.0079,-3.502197 -0.274908,-5.012095 2.153457,0.546688 5.022697,0.866617 8.194331,0.866611 3.176855,0 6.050545,-0.32086 8.205184,-0.869195 0.161153,-0.04101 0.316693,-0.0832 0.469739,-0.126609 z m -18.786966,0.749827 c 0.189325,1.561938 0.240458,2.840754 0.197926,4.182176 -2.649815,-0.301742 -5.0967,-0.716219 -7.296195,-1.214917 1.597444,-0.132776 2.91246,-0.371861 4.026628,-0.781862 1.277244,-0.470014 2.273242,-1.185624 3.071646,-2.185397 z m 20.477302,0.301789 c 1.720331,0.854474 3.883411,1.588582 4.822447,3.286622 -2.206784,0.377592 -4.601792,0.674867 -7.136001,0.874882 0.788064,-1.371428 1.557163,-2.76107 2.313554,-4.161504 z"
       sodipodi:nodetypes="ssccssscssccccccssccssscscssscssscccccccccccccccsccccccccccccscccccccccccccccsccccsssscccccccccscccccscscccccsccccccccsscccccccsccccsccccccc" />
    <path
       style="color:#000000;fill:#000000;stroke-width:1;stroke-linejoin:round;-inkscape-stroke:none"
       d="m 54.067165,28.997894 -2.885025,-0.97834 -2.441495,1.821978 0.03893,-3.046144 -2.487266,-1.75898 2.909086,-0.904281 0.90428,-2.909087 1.758981,2.487268 3.046143,-0.03894 -1.821976,2.441497 z"
       id="path5849-5" />
    <path
       style="color:#000000;fill:#000000;stroke-width:1;stroke-linejoin:round;-inkscape-stroke:none"
       d="m 78.011962,36.406232 -2.885024,-0.97834 -2.441496,1.821978 0.03893,-3.046144 -2.487266,-1.75898 2.909085,-0.904281 0.90428,-2.909087 1.758982,2.487268 3.046142,-0.03893 -1.821976,2.441497 z"
       id="path5849-5-9" />
    <path
       style="color:#000000;fill:#000000;stroke-width:1;stroke-linejoin:round;-inkscape-stroke:none"
       d="m 68.619254,20.729671 -2.885024,-0.97834 -2.441496,1.821977 0.03893,-3.046144 -2.487266,-1.758979 2.909085,-0.904281 0.90428,-2.909087 1.758982,2.487268 3.046142,-0.03894 -1.821976,2.441497 z"
       id="path5849-5-4" />
    <path
       style="color:#000000;fill:#000000;stroke-width:1;stroke-linejoin:round;-inkscape-stroke:none"
       d="m 65.5104,31.974462 -2.885025,-0.97834 -2.441495,1.821978 0.03893,-3.046144 -2.487266,-1.75898 2.909086,-0.904281 0.90428,-2.909087 1.758981,2.487268 3.046143,-0.03894 -1.821976,2.441497 z"
       id="path5849-5-8" />
    <path
       style="color:#000000;fill:#000000;stroke-width:1;stroke-linejoin:round;-inkscape-stroke:none"
       d="m 46.195816,36.670816 -2.885024,-0.97834 -2.441496,1.821978 0.03893,-3.046144 -2.487266,-1.75898 2.909085,-0.904281 0.90428,-2.909087 1.758982,2.487268 3.046142,-0.03894 -1.821976,2.441497 z"
       id="path5849-5-3" />
  </g>
  <g
     inkscape:label="F.Mask"
     inkscape:groupmode="layer"
     id="g844" />
  <g
     inkscape:label="F.SilkS"
     inkscape:groupmode="layer"
     id="g846" />
  <g
     inkscape:label="Dwgs.User"
     inkscape:groupmode="layer"
     id="g848" />
  <g
     inkscape:label="Drill"
     inkscape:groupmode="layer"
     id="g850" />
</svg>
