<?xml version="1.0" encoding="UTF-8" standalone="no"?>
<svg
   version="1.1"
   width="1000"
   height="1000"
   viewBox="0 0 1000 1000"
   id="svg78"
   sodipodi:docname="outline.svg"
   inkscape:version="1.1 (c68e22c387, 2021-05-23)"
   xmlns:inkscape="http://www.inkscape.org/namespaces/inkscape"
   xmlns:sodipodi="http://sodipodi.sourceforge.net/DTD/sodipodi-0.dtd"
   xmlns="http://www.w3.org/2000/svg"
   xmlns:svg="http://www.w3.org/2000/svg">
  <sodipodi:namedview
     id="namedview80"
     pagecolor="#ffffff"
     bordercolor="#666666"
     borderopacity="1.0"
     inkscape:pageshadow="2"
     inkscape:pageopacity="0.0"
     inkscape:pagecheckerboard="0"
     showgrid="false"
     inkscape:zoom="0.2754181"
     inkscape:cx="508.31808"
     inkscape:cy="818.75519"
     inkscape:window-width="1855"
     inkscape:window-height="1053"
     inkscape:window-x="5348"
     inkscape:window-y="121"
     inkscape:window-maximized="0"
     inkscape:current-layer="path10" />
  <defs
     id="defs2" />
  <g
     id="g76">
    <g
       id="g980"
       transform="translate(-35.833626,-33.277067)"
       style="fill:none">
      <g
         id="path10"
         style="fill:none">
        <path
           style="color:#000000;fill:none;stroke:#ff0000;stroke-linecap:round;stroke-miterlimit:10;-inkscape-stroke:none;paint-order:fill stroke markers"
           d="m 473.95618,122.83822 c -65.7938,0 -134.3163,37.03224 -192.795,110.16992 -56.9777,71.26056 -104.5228,176.97431 -131.289,316.9082 -1.389,3.79994 -2.1953,7.6962 -2.1953,11.70118 0,14.04346 8.9633,26.8982 23.914,38.06054 14.9507,11.16234 36.1506,20.95709 62.2012,29.1836 16.6546,5.25935 35.4782,9.78103 55.7149,13.61718 l -0.076,0.93164 -0.1719,2.0293 -0.1738,2.03516 -0.1778,2.04101 -0.1816,2.04688 -0.1855,2.04883 -0.1895,2.05468 -0.1914,2.0586 -0.1953,2.0625 -0.1973,2.0664 -0.1992,2.06836 -0.2031,2.07227 -0.2071,2.07422 -0.207,2.07617 -0.2109,2.08008 -0.211,2.08008 -0.2148,2.08398 -0.2148,2.08203 -0.2168,2.08594 -0.2188,2.08594 -0.2207,2.08593 -0.2207,2.08789 -0.2207,2.08594 -0.2227,2.08594 -0.2226,2.08789 -0.2227,2.08594 -0.2226,2.08398 -0.2227,2.08399 -0.2207,2.08203 -0.2226,2.08203 -0.2207,2.08008 -0.2208,2.07617 -0.2187,2.07617 -0.2168,2.07422 -0.2168,2.07031 -0.2148,2.06641 -0.2129,2.06445 -0.209,2.0625 -0.209,2.05859 -0.2051,2.05469 -0.2031,2.05078 -0.1992,2.04688 -0.1973,2.04297 -0.1933,2.03906 -0.1915,2.0332 -0.1855,2.0293 -0.1816,2.02344 -0.1797,2.01953 -0.1739,2.01367 -0.1699,2.0098 -0.164,2.0019 -0.1602,1.9981 -0.1543,1.9902 -0.1504,1.9863 -0.1426,1.9785 -0.1386,1.9727 -0.1328,1.9668 -0.127,1.959 -0.1191,1.9511 -0.1153,1.9454 -0.1074,1.9394 -0.1,1.9297 -0.094,1.9238 -0.086,1.916 -0.08,1.9082 -0.07,1.9004 -0.064,1.8907 -0.057,1.8847 -0.049,1.875 -0.039,1.8672 -0.031,1.8594 -0.024,1.8496 -0.014,1.8418 -0.01,1.8301 v 1.8242 l 0.012,1.8144 0.021,1.8047 0.031,1.795 0.041,1.7851 0.051,1.7774 0.061,1.7656 0.07,1.7558 0.08,1.7481 0.09,1.7363 0.1016,1.7246 0.1113,1.7168 0.1211,1.7051 0.1328,1.6953 0.1426,1.6856 0.1543,1.6738 0.166,1.6621 0.1758,1.6523 0.1894,1.6426 0.1992,1.6289 0.211,1.6192 0.2226,1.6074 0.2325,1.5976 0.246,1.584 0.2579,1.5742 0.2695,1.5625 0.2832,1.5508 0.293,1.5371 0.3066,1.5274 0.3184,1.5156 0.33,1.502 0.3418,1.4921 0.3555,1.4786 0.3691,1.4648 0.3809,1.4551 0.3926,1.4414 0.4062,1.4297 0.418,1.416 0.4316,1.4043 0.4434,1.3926 0.457,1.3769 0.4688,1.3672 0.4824,1.3516 0.4961,1.3398 0.5078,1.3262 0.5215,1.3144 0.5352,1.3008 0.5468,1.2871 0.5606,1.2735 0.5722,1.2597 0.586,1.2461 0.5996,1.2325 0.6133,1.2207 0.625,1.205 0.6367,1.1914 0.6504,1.1778 0.664,1.164 0.6778,1.1485 0.6875,1.1367 0.7031,1.1211 0.7148,1.1055 0.7266,1.0937 0.7402,1.0781 0.7539,1.0645 0.7637,1.0488 0.7774,1.0332 0.791,1.0195 0.8027,1.0059 0.8145,0.9902 0.8261,0.9746 0.8379,0.961 0.8516,0.9453 0.8613,0.9297 0.875,0.916 0.8848,0.8984 0.8984,0.8848 0.9082,0.8691 0.9199,0.8555 0.9317,0.8379 0.9414,0.8223 0.9531,0.8086 0.9649,0.791 0.9746,0.7773 0.9863,0.7598 0.9961,0.7461 1.0059,0.7285 1.0175,0.7129 1.0254,0.6973 1.0371,0.6835 1.0469,0.6661 1.0566,0.6484 1.0645,0.6348 1.0762,0.6191 1.084,0.6016 1.0918,0.5859 1.1035,0.5703 1.1093,0.5547 1.1211,0.5391 1.127,0.5215 1.1367,0.5058 1.1445,0.4902 1.1524,0.4747 1.1601,0.4589 1.168,0.4414 1.1758,0.4258 1.1816,0.4102 1.1895,0.3926 1.1973,0.3789 1.205,0.3613 1.211,0.3437 1.2168,0.3301 1.2246,0.3125 1.2285,0.2969 1.2363,0.2813 1.2422,0.2656 1.248,0.248 1.254,0.2324 1.2597,0.2168 1.2637,0.2012 1.2695,0.1836 1.2754,0.168 1.2793,0.1523 1.2852,0.1367 1.289,0.1192 1.293,0.1054 1.2969,0.088 1.3027,0.072 1.3047,0.055 1.3105,0.041 1.3125,0.023 1.3184,0.01 1.3203,-0.01 1.3223,-0.023 1.3262,-0.041 1.33,-0.055 1.3321,-0.072 1.3339,-0.088 1.3379,-0.1035 1.3399,-0.1191 1.3418,-0.1367 1.3437,-0.1504 1.3457,-0.168 1.3457,-0.1836 1.3496,-0.1972 1.3516,-0.2149 1.3516,-0.2305 1.3535,-0.248 1.3535,-0.2617 1.3555,-0.2774 1.3554,-0.2949 1.3555,-0.3086 1.3574,-0.3262 1.3574,-0.3398 1.3575,-0.3574 1.3574,-0.3731 1.3574,-0.3867 1.3574,-0.4043 1.3575,-0.4199 1.3554,-0.4356 1.3574,-0.4511 1.3555,-0.4649 1.3535,-0.4824 1.3536,-0.498 1.3535,-0.5118 1.3515,-0.5293 1.3496,-0.5449 1.3477,-0.5586 1.3477,-0.5742 1.3457,-0.5918 1.3437,-0.6055 1.3418,-0.621 1.3398,-0.6368 1.3379,-0.6523 1.336,-0.666 1.334,-0.6836 1.33,-0.6973 1.3282,-0.7129 1.3261,-0.7285 1.3223,-0.7441 1.3203,-0.7578 1.3164,-0.7754 1.3145,-0.7891 1.3125,-0.8027 1.3066,-0.8203 1.3047,-0.834 1.3008,-0.8477 1.2969,-0.8652 1.2949,-0.8789 1.289,-0.8926 1.2871,-0.9082 1.2832,-0.9238 1.2774,-0.9395 1.2754,-0.9531 1.2715,-0.9668 1.2656,-0.9824 1.2617,-0.9961 1.2578,-1.0117 1.2539,-1.0254 1.2481,-1.041 1.2461,-1.0547 1.2383,-1.0703 1.2363,-1.0821 1.2305,-1.0996 1.2246,-1.1113 1.2207,-1.127 1.2168,-1.1406 1.2109,-1.1543 1.2051,-1.168 1.2011,-1.1836 1.1954,-1.1972 1.1894,-1.209 1.1856,-1.2246 1.1796,-1.2383 1.1739,-1.2519 1.1699,-1.2657 1.1621,-1.2793 1.1582,-1.2929 1.1524,-1.3067 1.1464,-1.3203 1.1426,-1.332 1.1348,-1.3457 1.1308,-1.3614 1.1231,-1.371 1.1191,-1.3868 1.1114,-1.3984 1.1074,-1.4121 1.0996,-1.4258 1.0957,-1.4375 1.0879,-1.4492 1.084,-1.4649 1.0761,-1.4746 1.0704,-1.4882 1.0644,-1.5 1.0586,-1.5137 1.0527,-1.5254 1.0469,-1.5371 1.0391,-1.5508 1.0332,-1.5605 1.0273,-1.5743 1.0215,-1.5859 1.0156,-1.5977 1.0078,-1.6074 1.002,-1.6211 0.9961,-1.6328 0.9902,-1.6426 0.9824,-1.6543 0.9766,-1.666 0.9707,-1.6777 0.9629,-1.6895 0.957,-1.6972 0.9512,-1.711 0.9453,-1.7207 0.9375,-1.7304 0.9297,-1.7422 0.9238,-1.752 0.918,-1.7617 0.9121,-1.7734 0.9043,-1.7832 0.8965,-1.7911 0.8906,-1.8027 0.8848,-1.8125 0.8769,-1.8223 0.8711,-1.83 0.8633,-1.8399 0.8574,-1.8496 0.8496,-1.8594 0.8438,-1.8672 0.8359,-1.8769 0.8301,-1.8848 0.8223,-1.8925 0.8144,-1.9024 0.8086,-1.9101 0.8028,-1.92 0.7929,-1.9258 0.7891,-1.9335 0.7793,-1.9415 0.7734,-1.9492 0.7656,-1.957 0.7579,-1.9648 0.7519,-1.9707 0.7441,-1.9766 0.7364,-1.9863 0.7304,-1.9903 0.7227,-1.998 0.7148,-2.0039 0.7071,-2.0098 0.6992,-2.0156 0.6934,-2.0215 0.6855,-2.02734 0.6758,-2.0332 0.6699,-2.03711 0.6621,-2.04297 0.6563,-2.04688 0.6464,-2.05273 0.6387,-2.05664 0.6309,-2.06055 0.625,-2.0664 0.6152,-2.06836 0.6074,-2.07227 0.5996,-2.07617 0.5918,-2.08008 0.584,-2.08203 0.5762,-2.08594 0.5684,-2.08789 0.5586,-2.08984 0.5507,-2.09375 0.545,-2.09375 0.5332,-2.09766 0.5273,-2.09766 0.5176,-2.0996 0.5117,-2.09961 0.5,-2.10157 0.4941,-2.10156 0.4844,-2.10351 0.4766,-2.10157 0.4668,-2.10351 0.459,-2.10157 0.4511,-2.10156 0.4414,-2.10156 0.4317,-2.09961 0.4258,-2.09766 0.414,-2.0957 0.4063,-2.0957 0.3984,-2.09375 0.3887,-2.08985 0.3808,-2.08789 0.3711,-2.08398 0.3614,-2.08203 0.3535,-2.07813 0.3457,-2.07422 0.334,-2.07031 0.3281,-2.0664 0.3164,-2.06055 0.3086,-2.05664 0.2988,-2.05078 0.024,-0.15821 c 23.5687,-4.12389 45.1906,-9.24689 64.1757,-15.24218 26.0506,-8.22651 47.2505,-18.02126 62.2012,-29.1836 14.9507,-11.16234 23.9141,-24.01708 23.9141,-38.06054 0,-0.008 0,-0.0155 0,-0.0234 a 3.7795277,3.7795277 0 0 0 0,-0.01 c -1.2479,-145.4992 -30.9989,-254.9106 -76.978,-328.22442 -45.9791,-73.31382 -108.5011,-110.52148 -174.2949,-110.52148 z"
           id="path1225" />
      </g>
    </g>
  </g>
</svg>
