<?xml version="1.0" encoding="UTF-8" standalone="no"?>
<svg
   version="1.1"
   width="1000"
   height="1000"
   viewBox="0 0 1000 1000"
   id="svg78"
   sodipodi:docname="output.svg"
   inkscape:version="1.1 (c68e22c387, 2021-05-23)"
   xmlns:inkscape="http://www.inkscape.org/namespaces/inkscape"
   xmlns:sodipodi="http://sodipodi.sourceforge.net/DTD/sodipodi-0.dtd"
   xmlns="http://www.w3.org/2000/svg"
   xmlns:svg="http://www.w3.org/2000/svg">
  <sodipodi:namedview
     id="namedview80"
     pagecolor="#ffffff"
     bordercolor="#666666"
     borderopacity="1.0"
     inkscape:pageshadow="2"
     inkscape:pageopacity="0.0"
     inkscape:pagecheckerboard="0"
     showgrid="false"
     inkscape:zoom="1.1016724"
     inkscape:cx="260.96688"
     inkscape:cy="376.70002"
     inkscape:window-width="3840"
     inkscape:window-height="2036"
     inkscape:window-x="4468"
     inkscape:window-y="-12"
     inkscape:window-maximized="1"
     inkscape:current-layer="g76" />
  <defs
     id="defs2" />
  <g
     id="g76">
    <path
       fill="rgb(255,255,255)"
       stroke="rgb(0,0,0)"
       paint-order="fill stroke markers"
       d=" M 225 500 C 328 -60 772 -60 775 500"
       fill-opacity="1"
       stroke-opacity="1"
       stroke-linecap="round"
       stroke-miterlimit="10"
       stroke-width="5"
       stroke-dasharray=""
       id="path16"
       style="stroke-width:7.55905512" />
    <path
       fill="rgb(255,255,255)"
       stroke="rgb(0,0,0)"
       paint-order="fill stroke markers"
       d=" M 225 500 C 225 455.817220016 348.121693805 420 500 420 C 651.878306195 420 775 455.817220016 775 500 C 775 544.182779984 651.878306195 580 500 580 C 348.121693805 580 225 544.182779984 225 500"
       fill-opacity="1"
       stroke-opacity="1"
       stroke-linecap="round"
       stroke-miterlimit="10"
       stroke-width="5"
       stroke-dasharray=""
       id="path18"
       style="stroke-width:7.55905512" />
    <path
       fill="rgb(255,255,255)"
       stroke="rgb(0,0,0)"
       paint-order="fill stroke markers"
       d=" M 235 500 C 235 461.340067514 353.644541303 430 500 430 C 646.355458697 430 765 461.340067514 765 500 C 765 538.659932486 646.355458697 570 500 570 C 353.644541303 570 235 538.659932486 235 500"
       fill-opacity="1"
       stroke-opacity="1"
       stroke-linecap="round"
       stroke-miterlimit="10"
       stroke-width="5"
       stroke-dasharray=""
       id="path20"
       style="stroke-width:7.55905512" />
    <path
       fill="rgb(255,255,255)"
       stroke="rgb(0,0,0)"
       paint-order="fill stroke markers"
       d=" M 350 500 C 350 487.113355838 417.15728753 476.6666666666667 500 476.6666666666667 C 582.84271247 476.6666666666667 650 487.113355838 650 500 C 650 512.886644162 582.84271247 523.3333333333334 500 523.3333333333334 C 417.15728753 523.3333333333334 350 512.886644162 350 500"
       fill-opacity="1"
       stroke-opacity="1"
       stroke-linecap="round"
       stroke-miterlimit="10"
       stroke-width="5"
       stroke-dasharray=""
       id="path22"
       style="stroke-width:7.55905512" />
    <path
       fill="none"
       stroke="rgb(0,0,0)"
       paint-order="fill stroke markers"
       d=" M 753.1641696182855 479.31358553370626 C 707.5 500 707.5 500 650 500"
       stroke-opacity="1"
       stroke-linecap="round"
       stroke-miterlimit="10"
       stroke-width="5"
       stroke-dasharray=""
       id="path24"
       style="stroke-width:7.55905512" />
    <path
       fill="none"
       stroke="rgb(0,0,0)"
       paint-order="fill stroke markers"
       d=" M 764.6861667085129 496.5942639417782 C 700.981005934191 511.6055280676932 700.981005934191 511.6055280676932 645.2874741692947 505.8027640338466"
       stroke-opacity="1"
       stroke-linecap="round"
       stroke-miterlimit="10"
       stroke-width="5"
       stroke-dasharray=""
       id="path26"
       style="stroke-width:7.55905512" />
    <path
       fill="none"
       stroke="rgb(0,0,0)"
       paint-order="fill stroke markers"
       d=" M 759.576958496817 514.0889372718093 C 681.8336361091017 522.4818381247467 681.8336361091017 522.4818381247467 631.4460020065795 511.24091906237334"
       stroke-opacity="1"
       stroke-linecap="round"
       stroke-miterlimit="10"
       stroke-width="5"
       stroke-dasharray=""
       id="path28"
       style="stroke-width:7.55905512" />
    <path
       fill="none"
       stroke="rgb(0,0,0)"
       paint-order="fill stroke markers"
       d=" M 738.1575753254921 530.698350857566 C 651.260990189943 531.9455316100054 651.260990189943 531.9455316100054 609.3452941132117 515.9727658050027"
       stroke-opacity="1"
       stroke-linecap="round"
       stroke-miterlimit="10"
       stroke-width="5"
       stroke-dasharray=""
       id="path30"
       style="stroke-width:7.55905512" />
    <path
       fill="none"
       stroke="rgb(0,0,0)"
       paint-order="fill stroke markers"
       d=" M 701.7738758141734 545.3788741583047 C 611.1840599581418 539.4019698567606 611.1840599581418 539.4019698567606 580.3740192468495 519.7009849283803"
       stroke-opacity="1"
       stroke-linecap="round"
       stroke-miterlimit="10"
       stroke-width="5"
       stroke-dasharray=""
       id="path32"
       style="stroke-width:7.55905512" />
    <path
       fill="none"
       stroke="rgb(0,0,0)"
       paint-order="fill stroke markers"
       d=" M 652.7119816130437 557.2080759038524 C 564.1210263328016 544.382637427107 564.1210263328016 544.382637427107 546.3525491562422 522.1913187135535"
       stroke-opacity="1"
       stroke-linecap="round"
       stroke-miterlimit="10"
       stroke-width="5"
       stroke-dasharray=""
       id="path34"
       style="stroke-width:7.55905512" />
    <path
       fill="none"
       stroke="rgb(0,0,0)"
       paint-order="fill stroke markers"
       d=" M 594.0546319717853 565.4426838437753 C 513.0290328023326 546.5745806599859 513.0290328023326 546.5745806599859 509.41857792939703 523.287290329993"
       stroke-opacity="1"
       stroke-linecap="round"
       stroke-miterlimit="10"
       stroke-width="5"
       stroke-dasharray=""
       id="path36"
       style="stroke-width:7.55905512" />
    <path
       fill="none"
       stroke="rgb(0,0,0)"
       paint-order="fill stroke markers"
       d=" M 529.4874838949997 569.5652872764385 C 461.1183772234622 545.8400717006721 461.1183772234622 545.8400717006721 471.8928028121413 522.920035850336"
       stroke-opacity="1"
       stroke-linecap="round"
       stroke-miterlimit="10"
       stroke-width="5"
       stroke-dasharray=""
       id="path38"
       style="stroke-width:7.55905512" />
    <path
       fill="none"
       stroke="rgb(0,0,0)"
       paint-order="fill stroke markers"
       d=" M 463.0675287577116 569.3168478662931 C 411.6507970002474 542.2252624484142 411.6507970002474 542.2252624484142 436.1331062652391 521.1126312242071"
       stroke-opacity="1"
       stroke-linecap="round"
       stroke-miterlimit="10"
       stroke-width="5"
       stroke-dasharray=""
       id="path40"
       style="stroke-width:7.55905512" />
    <path
       fill="none"
       stroke="rgb(0,0,0)"
       paint-order="fill stroke markers"
       d=" M 398.96817661670445 564.7129759751746 C 367.7345221271469 535.9572846628702 367.7345221271469 535.9572846628702 404.38640153769654 517.9786423314351"
       stroke-opacity="1"
       stroke-linecap="round"
       stroke-miterlimit="10"
       stroke-width="5"
       stroke-dasharray=""
       id="path42"
       style="stroke-width:7.55905512" />
    <path
       fill="none"
       stroke="rgb(0,0,0)"
       paint-order="fill stroke markers"
       d=" M 341.2170255079244 556.0429498058584 C 332.12897366719847 527.4299784403154 332.12897366719847 527.4299784403154 378.6474508437579 513.7149892201577"
       stroke-opacity="1"
       stroke-linecap="round"
       stroke-miterlimit="10"
       stroke-width="5"
       stroke-dasharray=""
       id="path44"
       style="stroke-width:7.55905512" />
    <path
       fill="none"
       stroke="rgb(0,0,0)"
       paint-order="fill stroke markers"
       d=" M 293.4427926494128 543.8515389886885 C 307.07137917818784 517.1791457919517 307.07137917818784 517.1791457919517 360.5335271167623 508.58957289597583"
       stroke-opacity="1"
       stroke-linecap="round"
       stroke-miterlimit="10"
       stroke-width="5"
       stroke-dasharray=""
       id="path46"
       style="stroke-width:7.55905512" />
    <path
       fill="none"
       stroke="rgb(0,0,0)"
       paint-order="fill stroke markers"
       d=" M 258.64730879300794 528.9047747021802 C 294.13619947724584 505.84888423300083 294.13619947724584 505.84888423300083 351.1827948028283 502.9244421165004"
       stroke-opacity="1"
       stroke-linecap="round"
       stroke-miterlimit="10"
       stroke-width="5"
       stroke-dasharray=""
       id="path48"
       style="stroke-width:7.55905512" />
    <path
       fill="none"
       stroke="rgb(0,0,0)"
       paint-order="fill stroke markers"
       d=" M 239.0169021582456 512.1418171168087 C 294.13619947724584 494.15111576699917 294.13619947724584 494.15111576699917 351.1827948028283 497.0755578834996"
       stroke-opacity="1"
       stroke-linecap="round"
       stroke-miterlimit="10"
       stroke-width="5"
       stroke-dasharray=""
       id="path50"
       style="stroke-width:7.55905512" />
    <path
       fill="none"
       stroke="rgb(0,0,0)"
       paint-order="fill stroke markers"
       d=" M 235.78502338957355 494.6159445075085 C 307.07137917818784 482.82085420804833 307.07137917818784 482.82085420804833 360.5335271167623 491.41042710402417"
       stroke-opacity="1"
       stroke-linecap="round"
       stroke-miterlimit="10"
       stroke-width="5"
       stroke-dasharray=""
       id="path52"
       style="stroke-width:7.55905512" />
    <path
       fill="none"
       stroke="rgb(0,0,0)"
       paint-order="fill stroke markers"
       d=" M 249.15474331604597 477.4283719059725 C 332.12897366719835 472.5700215596846 332.12897366719835 472.5700215596846 378.64745084375784 486.2850107798423"
       stroke-opacity="1"
       stroke-linecap="round"
       stroke-miterlimit="10"
       stroke-width="5"
       stroke-dasharray=""
       id="path54"
       style="stroke-width:7.55905512" />
    <path
       fill="none"
       stroke="rgb(0,0,0)"
       paint-order="fill stroke markers"
       d=" M 278.2859932642924 461.6590577102254 C 367.7345221271469 464.04271533712983 367.7345221271469 464.04271533712983 404.38640153769654 482.0213576685649"
       stroke-opacity="1"
       stroke-linecap="round"
       stroke-miterlimit="10"
       stroke-width="5"
       stroke-dasharray=""
       id="path56"
       style="stroke-width:7.55905512" />
    <path
       fill="none"
       stroke="rgb(0,0,0)"
       paint-order="fill stroke markers"
       d=" M 321.3483496628215 448.29884592666696 C 411.6507970002475 457.77473755158576 411.6507970002475 457.77473755158576 436.1331062652392 478.8873687757929"
       stroke-opacity="1"
       stroke-linecap="round"
       stroke-miterlimit="10"
       stroke-width="5"
       stroke-dasharray=""
       id="path58"
       style="stroke-width:7.55905512" />
    <path
       fill="none"
       stroke="rgb(0,0,0)"
       paint-order="fill stroke markers"
       d=" M 375.63604628684493 438.18720779708 C 461.1183772234622 454.1599282993278 461.1183772234622 454.1599282993278 471.8928028121413 477.0799641496639"
       stroke-opacity="1"
       stroke-linecap="round"
       stroke-miterlimit="10"
       stroke-width="5"
       stroke-dasharray=""
       id="path60"
       style="stroke-width:7.55905512" />
    <path
       fill="none"
       stroke="rgb(0,0,0)"
       paint-order="fill stroke markers"
       d=" M 437.73798750129345 431.95949473315017 C 513.0290328023324 453.42541934001395 513.0290328023324 453.42541934001395 509.4185779293969 476.712709670007"
       stroke-opacity="1"
       stroke-linecap="round"
       stroke-miterlimit="10"
       stroke-width="5"
       stroke-dasharray=""
       id="path62"
       style="stroke-width:7.55905512" />
    <path
       fill="none"
       stroke="rgb(0,0,0)"
       paint-order="fill stroke markers"
       d=" M 503.75207994470026 430.00701685061057 C 564.1210263328015 455.61736257289283 564.1210263328015 455.61736257289283 546.352549156242 477.8086812864464"
       stroke-opacity="1"
       stroke-linecap="round"
       stroke-miterlimit="10"
       stroke-width="5"
       stroke-dasharray=""
       id="path64"
       style="stroke-width:7.55905512" />
    <path
       fill="none"
       stroke="rgb(0,0,0)"
       paint-order="fill stroke markers"
       d=" M 569.5304154059968 432.45245551553256 C 611.1840599581418 460.59803014323927 611.1840599581418 460.59803014323927 580.3740192468495 480.29901507161964"
       stroke-opacity="1"
       stroke-linecap="round"
       stroke-miterlimit="10"
       stroke-width="5"
       stroke-dasharray=""
       id="path66"
       style="stroke-width:7.55905512" />
    <path
       fill="none"
       stroke="rgb(0,0,0)"
       paint-order="fill stroke markers"
       d=" M 630.939899152354 439.14215482290484 C 651.2609901899428 468.05446838999455 651.2609901899428 468.05446838999455 609.3452941132117 484.0272341949973"
       stroke-opacity="1"
       stroke-linecap="round"
       stroke-miterlimit="10"
       stroke-width="5"
       stroke-dasharray=""
       id="path68"
       style="stroke-width:7.55905512" />
    <path
       fill="none"
       stroke="rgb(0,0,0)"
       paint-order="fill stroke markers"
       d=" M 684.1219474717057 449.65577636225214 C 681.8336361091016 477.5181618752532 681.8336361091016 477.5181618752532 631.4460020065794 488.7590809376266"
       stroke-opacity="1"
       stroke-linecap="round"
       stroke-miterlimit="10"
       stroke-width="5"
       stroke-dasharray=""
       id="path70"
       style="stroke-width:7.55905512" />
    <path
       fill="none"
       stroke="rgb(0,0,0)"
       paint-order="fill stroke markers"
       d=" M 725.734936678255 463.33271062586203 C 700.981005934191 488.3944719323067 700.981005934191 488.3944719323067 645.2874741692947 494.19723596615336"
       stroke-opacity="1"
       stroke-linecap="round"
       stroke-miterlimit="10"
       stroke-width="5"
       stroke-dasharray=""
       id="path72"
       style="stroke-width:7.55905512" />
    <path
       fill="rgb(255,255,255)"
       stroke="rgb(0,0,0)"
       paint-order="fill stroke markers"
       d=" M 380 500 L 380 500 L 379.99994300286585 501.41161855951975 L 379.9995488149465 502.84614975104483 L 379.99849331940135 504.3031097082909 L 379.99646645203575 505.78201837662067 L 379.9931719713276 507.28239950403645 L 379.98832722940506 508.80378063241295 L 379.98166294400295 510.3456930889551 L 379.9729229714244 511.9076719778633 L 379.9618640805321 513.4892561721927 L 379.9482557277949 515.0899883058903 L 379.931879833414 516.7094147659959 L 379.9125305585524 518.3470856849935 L 379.89001408369285 520.0025549332953 L 379.8641483881456 521.6753801118482 L 379.83476303073024 523.3651225448506 L 379.8016989316544 525.0713472725615 L 379.7648081556086 526.7936230441934 L 379.7239536961025 528.5315223108738 L 379.6790092610618 530.2846212186657 L 379.629859059706 532.0524996016333 L 379.5763975907288 533.8347409749422 L 379.5185294318006 535.6309325279818 L 379.4561690304106 537.4406651175013 L 379.3892404960728 539.263533260745 L 379.31767739390807 541.0991351285809 L 379.2414225396258 542.9470725386077 L 379.1604277959191 544.8069509482343 L 379.0746538702955 546.6783794477209 L 378.98407011435484 548.5609707531713 L 378.8886543245363 550.4543411994679 L 378.78839254434723 552.3581107331436 L 378.68327886809095 554.2719029051764 L 378.57331524610925 556.1953448637022 L 378.45851129155454 558.1280673466401 L 378.3388840887063 560.0697046742165 L 378.214458002846 562.0198947413836 L 378.08526449170455 563.9782790101269 L 377.95134191849723 565.944502501653 L 377.81273536655596 567.9182137884477 L 377.6694964555756 569.8990649862059 L 377.52168315948444 571.8867117456169 L 377.3693596259513 573.8808132440098 L 377.21259599754103 575.8810321768431 L 377.0514682345308 577.8870347490403 L 376.8860579393959 579.8984906661617 L 376.7164521829782 581.9150731254127 L 376.5427433323456 583.9364588064738 L 376.36502888035324 585.9623278621597 L 376.18341127691593 587.9923639088943 L 375.9979977619999 590.026254017 L 375.80890020034605 592.0636887007986 L 375.61623491792744 594.1043619085186 L 375.4201225401551 596.1479710120038 L 375.22068783183545 598.194216796224 L 375.0180595388902 600.2428034485795 L 374.8123702318419 602.2934385479996 L 374.6037561510766 604.3458330538327 L 374.39235705388495 606.3997012945215 L 374.1783160632927 608.4547609560649 L 373.96177951868185 610.510733070262 L 373.742896828211 612.5673420027383 L 373.5218203230383 614.6243154407478 L 373.2987051133532 616.681384380754 L 373.07370894621846 618.7382831157868 L 372.8469920652308 620.79474922257 L 372.6187170719991 622.850523548426 L 372.3890487894481 624.9053501979486 L 372.1581541269475 626.9589765194468 L 371.92620194726965 629.01115309116 L 371.6933629353805 631.0616337072406 L 371.45980946906366 633.1101753635074 L 371.2257154913794 635.1565382429637 L 370.99125638496196 637.2004857010883 L 370.7566088481553 639.2417842508902 L 370.52195077298626 641.2802035477372 L 370.2874611249805 643.3155163739456 L 370.0533198248172 645.347498623146 L 369.8197076318226 647.3759292844145 L 369.5868060293071 649.4005904261764 L 369.35479711173826 651.4212671798788 L 369.1238634737538 653.4377477234375 L 368.894188101013 655.4498232644559 L 368.6659542628823 657.457288023217 L 368.43934540695517 659.4599392154554 L 368.2145450554063 661.4575770348995 L 367.99173670317344 663.4500046356001 L 367.77110371796743 665.4370281140324 L 367.552829242107 667.4184564909858 L 367.337096096175 669.3941016932348 L 367.1240866844921 671.3637785349948 L 366.91398290240585 673.3273046991709 L 366.7069660453885 675.2845007183915 L 366.503216719944 677.23518995584 L 366.3029147563142 679.1791985858773 L 366.1062391229828 681.1163555744647 L 365.9133678429731 683.0464926593872 L 365.7244779119308 684.96944433028 L 365.53974521798955 686.8850478084584 L 365.3593444634116 688.7931430265603 L 365.183449088 690.6935726080001 L 365.0122311942713 692.5861818462345 L 364.84586147438927 694.4708186838506 L 364.684509138847 696.3473336914732 L 364.52834184689215 698.2155800464958 L 364.37752563869134 700.0754135116447 L 364.2322248692207 701.926692413369 L 364.09260214387973 703.7692776200689 L 363.9588182558184 705.6030325201647 L 363.8310321249699 707.4278230000034 L 363.70940073878035 709.2435174216171 L 363.594079094628 711.0499866003281 L 363.4852201439216 712.8471037822109 L 363.3829747378708 714.6347446214096 L 363.28749157491757 716.4127871573196 L 363.1989171498216 718.1811117916358 L 363.11739570438715 719.9396012652682 L 363.0430691798237 721.6881406351372 L 362.9760771707306 723.4266172508441 L 362.91655688069375 725.1549207312244 L 362.86464307948535 726.8729429407921 L 362.8204680618559 728.580577966074 L 362.78416160790675 730.2777220918388 L 362.7558509450343 731.9642737772303 L 362.73566071143256 733.6401336318056 L 362.7237129211424 735.3052043914793 L 362.72012693064005 736.9593908943893 L 362.7250194069475 738.6026000566758 L 362.73850429725627 740.2347408481868 L 362.76069280005277 741.8557242681142 L 362.79169333773115 743.4654633205588 L 362.8316115306827 745.0638729900388 L 362.8805501728479 746.650870216937 L 362.93860920872015 748.2263738728986 L 363.00588571178633 749.7903047361812 L 363.08247386439376 751.3425854669623 L 363.16846493902557 752.8831405826082 L 363.2639472809781 754.4118964329134 L 363.3690062924193 755.9287811753097 L 363.4837244178208 757.4337247500539 L 363.60818113074544 758.9266588553976 L 363.7424529219783 760.4075169227444 L 363.88661328898723 761.8762340918007 L 364.04073272669694 763.3327471857216 L 364.2048787195655 764.7769946862605 L 364.3791157349441 766.2089167089282 L 364.56350521771003 767.62845497816 L 364.758105586155 769.0355528025043 L 364.9629722291153 770.430155049833 L 365.17815750432834 771.8122081225775 L 365.40371073799986 773.1816599329997 L 365.6396782255685 774.538459878501 L 365.88610323364964 775.8825588169716 L 366.1430260031444 777.2139090421902 L 366.4104837534992 778.5324642592753 L 366.6885106880982 779.8381795601948 L 366.9771380007732 781.1310113993391 L 367.2763938834167 782.4109175691605 L 367.58630353467987 783.6778571758879 L 367.90688916974096 784.9317906153178 L 368.23817003112714 786.1726795486885 L 368.58016240057316 787.4004868786438 L 368.9328796119014 788.6151767252866 L 369.2963320649061 789.8167144023328 L 369.670527240225 791.0050663933677 L 370.05546971518265 792.1802003282083 L 370.4511611805886 793.3420849593813 L 370.8576004584709 794.4906901387145 L 371.2747835207332 795.6259867940532 L 371.70270350871345 796.7479469061036 L 372.1413507536309 797.8565434854053 L 372.59071279790095 798.9517505494453 L 373.0507744173041 800.0335430999068 L 373.5215176439895 801.1018971000708 L 374.0029217902964 802.1567894523623 L 374.4949634733768 803.1981979760573 L 374.99761664060077 804.226101385144 L 375.5108525957286 805.2404792663547 L 376.03464002583036 806.2413120573602 L 376.56894502893766 807.2285810251448 L 377.11373114240774 808.2022682445521 L 377.66895937198444 809.16235657702 L 378.23458822153657 810.1088296494972 L 378.81057372345765 811.0416718335538 L 379.396869469708 811.9608682246871 L 379.99342664348313 812.8664046218267 L 380.6001940514881 813.7582675070435 L 381.21711815680396 814.6364440254686 L 381.844143112324 815.5009219654219 L 382.48121079474646 816.351689738759 L 383.1282608391019 817.18873636144 L 383.78523067380144 818.0120514343188 L 384.4520555561842 818.8216251241657 L 385.1286686085494 819.6174481449186 L 385.81500085465336 820.399511739174 L 386.51098125665413 821.1678076599152 L 387.21653675248683 821.922328152485 L 387.93159229365 822.663065936809 L 388.65607088338777 823.3900141898673 L 389.38989361524807 824.1031665284212 L 390.13297971199995 824.8025169919997 L 390.88524656489216 825.4880600261479 L 391.6466097732364 826.1597904659408 L 392.4169831842951 826.8177035197649 L 393.1962789334591 827.4617947533742 L 393.9844074846956 828.09206007422 L 394.78127767124977 828.7084957160598 L 395.586796736582 829.311098223849 L 396.4008703755237 829.8998644389169 L 397.22340277563495 830.4747914844315 L 398.054296658745 831.0358767511541 L 398.8934533226589 831.5831178834892 L 399.74077268301494 832.1165127658315 L 400.59615331527266 832.6360595092111 L 401.4594924968165 833.1417564382435 L 402.33068624915654 833.6336020783826 L 403.2096293802115 834.111595143482 L 404.0962155266542 834.5757345236682 L 404.9903371963053 835.0260192735249 L 405.8918858105566 835.4624486005936 L 406.80075174680843 835.8850218541908 L 407.7168243809041 836.2937385145465 L 408.63999212954457 836.6885981822634 L 409.5701424926677 837.0696005681027 L 410.5071620957748 837.436745483093 L 411.45093673218946 837.7900328289712 L 412.4013514052304 838.129462588952 L 413.3582903702859 838.4550348188295 L 414.3216371767686 838.7667496384131 L 415.29127470994155 839.064607223301 L 416.2670852325923 839.3486077969895 L 417.24895042654697 839.6187516233214 L 418.2367514340015 839.8750389992765 L 419.2303688986619 840.1174702481045 L 420.22968300667134 840.3460457127991 L 421.23457352731543 840.5607657499204 L 422.2449198534843 840.761630723761 L 423.2606010418829 840.9486410008616 L 424.2814958529702 841.1217969448733 L 425.3074827906141 841.2810989117713 L 426.3384401414495 841.4265472454181 L 427.3742460139214 841.5581422734786 L 428.4147783770027 841.6758843036879 L 429.45991509857026 841.7797736204709 L 430.5095339834266 841.8698104819191 L 431.5635128109533 841.9459951171176 L 432.6217293723815 842.0083277238294 L 433.6840615076686 842.0568084665357 L 434.75038714196546 842.0914374748312 L 435.82058432166207 842.1122148421749 L 436.8945312500002 842.1191406249999 L 437.9721063222368 842.1122148421755 L 439.0531881603509 842.0914374748318 L 440.1376556472763 842.0568084665363 L 441.22538796065186 842.0083277238299 L 442.3162646060755 841.9459951171181 L 443.41016544985115 841.8698104819196 L 444.5069707512165 841.7797736204714 L 445.6065611940405 841.675884303688 L 446.7088179179802 841.558142273479 L 447.81362254908385 841.4265472454185 L 448.9208572298329 841.2810989117717 L 450.0304046486091 841.1217969448738 L 451.14214806857893 840.948641000862 L 452.25597135598383 840.7616307237615 L 453.3717590078264 840.5607657499208 L 454.48939617894575 840.3460457127997 L 455.6087687084667 840.1174702481048 L 456.72976314562163 839.875038999277 L 457.8522667749282 839.6187516233218 L 458.9761676407205 839.3486077969898 L 460.10135457102166 839.0646072233014 L 461.22771720075116 838.7667496384136 L 462.3551459942583 838.4550348188299 L 463.48353226717506 838.1294625889525 L 464.6127682075804 837.7900328289717 L 465.74274689646796 837.4367454830932 L 466.8733623275133 837.0696005681029 L 468.00450942612997 836.6885981822638 L 469.13608406781134 836.2937385145466 L 470.26798309575116 835.8850218541913 L 471.40010433773614 835.4624486005939 L 472.5323466223071 835.0260192735253 L 473.6646097941808 834.5757345236683 L 474.7967947289311 834.1115951434822 L 475.9288033469204 833.6336020783826 L 477.0605386264816 833.141756438244 L 478.1919046163431 832.6360595092116 L 479.3228064472953 832.1165127658317 L 480.45315034309357 831.5831178834896 L 481.5828436305968 831.0358767511543 L 482.7117947491352 830.474791484432 L 483.83991325910944 829.8998644389171 L 484.9671098498149 829.3110982238491 L 486.093296346492 828.7084957160598 L 487.2183857165993 828.0920600742202 L 488.3422920753097 827.4617947533745 L 489.4649306902273 826.8177035197651 L 490.5862179853269 826.1597904659409 L 491.70607154411306 825.4880600261481 L 492.8244101120002 824.8025169919998 L 493.9411535979162 824.1031665284213 L 495.05622307512675 823.3900141898675 L 496.1695407812846 822.6630659368092 L 497.28103011770435 821.922328152485 L 498.3906156478647 821.1678076599152 L 499.49822309514025 820.3995117391743 L 500.6037793397662 819.617448144919 L 501.70721241503946 818.8216251241658 L 502.80845150275763 818.012051434319 L 503.9074269279027 817.1887363614401 L 505.0040701525707 816.3516897387591 L 506.0983137691539 815.5009219654218 L 507.1900914927807 814.6364440254687 L 508.2793381530166 813.7582675070437 L 509.3659896848352 812.8664046218267 L 510.4499831188617 811.9608682246871 L 511.5312565708994 811.0416718335539 L 512.6097492307434 810.1088296494972 L 513.6854013502905 809.1623565770201 L 514.7581542309524 808.2022682445522 L 515.82795021038 807.2285810251446 L 516.8947326485109 806.2413120573602 L 517.958445912943 805.2404792663546 L 519.0190353636508 804.2261013851443 L 520.0764473370491 803.1981979760575 L 521.1306291294169 802.1567894523623 L 522.181528979693 801.1018971000709 L 523.2290960516528 800.0335430999069 L 524.273280415479 798.9517505494451 L 525.3140330287398 797.8565434854056 L 526.3513057167843 796.7479469061036 L 527.3850511525714 795.6259867940532 L 528.4152228359438 794.4906901387146 L 529.441775072363 793.3420849593814 L 530.4646629511172 792.1802003282083 L 531.4838423230198 791.0050663933673 L 532.4992697776136 789.8167144023325 L 533.5109026198952 788.6151767252865 L 534.5186988465784 787.400486878644 L 535.5226171219106 786.1726795486886 L 536.5226167530635 784.9317906153177 L 537.5186576651131 783.6778571758879 L 538.5107003756294 782.4109175691602 L 539.4987059688923 781.131011399339 L 540.4826360697581 779.8381795601949 L 541.46245281719 778.5324642592752 L 542.4381188374797 777.2139090421902 L 543.4095972171771 775.8825588169715 L 544.3768514757502 774.5384598785009 L 545.3398455380003 773.1816599329997 L 546.2985437062501 771.8122081225773 L 547.2529106323339 770.4301550498329 L 548.2029112894085 769.0355528025043 L 549.1485109436122 767.62845497816 L 550.0896751255955 766.2089167089281 L 551.0263696019503 764.7769946862607 L 551.9585603465614 763.3327471857215 L 552.8862135119089 761.8762340918006 L 553.8092954003475 760.4075169227444 L 554.7277724353918 758.9266588553974 L 555.6416111330324 757.4337247500538 L 556.5507780731173 755.9287811753095 L 557.4552398708221 754.4118964329132 L 558.3549631482434 752.8831405826079 L 559.2499145061439 751.342585466962 L 560.1400604958807 749.7903047361812 L 561.0253675915492 748.2263738728984 L 561.9058021623737 746.6508702169368 L 562.7813304453807 745.0638729900387 L 563.6519185183837 743.4654633205589 L 564.5175322733182 741.855724268114 L 565.3781373899608 740.2347408481867 L 566.2336993100643 738.6026000566754 L 567.0841832119511 736.9593908943891 L 567.9295539855959 735.305204391479 L 568.7697762082386 733.640133631805 L 569.6048141205634 731.9642737772301 L 570.434631603485 730.2777220918382 L 571.2591921555781 728.5805779660734 L 572.0784588711934 726.8729429407917 L 572.8923944192982 725.1549207312239 L 573.7009610230838 723.4266172508436 L 574.5041204403831 721.6881406351368 L 575.3018339449363 719.9396012652677 L 576.0940623085565 718.1811117916352 L 576.8807657842273 716.4127871573194 L 577.6619040901891 714.6347446214091 L 578.4374363950506 712.8471037822106 L 579.2073213039765 711.0499866003278 L 579.9715168459953 709.2435174216165 L 580.7299804624756 707.4278230000031 L 581.4826689968194 705.6030325201641 L 582.2295386854208 703.7692776200687 L 582.9705451499386 701.9266924133683 L 583.7056433909355 700.0754135116442 L 584.4347877829309 698.2155800464951 L 585.1579320709243 696.3473336914726 L 585.8750293684345 694.4708186838501 L 586.5860321571162 692.586181846234 L 587.2908922880001 690.6935726079994 L 587.9895609844161 688.7931430265596 L 588.6819888466515 686.8850478084576 L 589.368125858404 684.9694443302793 L 590.0479213950819 683.0464926593868 L 590.7213242340129 681.116355574464 L 591.3882825666172 679.1791985858766 L 592.0487440126057 677.2351899558395 L 592.7026556362613 675.2845007183911 L 593.349963964866 673.3273046991702 L 593.9906150093332 671.3637785349943 L 594.6245542871089 669.3941016932341 L 595.251726847404 667.4184564909855 L 595.8720772988208 665.4370281140318 L 596.4855498394396 663.4500046355994 L 597.0920882894297 661.457577034899 L 597.6916361262515 659.4599392154548 L 598.2841365225158 657.4572880232166 L 598.8695323865688 655.4498232644552 L 599.447766405871 653.4377477234372 L 600.0187810932393 651.4212671798783 L 600.582518836023 649.4005904261759 L 601.1389219482835 647.375929284414 L 601.6879327260507 645.3474986231454 L 602.2294935057281 643.315516373945 L 602.7635467257209 641.2802035477366 L 603.29003499136 639.2417842508899 L 603.8089011431986 637.2004857010875 L 604.3200883287559 635.156538242963 L 604.8235400777871 633.1101753635069 L 605.3192003811547 631.0616337072402 L 605.8070137733811 629.0111530911594 L 606.2869254189629 626.9589765194462 L 606.7588812025253 624.9053501979479 L 607.2228278228993 622.8505235484255 L 607.6787128912027 620.7947492225693 L 608.1264850330094 618.738283115786 L 608.5660939946895 616.6813843807536 L 608.9974907540052 614.6243154407472 L 609.4206276350491 612.5673420027379 L 609.8354584276109 610.5107330702615 L 610.2419385110591 608.4547609560641 L 610.640024982828 606.3997012945209 L 611.0296767915977 604.345833053832 L 611.410854875258 602.293438547999 L 611.7835223037484 600.2428034485787 L 612.1476444268633 598.1942167962233 L 612.5031890271192 596.1479710120033 L 612.8501264777751 594.1043619085178 L 613.1884299061024 592.063688700798 L 613.5180753620001 590.0262540169994 L 613.8390419920504 587.9923639088936 L 614.151312219116 585.9623278621591 L 614.454871927574 583.9364588064731 L 614.7497106542891 581.915073125412 L 615.0358217854242 579.8984906661611 L 615.3132027591932 577.8870347490393 L 615.5818552746549 575.8810321768424 L 615.8417855066552 573.8808132440092 L 616.0930043270198 571.8867117456163 L 616.3355275321031 569.8990649862051 L 616.5693760768025 567.918213788447 L 616.7945763151423 565.9445025016522 L 617.011160247537 563.9782790101262 L 617.2191657748458 562.0198947413828 L 617.4186369593247 560.0697046742159 L 617.6096242925923 558.1280673466396 L 617.7921849707188 556.1953448637015 L 617.9663831765528 554.2719029051757 L 618.1322903694017 552.3581107331431 L 618.2899855821809 550.4543411994673 L 618.4395557261464 548.5609707531705 L 618.5810959033336 546.6783794477203 L 618.7147097268158 544.8069509482336 L 618.8405096489064 542.947072538607 L 618.9586172974239 541.0991351285804 L 619.0691638201415 539.2635332607445 L 619.172290237547 537.4406651175007 L 619.2681478040345 535.6309325279811 L 619.356898377653 533.8347409749414 L 619.4387147985426 532.0524996016326 L 619.5137812761801 530.2846212186649 L 619.5822937855668 528.531522310873 L 619.6444604724859 526.7936230441928 L 619.7005020679624 525.071347272561 L 619.7506523120544 523.36512254485 L 619.7951583871125 521.6753801118475 L 619.834281360638 520.0025549332946 L 619.8682966378785 518.3470856849932 L 619.8974944242934 516.7094147659955 L 619.922180198031 515.0899883058896 L 619.9426751925527 513.489256172192 L 619.9593168895458 511.9076719778627 L 619.9724595222655 510.34569308895453 L 619.9824745894475 508.8037806324124 L 619.9897513799356 507.2823995040358 L 619.9946975081677 505.78201837662016 L 619.997739460667 504.30310970829044 L 619.9993231536839 502.8461497510444 L 619.9999145021362 501.4116185595192 L 620 500"
       fill-opacity="1"
       stroke-opacity="1"
       stroke-linecap="round"
       stroke-miterlimit="10"
       stroke-width="5"
       stroke-dasharray=""
       id="path74"
       style="stroke-width:7.55905512" />
    <path
       sodipodi:type="spiral"
       style="fill:none;fill-rule:evenodd;stroke:#000000;stroke-width:7.55906"
       id="path1258"
       sodipodi:cx="514.76251"
       sodipodi:cy="297.81772"
       sodipodi:expansion="1"
       sodipodi:revolution="3"
       sodipodi:radius="63.165852"
       sodipodi:argument="-21.20575"
       sodipodi:t0="0"
       d="m 514.76251,297.81772 c -2.23943,-2.23944 1.91386,-4.12357 3.72209,-3.72208 4.90019,1.088 5.68792,7.36453 3.72207,11.16625 -3.51644,6.80038 -12.64787,7.59704 -18.61042,3.72207 -8.75028,-5.68668 -9.56273,-18.00289 -3.72206,-26.05459 7.7847,-10.73165 23.38334,-11.55254 33.49876,-3.72205 12.72922,9.85387 13.55482,28.77592 3.72204,40.94292 -11.9088,14.73587 -34.17533,15.56432 -48.38709,3.72204 -16.74806,-13.95572 -17.57835,-39.579 -3.72203,-55.83126 15.99767,-18.76387 44.98551,-19.59541 63.27542,-3.72202 20.78217,18.03635 21.61459,50.39401 3.72202,70.71959 -20.07275,22.80222 -55.80397,23.6353 -78.16375,3.72201 -24.8236,-22.10752 -25.65716,-61.21503 -3.72201,-85.60792"
       transform="rotate(50.628879,486.24101,324.02786)" />
    <path
       sodipodi:type="spiral"
       style="fill:none;fill-rule:evenodd;stroke:#000000;stroke-width:7.55906"
       id="path1258-3"
       sodipodi:cx="514.76251"
       sodipodi:cy="297.81772"
       sodipodi:expansion="1"
       sodipodi:revolution="3"
       sodipodi:radius="63.165852"
       sodipodi:argument="-21.20575"
       sodipodi:t0="0"
       d="m 514.76251,297.81772 c -2.23943,-2.23944 1.91386,-4.12357 3.72209,-3.72208 4.90019,1.088 5.68792,7.36453 3.72207,11.16625 -3.51644,6.80038 -12.64787,7.59704 -18.61042,3.72207 -8.75028,-5.68668 -9.56273,-18.00289 -3.72206,-26.05459 7.7847,-10.73165 23.38334,-11.55254 33.49876,-3.72205 12.72922,9.85387 13.55482,28.77592 3.72204,40.94292 -11.9088,14.73587 -34.17533,15.56432 -48.38709,3.72204 -16.74806,-13.95572 -17.57835,-39.579 -3.72203,-55.83126 15.99767,-18.76387 44.98551,-19.59541 63.27542,-3.72202 20.78217,18.03635 21.61459,50.39401 3.72202,70.71959 -20.07275,22.80222 -55.80397,23.6353 -78.16375,3.72201 -24.8236,-22.10752 -25.65716,-61.21503 -3.72201,-85.60792"
       transform="rotate(167.92152,429.98452,313.08217)" />
    <path
       sodipodi:type="spiral"
       style="fill:none;fill-rule:evenodd;stroke:#000000;stroke-width:7.55906"
       id="path1258-6"
       sodipodi:cx="514.76251"
       sodipodi:cy="297.81772"
       sodipodi:expansion="1"
       sodipodi:revolution="3"
       sodipodi:radius="63.165852"
       sodipodi:argument="-21.20575"
       sodipodi:t0="0"
       d="m 514.76251,297.81772 c -2.23943,-2.23944 1.91386,-4.12357 3.72209,-3.72208 4.90019,1.088 5.68792,7.36453 3.72207,11.16625 -3.51644,6.80038 -12.64787,7.59704 -18.61042,3.72207 -8.75028,-5.68668 -9.56273,-18.00289 -3.72206,-26.05459 7.7847,-10.73165 23.38334,-11.55254 33.49876,-3.72205 12.72922,9.85387 13.55482,28.77592 3.72204,40.94292 -11.9088,14.73587 -34.17533,15.56432 -48.38709,3.72204 -16.74806,-13.95572 -17.57835,-39.579 -3.72203,-55.83126 15.99767,-18.76387 44.98551,-19.59541 63.27542,-3.72202 20.78217,18.03635 21.61459,50.39401 3.72202,70.71959 -20.07275,22.80222 -55.80397,23.6353 -78.16375,3.72201 -24.8236,-22.10752 -25.65716,-61.21503 -3.72201,-85.60792"
       transform="rotate(-175.62816,589.92868,316.775)" />
    <path
       sodipodi:type="spiral"
       style="fill:none;fill-rule:evenodd;stroke:#000000;stroke-width:7.55906"
       id="path1258-2"
       sodipodi:cx="514.76251"
       sodipodi:cy="297.81772"
       sodipodi:expansion="1"
       sodipodi:revolution="3"
       sodipodi:radius="63.165852"
       sodipodi:argument="-21.20575"
       sodipodi:t0="0"
       d="m 514.76251,297.81772 c -2.23943,-2.23944 1.91386,-4.12357 3.72209,-3.72208 4.90019,1.088 5.68792,7.36453 3.72207,11.16625 -3.51644,6.80038 -12.64787,7.59704 -18.61042,3.72207 -8.75028,-5.68668 -9.56273,-18.00289 -3.72206,-26.05459 7.7847,-10.73165 23.38334,-11.55254 33.49876,-3.72205 12.72922,9.85387 13.55482,28.77592 3.72204,40.94292 -11.9088,14.73587 -34.17533,15.56432 -48.38709,3.72204 -16.74806,-13.95572 -17.57835,-39.579 -3.72203,-55.83126 15.99767,-18.76387 44.98551,-19.59541 63.27542,-3.72202 20.78217,18.03635 21.61459,50.39401 3.72202,70.71959 -20.07275,22.80222 -55.80397,23.6353 -78.16375,3.72201 -24.8236,-22.10752 -25.65716,-61.21503 -3.72201,-85.60792"
       transform="rotate(-68.729135,473.44135,178.39454)" />
    <path
       sodipodi:type="spiral"
       style="fill:none;fill-rule:evenodd;stroke:#000000;stroke-width:7.55906"
       id="path1258-8"
       sodipodi:cx="514.76251"
       sodipodi:cy="297.81772"
       sodipodi:expansion="1"
       sodipodi:revolution="3"
       sodipodi:radius="63.165852"
       sodipodi:argument="-21.20575"
       sodipodi:t0="0"
       d="m 514.76251,297.81772 c -2.23943,-2.23944 1.91386,-4.12357 3.72209,-3.72208 4.90019,1.088 5.68792,7.36453 3.72207,11.16625 -3.51644,6.80038 -12.64787,7.59704 -18.61042,3.72207 -8.75028,-5.68668 -9.56273,-18.00289 -3.72206,-26.05459 7.7847,-10.73165 23.38334,-11.55254 33.49876,-3.72205 12.72922,9.85387 13.55482,28.77592 3.72204,40.94292 -11.9088,14.73587 -34.17533,15.56432 -48.38709,3.72204 -16.74806,-13.95572 -17.57835,-39.579 -3.72203,-55.83126 15.99767,-18.76387 44.98551,-19.59541 63.27542,-3.72202 20.78217,18.03635 21.61459,50.39401 3.72202,70.71959 -20.07275,22.80222 -55.80397,23.6353 -78.16375,3.72201 -24.8236,-22.10752 -25.65716,-61.21503 -3.72201,-85.60792"
       transform="rotate(63.811504,549.36035,196.81959)" />
  </g>
</svg>
