%TF.GenerationSoftware,KiCad,Pcbnew,7.0.1*%
%TF.CreationDate,2023-05-31T17:56:53-07:00*%
%TF.ProjectId,GameOfShrooms2023,47616d65-4f66-4536-9872-6f6f6d733230,rev?*%
%TF.SameCoordinates,Original*%
%TF.FileFunction,Profile,NP*%
%FSLAX46Y46*%
G04 Gerber Fmt 4.6, Leading zero omitted, Abs format (unit mm)*
G04 Created by KiCad (PCBNEW 7.0.1) date 2023-05-31 17:56:53*
%MOMM*%
%LPD*%
G01*
G04 APERTURE LIST*
%TA.AperFunction,Profile*%
%ADD10C,0.100000*%
%TD*%
G04 APERTURE END LIST*
D10*
X153759900Y-123854000D02*
X153870600Y-123684300D01*
X145031200Y-131918000D02*
X145175600Y-131849400D01*
X152702200Y-47512170D02*
X152046400Y-47430090D01*
X139508100Y-133277900D02*
X139651000Y-133273900D01*
X132319800Y-130573400D02*
X132416600Y-130668700D01*
X171656700Y-100391000D02*
X172470800Y-99989900D01*
X140706300Y-49606490D02*
X140043300Y-49943560D01*
X155928900Y-48273170D02*
X155291400Y-48074300D01*
X128867800Y-119862900D02*
X128871100Y-120056300D01*
X156686800Y-118456500D02*
X156776900Y-118254200D01*
X129550200Y-125489100D02*
X129592500Y-125644400D01*
X154649700Y-47898740D02*
X154004000Y-47746510D01*
X138798700Y-133273900D02*
X138939900Y-133277900D01*
X140514600Y-133212200D02*
X140659400Y-133196000D01*
X125421600Y-64765000D02*
X124897100Y-65647800D01*
X129537600Y-109885600D02*
X129513800Y-110109800D01*
X156035300Y-119844300D02*
X156130600Y-119649000D01*
X172934000Y-67777200D02*
X172577800Y-66820200D01*
X144306500Y-132236000D02*
X144451700Y-132175800D01*
X116330100Y-87857600D02*
X116015200Y-89195400D01*
X130208300Y-127401300D02*
X130268700Y-127538500D01*
X173923800Y-99144300D02*
X174559100Y-98700200D01*
X116657200Y-86541400D02*
X116330100Y-87857600D01*
X138658100Y-133267900D02*
X138798700Y-133273900D01*
X139651000Y-133273900D02*
X139794300Y-133267900D01*
X121258700Y-100777200D02*
X122183200Y-101148300D01*
X143431900Y-132562500D02*
X143577900Y-132512400D01*
X136740900Y-133001900D02*
X136874100Y-133032200D01*
X138099900Y-133226700D02*
X138238700Y-133239500D01*
X140081500Y-133250900D02*
X140225700Y-133239700D01*
X175962500Y-79808400D02*
X175759000Y-78600700D01*
X129585400Y-109437000D02*
X129561600Y-109661300D01*
X131945700Y-130175900D02*
X132037400Y-130277800D01*
X129824900Y-126400700D02*
X129875400Y-126548000D01*
X174796500Y-73997900D02*
X174520000Y-72904200D01*
X132514500Y-130762300D02*
X132613600Y-130854500D01*
X131101600Y-129069500D02*
X131179900Y-129187300D01*
X138067400Y-51093320D02*
X137414100Y-51522700D01*
X145319700Y-131779100D02*
X145463700Y-131707300D01*
X148000500Y-130134200D02*
X148137900Y-130031500D01*
X129306500Y-112114200D02*
X129284600Y-112335100D01*
X177091100Y-95160700D02*
X177124500Y-94881600D01*
X149749200Y-128677400D02*
X149880300Y-128554500D01*
X151034300Y-127380900D02*
X151159500Y-127243000D01*
X131179900Y-129187300D02*
X131259600Y-129303500D01*
X129052800Y-114947700D02*
X129036600Y-115161700D01*
X130660100Y-128331000D02*
X130730200Y-128457900D01*
X129875400Y-126548000D02*
X129927300Y-126693600D01*
X129104400Y-114302300D02*
X129086700Y-114518000D01*
X152046400Y-47430090D02*
X151387800Y-47371430D01*
X129200300Y-123863700D02*
X129229400Y-124032000D01*
X148817800Y-129494700D02*
X148952300Y-129382500D01*
X128992000Y-115799300D02*
X128978400Y-116010400D01*
X134007500Y-131897500D02*
X134122200Y-131965900D01*
X137823600Y-133195600D02*
X137961400Y-133212000D01*
X174520000Y-72904200D02*
X174229600Y-71833200D01*
X129592500Y-125644400D02*
X129636300Y-125798400D01*
X154198700Y-123168100D02*
X154306600Y-122993500D01*
X114925500Y-94277900D02*
X114909600Y-94599300D01*
X153196400Y-124682200D02*
X153310400Y-124519100D01*
X114920800Y-94881500D02*
X114954200Y-95160600D01*
X129074300Y-123003600D02*
X129097000Y-123178100D01*
X130024500Y-105176500D02*
X130003300Y-105399100D01*
X133780900Y-131755800D02*
X133893700Y-131827600D01*
X153354800Y-47617650D02*
X152702200Y-47512170D01*
X115593800Y-96766100D02*
X115769200Y-97021400D01*
X124187900Y-101844400D02*
X125576300Y-102254600D01*
X118121500Y-99144200D02*
X118818200Y-99574100D01*
X134238100Y-132032600D02*
X134354900Y-132097400D01*
X152616400Y-125477000D02*
X152733600Y-125320900D01*
X157799100Y-115759700D02*
X157879300Y-115546800D01*
X134591500Y-132221900D02*
X134711000Y-132281700D01*
X176853000Y-87532800D02*
X176745100Y-86188500D01*
X115046000Y-93647600D02*
X114971700Y-93960700D01*
X129490100Y-110333400D02*
X129466500Y-110557100D01*
X157042600Y-117642300D02*
X157129700Y-117436500D01*
X140949400Y-133158100D02*
X141094800Y-133136800D01*
X159119300Y-111827700D02*
X159184700Y-111604400D01*
X129032400Y-122651100D02*
X129052800Y-122828100D01*
X175641300Y-97764900D02*
X175870500Y-97520900D01*
X128152800Y-60676900D02*
X127592800Y-61451100D01*
X145384200Y-47895460D02*
X144713800Y-48070290D01*
X114971700Y-93960700D02*
X114925500Y-94277900D01*
X171828500Y-64974500D02*
X171435800Y-64085900D01*
X157386600Y-116813800D02*
X157470600Y-116604600D01*
X133449000Y-131530300D02*
X133558600Y-131607100D01*
X130190800Y-103311600D02*
X130182600Y-103412000D01*
X153870600Y-123684300D02*
X153980700Y-123513500D01*
X167403200Y-57113500D02*
X166903800Y-56452900D01*
X155291400Y-48074300D02*
X154649700Y-47898740D01*
X128865400Y-119668400D02*
X128867800Y-119862900D01*
X129980800Y-126838000D02*
X130035500Y-126980900D01*
X176944100Y-88900000D02*
X176853000Y-87532800D01*
X143723800Y-132460400D02*
X143869600Y-132406800D01*
X128864200Y-119472900D02*
X128865400Y-119668400D01*
X149353200Y-129037000D02*
X149485700Y-128918500D01*
X164271300Y-53493400D02*
X163719400Y-52970400D01*
X128924400Y-121380700D02*
X128936300Y-121565700D01*
X162592600Y-51993420D02*
X162018100Y-51539510D01*
X158492300Y-113817200D02*
X158565100Y-113598100D01*
X128888300Y-117874900D02*
X128882200Y-118077900D01*
X129122700Y-114085700D02*
X129104400Y-114302300D01*
X156562000Y-48495340D02*
X155928900Y-48273170D01*
X129937600Y-106068700D02*
X129915300Y-106292400D01*
X160942900Y-103486800D02*
X162806900Y-103133600D01*
X176480000Y-83568100D02*
X176323200Y-82292100D01*
X127044600Y-102635500D02*
X128585400Y-102987700D01*
X151777400Y-126532200D02*
X151899200Y-126385500D01*
X176620700Y-84866900D02*
X176480000Y-83568100D01*
X176959700Y-95709400D02*
X177036000Y-95436700D01*
X144161100Y-132294700D02*
X144306500Y-132236000D01*
X129241900Y-112775800D02*
X129221100Y-112995500D01*
X118468300Y-80284900D02*
X118083400Y-81492900D01*
X175870500Y-97520900D02*
X176082300Y-97273100D01*
X135473600Y-52948900D02*
X134834000Y-53470300D01*
X159053000Y-112050600D02*
X159119300Y-111827700D01*
X128941600Y-116639200D02*
X128930800Y-116847100D01*
X177135700Y-94596400D02*
X177114200Y-93138200D01*
X128895100Y-120819500D02*
X128903700Y-121007800D01*
X137007900Y-133060800D02*
X137142400Y-133087500D01*
X176745200Y-96244800D02*
X176862600Y-95978800D01*
X140804400Y-133177900D02*
X140949400Y-133158100D01*
X152379900Y-125785600D02*
X152498300Y-125631900D01*
X141823700Y-133003900D02*
X141969800Y-132972100D01*
X160446200Y-106411900D02*
X160490000Y-106186100D01*
X129509200Y-125332300D02*
X129550200Y-125489100D01*
X130801700Y-128583300D02*
X130874700Y-128707100D01*
X129013500Y-122473100D02*
X129032400Y-122651100D01*
X174559100Y-98700200D02*
X175132300Y-98240800D01*
X130126200Y-104069800D02*
X130106600Y-104290300D01*
X156954900Y-117847300D02*
X157042600Y-117642300D01*
X128995600Y-122294000D02*
X129013500Y-122473100D01*
X149398600Y-47335410D02*
X148731800Y-47370460D01*
X116996300Y-85246800D02*
X116657200Y-86541400D01*
X158848900Y-112716800D02*
X158917700Y-112495200D01*
X160615800Y-105510400D02*
X160655800Y-105285900D01*
X149220000Y-129153600D02*
X149353200Y-129037000D01*
X159735000Y-109580300D02*
X159791800Y-109354200D01*
X163719400Y-52970400D02*
X163159800Y-52470400D01*
X158115200Y-114903000D02*
X158192200Y-114687100D01*
X129775600Y-126252300D02*
X129824900Y-126400700D01*
X134122200Y-131965900D02*
X134238100Y-132032600D01*
X128585400Y-102987700D02*
X130190800Y-103311600D01*
X150781800Y-127652100D02*
X150908300Y-127517200D01*
X134198600Y-54014700D02*
X133567400Y-54582000D01*
X152498300Y-125631900D02*
X152616400Y-125477000D01*
X142262100Y-132903800D02*
X142408300Y-132867200D01*
X159847600Y-109128000D02*
X159902700Y-108901800D01*
X152850400Y-125163100D02*
X152966400Y-125004200D01*
X139081300Y-133279900D02*
X139223400Y-133280900D01*
X145607400Y-131633600D02*
X145750700Y-131558500D01*
X120114400Y-75669300D02*
X119687300Y-76790700D01*
X150010800Y-128430100D02*
X150140600Y-128304300D01*
X119687300Y-76790700D02*
X119270500Y-77933800D01*
X130149400Y-127262600D02*
X130208300Y-127401300D01*
X146887100Y-130898000D02*
X147027600Y-130808100D01*
X159438100Y-110707600D02*
X159499400Y-110482600D01*
X160848200Y-50700930D02*
X160253300Y-50316310D01*
X129915300Y-106292400D02*
X129892600Y-106516600D01*
X129681300Y-125951000D02*
X129727800Y-126102300D01*
X157301600Y-117022100D02*
X157386600Y-116813800D01*
X128953100Y-116430200D02*
X128941600Y-116639200D01*
X132319100Y-55785300D02*
X131702400Y-56421300D01*
X159956600Y-108675400D02*
X160009800Y-108449000D01*
X148137900Y-130031500D02*
X148274900Y-129927400D01*
X159559600Y-110257400D02*
X159618900Y-110031900D01*
X120998200Y-73491500D02*
X120551400Y-74569600D01*
X129981800Y-105622000D02*
X129960000Y-105845300D01*
X160213000Y-107542800D02*
X160261600Y-107316400D01*
X140370100Y-133226900D02*
X140514600Y-133212200D01*
X146054600Y-47743880D02*
X145384200Y-47895460D01*
X144451700Y-132175800D02*
X144596900Y-132113900D01*
X139223400Y-133280900D02*
X139365600Y-133279900D01*
X115963000Y-97273000D02*
X116174800Y-97520800D01*
X151408500Y-126962900D02*
X151532000Y-126820700D01*
X160875500Y-103946500D02*
X160908700Y-103724900D01*
X161436500Y-51108670D02*
X160848200Y-50700930D01*
X175759000Y-78600700D02*
X175540400Y-77415800D01*
X148063700Y-47428850D02*
X147394600Y-47510560D01*
X162806900Y-103133600D02*
X164585300Y-102741300D01*
X129291400Y-124364700D02*
X129324400Y-124529300D01*
X133340600Y-131451800D02*
X133449000Y-131530300D01*
X128978400Y-116010400D02*
X128965500Y-116220600D01*
X129069500Y-114733300D02*
X129052800Y-114947700D01*
X128875500Y-120248600D02*
X128881000Y-120440100D01*
X148952300Y-129382500D02*
X149086500Y-129268900D01*
X155247500Y-121367400D02*
X155348500Y-121181000D01*
X154413900Y-122817600D02*
X154520600Y-122640600D01*
X129180400Y-113433200D02*
X129160800Y-113651200D01*
X136608500Y-132969900D02*
X136740900Y-133001900D01*
X158418400Y-114035600D02*
X158492300Y-113817200D01*
X130086700Y-104511100D02*
X130066300Y-104732500D01*
X123160200Y-101504200D02*
X124187900Y-101844400D01*
X134831800Y-132339800D02*
X134953200Y-132396000D01*
X131766400Y-129967400D02*
X131855400Y-130072400D01*
X156866300Y-118051200D02*
X156954900Y-117847300D01*
X130948800Y-128829600D02*
X131024600Y-128950300D01*
X155448700Y-120993300D02*
X155548200Y-120804500D01*
X133233300Y-131371400D02*
X133340600Y-131451800D01*
X127039500Y-62247000D02*
X126493100Y-63064600D01*
X129633400Y-108987900D02*
X129609400Y-109212500D01*
X160655800Y-105285900D02*
X160694700Y-105061600D01*
X134472600Y-132160500D02*
X134591500Y-132221900D01*
X151899200Y-126385500D02*
X152020200Y-126237800D01*
X140225700Y-133239700D02*
X140370100Y-133226900D01*
X159376000Y-110932300D02*
X159438100Y-110707600D01*
X133127000Y-131289500D02*
X133233300Y-131371400D01*
X156412000Y-119057300D02*
X156504400Y-118858000D01*
X159791800Y-109354200D02*
X159847600Y-109128000D01*
X141094800Y-133136800D02*
X141240400Y-133113600D01*
X167892900Y-57797000D02*
X167403200Y-57113500D01*
X160253300Y-50316310D02*
X159652200Y-49954840D01*
X155043100Y-121737200D02*
X155145600Y-121552800D01*
X129960000Y-105845300D02*
X129937600Y-106068700D01*
X160806100Y-104391100D02*
X160841400Y-104168500D01*
X132815400Y-131033400D02*
X132918100Y-131120500D01*
X128963700Y-121932100D02*
X128979000Y-122113700D01*
X131678600Y-129860700D02*
X131766400Y-129967400D01*
X149485700Y-128918500D02*
X149617700Y-128798800D01*
X158985700Y-112273200D02*
X159053000Y-112050600D01*
X143869600Y-132406800D02*
X144015400Y-132351700D01*
X156776900Y-118254200D02*
X156866300Y-118051200D01*
X151655100Y-126677200D02*
X151777400Y-126532200D01*
X151284300Y-127103700D02*
X151408500Y-126962900D01*
X137414100Y-51522700D02*
X136763900Y-51975110D01*
X130091700Y-127122500D02*
X130149400Y-127262600D01*
X166271100Y-102311200D02*
X167077100Y-102082400D01*
X154306600Y-122993500D02*
X154413900Y-122817600D01*
X155939400Y-120038500D02*
X156035300Y-119844300D01*
X157129700Y-117436500D02*
X157216200Y-117229600D01*
X138238700Y-133239500D02*
X138378100Y-133250900D01*
X129636300Y-125798400D02*
X129681300Y-125951000D01*
X160532900Y-105960500D02*
X160574800Y-105735400D01*
X129284600Y-112335100D02*
X129263200Y-112555700D01*
X120388600Y-100390900D02*
X121258700Y-100777200D01*
X136763900Y-51975110D02*
X136116900Y-52450500D01*
X147724600Y-130334900D02*
X147862800Y-130235400D01*
X176862600Y-95978800D02*
X176959700Y-95709400D01*
X152140800Y-126088400D02*
X152260600Y-125937700D01*
X150063200Y-47324480D02*
X150064000Y-47323720D01*
X168885100Y-101504300D02*
X169862100Y-101148400D01*
X138723600Y-50686990D02*
X138067400Y-51093320D01*
X142993300Y-132703200D02*
X143139600Y-132658000D01*
X130045600Y-104954300D02*
X130024500Y-105176500D01*
X150726700Y-47336220D02*
X150063200Y-47324480D01*
X128965500Y-116220600D02*
X128953100Y-116430200D01*
X141386000Y-133088700D02*
X141531900Y-133062000D01*
X156504400Y-118858000D02*
X156595900Y-118657600D01*
X118818200Y-99574100D02*
X119574400Y-99989800D01*
X158708600Y-113158500D02*
X158779300Y-112938000D01*
X177135700Y-94597400D02*
X177135700Y-94596400D01*
X115085600Y-95709300D02*
X115182700Y-95978700D01*
X135700700Y-132697400D02*
X135828000Y-132741600D01*
X176451500Y-96766200D02*
X176608000Y-96507300D01*
X148274900Y-129927400D02*
X148411200Y-129821500D01*
X152260600Y-125937700D02*
X152379900Y-125785600D01*
X128887600Y-120630300D02*
X128895100Y-120819500D01*
X144886600Y-131984900D02*
X145031200Y-131918000D01*
X155348500Y-121181000D02*
X155448700Y-120993300D01*
X147585900Y-130432700D02*
X147724600Y-130334900D01*
X128913400Y-121194900D02*
X128924400Y-121380700D01*
X153423800Y-124354800D02*
X153536600Y-124189200D01*
X135075700Y-132450500D02*
X135199000Y-132503300D01*
X115146100Y-93338600D02*
X115046000Y-93647600D01*
X129358700Y-124692600D02*
X129394300Y-124854400D01*
X144015400Y-132351700D02*
X144161100Y-132294700D01*
X169750400Y-60759100D02*
X169301600Y-59984400D01*
X156225100Y-119452700D02*
X156319000Y-119255500D01*
X145750700Y-131558500D02*
X145893800Y-131481700D01*
X171435800Y-64085900D02*
X171031400Y-63220000D01*
X129036600Y-115161700D02*
X129021300Y-115374900D01*
X157636400Y-116183800D02*
X157718100Y-115972100D01*
X146179100Y-131323000D02*
X146321400Y-131241400D01*
X134354900Y-132097400D02*
X134472600Y-132160500D01*
X150064000Y-47323720D02*
X150064000Y-47323720D01*
X121454500Y-72435200D02*
X120998200Y-73491500D01*
X135323200Y-132554500D02*
X135448100Y-132603900D01*
X132940800Y-55172200D02*
X132319100Y-55785300D01*
X129324400Y-124529300D02*
X129358700Y-124692600D01*
X158432300Y-49301400D02*
X157814000Y-49009470D01*
X137277500Y-133112600D02*
X137413200Y-133136000D01*
X158779300Y-112938000D02*
X158848900Y-112716800D01*
X129823600Y-107189500D02*
X129800200Y-107414300D01*
X128930800Y-116847100D02*
X128920600Y-117054400D01*
X128902700Y-117466400D02*
X128895200Y-117671200D01*
X139937800Y-133259900D02*
X140081500Y-133250900D01*
X120551400Y-74569600D02*
X120114400Y-75669300D01*
X122183200Y-101148300D02*
X123160200Y-101504200D01*
X130874700Y-128707100D02*
X130948800Y-128829600D01*
X169301600Y-59984400D02*
X168842300Y-59232500D01*
X137142400Y-133087500D02*
X137277500Y-133112600D01*
X129121000Y-123351300D02*
X129146000Y-123523400D01*
X142037600Y-49001730D02*
X141371200Y-49292540D01*
X173227100Y-99574200D02*
X173923800Y-99144300D01*
X132037400Y-130277800D02*
X132130200Y-130377900D01*
X129146000Y-123523400D02*
X129172600Y-123694100D01*
X119270500Y-77933800D02*
X118864100Y-79098500D01*
X156319000Y-119255500D02*
X156412000Y-119057300D01*
X130003300Y-105399100D02*
X129981800Y-105622000D01*
X148411200Y-129821500D02*
X148547200Y-129714200D01*
X115182700Y-95978700D02*
X115300100Y-96244700D01*
X171031400Y-63220000D02*
X170615500Y-62376900D01*
X130106600Y-104290300D02*
X130086700Y-104511100D01*
X129776700Y-107639000D02*
X129752900Y-107863800D01*
X137961400Y-133212000D02*
X138099900Y-133226700D01*
X115437300Y-96507200D02*
X115593800Y-96766100D01*
X114954200Y-95160600D02*
X115009300Y-95436600D01*
X131702400Y-56421300D02*
X131091100Y-57080200D01*
X157879300Y-115546800D02*
X157958600Y-115332800D01*
X148731800Y-47370460D02*
X148063700Y-47428850D01*
X160490000Y-106186100D02*
X160532900Y-105960500D01*
X157470600Y-116604600D02*
X157553900Y-116394600D01*
X144596900Y-132113900D02*
X144741900Y-132050100D01*
X128865400Y-119079200D02*
X128864200Y-119276400D01*
X129052800Y-122828100D02*
X129074300Y-123003600D01*
X130393500Y-127808500D02*
X130458100Y-127941300D01*
X132130200Y-130377900D02*
X132224500Y-130476600D01*
X129419700Y-111003700D02*
X129396600Y-111226300D01*
X160770100Y-104614200D02*
X160806100Y-104391100D01*
X115712800Y-90554900D02*
X115423000Y-91935900D01*
X141677700Y-133033800D02*
X141823700Y-133003900D01*
X131259600Y-129303500D02*
X131340800Y-129418100D01*
X136874100Y-133032200D02*
X137007900Y-133060800D01*
X159249300Y-111380800D02*
X159313100Y-111156600D01*
X150270000Y-128176700D02*
X150398800Y-128047700D01*
X176150600Y-81038800D02*
X175962500Y-79808400D01*
X138939900Y-133277900D02*
X139081300Y-133279900D01*
X149617700Y-128798800D02*
X149749200Y-128677400D01*
X129609400Y-109212500D02*
X129585400Y-109437000D01*
X153310400Y-124519100D02*
X153423800Y-124354800D01*
X158343700Y-114253400D02*
X158418400Y-114035600D01*
X132613600Y-130854500D02*
X132714000Y-130944800D01*
X129328600Y-111892800D02*
X129306500Y-112114200D01*
X147167800Y-130716800D02*
X147307500Y-130623600D01*
X130591500Y-128202700D02*
X130660100Y-128331000D01*
X140043300Y-49943560D02*
X139382300Y-50303730D01*
X160261600Y-107316400D02*
X160309200Y-107090000D01*
X170188400Y-61556600D02*
X169750400Y-60759100D01*
X128871100Y-120056300D02*
X128875500Y-120248600D01*
X176276100Y-97021500D02*
X176451500Y-96766200D01*
X136215000Y-132863600D02*
X136345500Y-132900600D01*
X160309200Y-107090000D02*
X160355700Y-106863700D01*
X128979000Y-122113700D02*
X128995600Y-122294000D01*
X158917700Y-112495200D02*
X158985700Y-112273200D01*
X160062000Y-108222300D02*
X160113300Y-107995900D01*
X159677600Y-109806300D02*
X159735000Y-109580300D01*
X173925500Y-70785000D02*
X173608100Y-69759700D01*
X146724800Y-47615580D02*
X146054600Y-47743880D01*
X129846700Y-106965200D02*
X129823600Y-107189500D01*
X130035500Y-126980900D02*
X130091700Y-127122500D01*
X151387800Y-47371430D02*
X150726700Y-47336220D01*
X122878500Y-69396100D02*
X122394900Y-70387500D01*
X130524100Y-128072800D02*
X130591500Y-128202700D01*
X135199000Y-132503300D02*
X135323200Y-132554500D01*
X152966400Y-125004200D02*
X153081700Y-124843800D01*
X162018100Y-51539510D02*
X161436500Y-51108670D01*
X132714000Y-130944800D02*
X132815400Y-131033400D01*
X164585300Y-102741300D02*
X166271100Y-102311200D01*
X177074900Y-91702700D02*
X177018100Y-90289900D01*
X129729100Y-108088700D02*
X129705300Y-108313500D01*
X129466500Y-110557100D02*
X129443100Y-110780600D01*
X115009300Y-95436600D02*
X115085600Y-95709300D01*
X142847100Y-132746800D02*
X142993300Y-132703200D01*
X148682700Y-129605200D02*
X148817800Y-129494700D01*
X129681300Y-108538200D02*
X129657300Y-108763200D01*
X176323200Y-82292100D02*
X176150600Y-81038800D01*
X155745400Y-120423600D02*
X155842800Y-120231500D01*
X147394600Y-47510560D02*
X146724800Y-47615580D01*
X163159800Y-52470400D02*
X162592600Y-51993420D01*
X117347200Y-83973900D02*
X116996300Y-85246800D01*
X168842300Y-59232500D02*
X168372700Y-58503300D01*
X130458100Y-127941300D02*
X130524100Y-128072800D01*
X128876900Y-118279900D02*
X128872700Y-118481100D01*
X144043700Y-48268340D02*
X143374100Y-48489620D01*
X146036700Y-131403200D02*
X146179100Y-131323000D01*
X147027600Y-130808100D02*
X147167800Y-130716800D01*
X160841400Y-104168500D02*
X160875500Y-103946500D01*
X149086500Y-129268900D02*
X149220000Y-129153600D01*
X116174800Y-97520800D02*
X116404000Y-97764800D01*
X129263200Y-112555700D02*
X129241900Y-112775800D01*
X142115800Y-132938900D02*
X142262100Y-132903800D01*
X151532000Y-126820700D02*
X151655100Y-126677200D01*
X133022000Y-131205700D02*
X133127000Y-131289500D01*
X149880300Y-128554500D02*
X150010800Y-128430100D01*
X177114200Y-93138200D02*
X177074900Y-91702700D01*
X134834000Y-53470300D02*
X134198600Y-54014700D01*
X159902700Y-108901800D02*
X159956600Y-108675400D01*
X175306900Y-76253700D02*
X175058900Y-75114400D01*
X153081700Y-124843800D02*
X153196400Y-124682200D01*
X160163600Y-107769200D02*
X160213000Y-107542800D01*
X139794300Y-133267900D02*
X139937800Y-133259900D01*
X158192200Y-114687100D02*
X158268400Y-114470600D01*
X154731700Y-122282800D02*
X154836300Y-122102100D01*
X128920600Y-117054400D02*
X128911300Y-117260800D01*
X143577900Y-132512400D02*
X143723800Y-132460400D01*
X173277500Y-68757100D02*
X172934000Y-67777200D01*
X157958600Y-115332800D02*
X158037300Y-115118300D01*
X139382300Y-50303730D02*
X138723600Y-50686990D01*
X158037300Y-115118300D02*
X158115200Y-114903000D01*
X174229600Y-71833200D02*
X173925500Y-70785000D01*
X166903800Y-56452900D02*
X166395000Y-55815100D01*
X155145600Y-121552800D02*
X155247500Y-121367400D01*
X133567400Y-54582000D02*
X132940800Y-55172200D01*
X157216200Y-117229600D02*
X157301600Y-117022100D01*
X160908700Y-103724900D02*
X160940900Y-103503900D01*
X145893800Y-131481700D02*
X146036700Y-131403200D01*
X129160800Y-113651200D02*
X129141500Y-113868800D01*
X131855400Y-130072400D02*
X131945700Y-130175900D01*
X129396600Y-111226300D02*
X129373700Y-111448800D01*
X147862800Y-130235400D02*
X148000500Y-130134200D01*
X134953200Y-132396000D02*
X135075700Y-132450500D01*
X135448100Y-132603900D02*
X135574000Y-132651500D01*
X175132300Y-98240800D02*
X175641300Y-97764900D01*
X128949400Y-121749400D02*
X128963700Y-121932100D01*
X129513800Y-110109800D02*
X129490100Y-110333400D01*
X129200400Y-113214500D02*
X129180400Y-113433200D01*
X141969800Y-132972100D02*
X142115800Y-132938900D01*
X147447000Y-130528900D02*
X147585900Y-130432700D01*
X159184700Y-111604400D02*
X159249300Y-111380800D01*
X155548200Y-120804500D02*
X155647100Y-120614700D01*
X160113300Y-107995900D02*
X160163600Y-107769200D01*
X159618900Y-110031900D02*
X159677600Y-109806300D01*
X143285600Y-132611100D02*
X143431900Y-132562500D01*
X125953700Y-63904000D02*
X125421600Y-64765000D01*
X137413200Y-133136000D02*
X137549400Y-133157700D01*
X130164100Y-103630600D02*
X130145400Y-103849900D01*
X129727800Y-126102300D02*
X129775600Y-126252300D01*
X130066300Y-104732500D02*
X130045600Y-104954300D01*
X129229400Y-124032000D02*
X129259900Y-124199100D01*
X170786600Y-100777300D02*
X171656700Y-100391000D01*
X144741900Y-132050100D02*
X144886600Y-131984900D01*
X159045100Y-49616520D02*
X158432300Y-49301400D01*
X176608000Y-96507300D02*
X176745200Y-96244800D01*
X160694700Y-105061600D02*
X160732800Y-104837700D01*
X130330300Y-127674300D02*
X130393500Y-127808500D01*
X150064000Y-47323720D02*
X149398600Y-47335410D01*
X133669100Y-131682200D02*
X133780900Y-131755800D01*
X160355700Y-106863700D02*
X160401600Y-106637700D01*
X159313100Y-111156600D02*
X159376000Y-110932300D01*
X177135700Y-94599400D02*
X177135700Y-94597400D01*
X129221100Y-112995500D02*
X129200400Y-113214500D01*
X166395000Y-55815100D02*
X165877100Y-55200300D01*
X129021300Y-115374900D02*
X129006300Y-115587400D01*
X142554600Y-132828700D02*
X142700800Y-132788500D01*
X129373700Y-111448800D02*
X129351100Y-111671000D01*
X153980700Y-123513500D02*
X154090100Y-123341300D01*
X128882200Y-118077900D02*
X128876900Y-118279900D01*
X177018100Y-90289900D02*
X176944100Y-88900000D01*
X165350400Y-54608400D02*
X164815000Y-54039400D01*
X146321400Y-131241400D02*
X146463200Y-131157900D01*
X132224500Y-130476600D02*
X132319800Y-130573400D01*
X145175600Y-131849400D02*
X145319700Y-131779100D01*
X176745100Y-86188500D02*
X176620700Y-84866900D01*
X155842800Y-120231500D02*
X155939400Y-120038500D01*
X153536600Y-124189200D02*
X153648600Y-124022100D01*
X167857400Y-101844600D02*
X168885100Y-101504300D01*
X135574000Y-132651500D02*
X135700700Y-132697400D01*
X127592800Y-61451100D02*
X127039500Y-62247000D01*
X157553900Y-116394600D02*
X157636400Y-116183800D01*
X116912900Y-98240700D02*
X117486100Y-98700100D01*
X136476600Y-132936200D02*
X136608500Y-132969900D01*
X168372700Y-58503300D02*
X167892900Y-57797000D01*
X129443100Y-110780600D02*
X129419700Y-111003700D01*
X169862100Y-101148400D02*
X170786600Y-100777300D01*
X129469400Y-125174500D02*
X129509200Y-125332300D01*
X160574800Y-105735400D02*
X160615800Y-105510400D01*
X141371200Y-49292540D02*
X140706300Y-49606490D01*
X130485400Y-57761900D02*
X129885400Y-58466500D01*
X146463200Y-131157900D02*
X146604900Y-131072900D01*
X128895200Y-117671200D02*
X128888300Y-117874900D01*
X128881000Y-120440100D02*
X128887600Y-120630300D01*
X160401600Y-106637700D02*
X160446200Y-106411900D01*
X128864200Y-119276400D02*
X128864200Y-119472900D01*
X177124500Y-94881600D02*
X177135700Y-94599400D01*
X136345500Y-132900600D02*
X136476600Y-132936200D01*
X173608100Y-69759700D02*
X173277500Y-68757100D01*
X150398800Y-128047700D02*
X150527000Y-127917500D01*
X117486100Y-98700100D02*
X118121500Y-99144200D01*
X156595900Y-118657600D02*
X156686800Y-118456500D01*
X151159500Y-127243000D02*
X151284300Y-127103700D01*
X141240400Y-133113600D02*
X141386000Y-133088700D01*
X143374100Y-48489620D02*
X142705300Y-48734090D01*
X129657300Y-108763200D02*
X129633400Y-108987900D01*
X132416600Y-130668700D02*
X132514500Y-130762300D01*
X131592100Y-129752300D02*
X131678600Y-129860700D01*
X121920200Y-71400500D02*
X121454500Y-72435200D01*
X158565100Y-113598100D02*
X158637300Y-113378600D01*
X137686100Y-133177500D02*
X137823600Y-133195600D01*
X138517800Y-133259900D02*
X138658100Y-133267900D01*
X129006300Y-115587400D02*
X128992000Y-115799300D01*
X119574400Y-99989800D02*
X120388600Y-100390900D01*
X135956100Y-132783900D02*
X136085100Y-132824700D01*
X164815000Y-54039400D02*
X164271300Y-53493400D01*
X154940000Y-121920000D02*
X155043100Y-121737200D01*
X128911300Y-117260800D02*
X128902700Y-117466400D01*
X175540400Y-77415800D02*
X175306900Y-76253700D01*
X154626500Y-122462300D02*
X154731700Y-122282800D01*
X154836300Y-122102100D02*
X154940000Y-121920000D01*
X154004000Y-47746510D02*
X153354800Y-47617650D01*
X130182600Y-103412000D02*
X130164100Y-103630600D01*
X170615500Y-62376900D02*
X170188400Y-61556600D01*
X115769200Y-97021400D02*
X115963000Y-97273000D01*
X152020200Y-126237800D02*
X152140800Y-126088400D01*
X118083400Y-81492900D02*
X117709700Y-82722600D01*
X114909600Y-94599300D02*
X114920800Y-94881500D01*
X128867000Y-118880700D02*
X128865400Y-119079200D01*
X129431100Y-125015200D02*
X129469400Y-125174500D01*
X172470800Y-99989900D02*
X173227100Y-99574200D01*
X167077100Y-102082400D02*
X167857400Y-101844600D01*
X142408300Y-132867200D02*
X142554600Y-132828700D01*
X142705300Y-48734090D02*
X142037600Y-49001730D01*
X172577800Y-66820200D02*
X172209300Y-65886000D01*
X147307500Y-130623600D02*
X147447000Y-130528900D01*
X128936300Y-121565700D02*
X128949400Y-121749400D01*
X141531900Y-133062000D02*
X141677700Y-133033800D01*
X129259900Y-124199100D02*
X129291400Y-124364700D01*
X134711000Y-132281700D02*
X134831800Y-132339800D01*
X139365600Y-133279900D02*
X139508100Y-133277900D01*
X129752900Y-107863800D02*
X129729100Y-108088700D01*
X128903700Y-121007800D02*
X128913400Y-121194900D01*
X137549400Y-133157700D02*
X137686100Y-133177500D01*
X129086700Y-114518000D02*
X129069500Y-114733300D01*
X158637300Y-113378600D02*
X158708600Y-113158500D01*
X130145400Y-103849900D02*
X130126200Y-104069800D01*
X129885400Y-58466500D02*
X129291600Y-59193800D01*
X150908300Y-127517200D02*
X151034300Y-127380900D01*
X128719100Y-59924500D02*
X128152800Y-60676900D01*
X115300100Y-96244700D02*
X115437300Y-96507200D01*
X150527000Y-127917500D02*
X150654700Y-127785500D01*
X133558600Y-131607100D02*
X133669100Y-131682200D01*
X129394300Y-124854400D02*
X129431100Y-125015200D01*
X126493100Y-63064600D02*
X125953700Y-63904000D01*
X153648600Y-124022100D02*
X153759900Y-123854000D01*
X131423100Y-129531100D02*
X131506900Y-129642500D01*
X159499400Y-110482600D02*
X159559600Y-110257400D01*
X157190500Y-48740780D02*
X156562000Y-48495340D01*
X123871400Y-67478600D02*
X123370700Y-68426500D01*
X129561600Y-109661300D02*
X129537600Y-109885600D01*
X129172600Y-123694100D02*
X129200300Y-123863700D01*
X144713800Y-48070290D02*
X144043700Y-48268340D01*
X129097000Y-123178100D02*
X129121000Y-123351300D01*
X130730200Y-128457900D02*
X130801700Y-128583300D01*
X176082300Y-97273100D02*
X176276100Y-97021500D01*
X133893700Y-131827600D02*
X134007500Y-131897500D01*
X138378100Y-133250900D02*
X138517800Y-133259900D01*
X154090100Y-123341300D02*
X154198700Y-123168100D01*
X155647100Y-120614700D02*
X155745400Y-120423600D01*
X117709700Y-82722600D02*
X117347200Y-83973900D01*
X115423000Y-91935900D02*
X115146100Y-93338600D01*
X123370700Y-68426500D02*
X122878500Y-69396100D01*
X129141500Y-113868800D02*
X129122700Y-114085700D01*
X129800200Y-107414300D02*
X129776700Y-107639000D01*
X160009800Y-108449000D02*
X160062000Y-108222300D01*
X156130600Y-119649000D02*
X156225100Y-119452700D01*
X129291600Y-59193800D02*
X128719100Y-59924500D01*
X136116900Y-52450500D02*
X135473600Y-52948900D01*
X125576300Y-102254600D02*
X127044600Y-102635500D01*
X130268700Y-127538500D02*
X130330300Y-127674300D01*
X122394900Y-70387500D02*
X121920200Y-71400500D01*
X172209300Y-65886000D02*
X171828500Y-64974500D01*
X118864100Y-79098500D02*
X118468300Y-80284900D01*
X145463700Y-131707300D02*
X145607400Y-131633600D01*
X150654700Y-127785500D02*
X150781800Y-127652100D01*
X177036000Y-95436700D02*
X177091100Y-95160700D01*
X129927300Y-126693600D02*
X129980800Y-126838000D01*
X135828000Y-132741600D02*
X135956100Y-132783900D01*
X128869400Y-118681500D02*
X128867000Y-118880700D01*
X150140600Y-128304300D02*
X150270000Y-128176700D01*
X116015200Y-89195400D02*
X115712800Y-90554900D01*
X129869900Y-106740700D02*
X129846700Y-106965200D01*
X159652200Y-49954840D02*
X159045100Y-49616520D01*
X146604900Y-131072900D02*
X146746300Y-130986400D01*
X142700800Y-132788500D02*
X142847100Y-132746800D01*
X129892600Y-106516600D02*
X129869900Y-106740700D01*
X132918100Y-131120500D02*
X133022000Y-131205700D01*
X154520600Y-122640600D02*
X154626500Y-122462300D01*
X152733600Y-125320900D02*
X152850400Y-125163100D01*
X131506900Y-129642500D02*
X131592100Y-129752300D01*
X158268400Y-114470600D02*
X158343700Y-114253400D01*
X131340800Y-129418100D02*
X131423100Y-129531100D01*
X129351100Y-111671000D02*
X129328600Y-111892800D01*
X129705300Y-108313500D02*
X129681300Y-108538200D01*
X124897100Y-65647800D02*
X124380200Y-66552300D01*
X140659400Y-133196000D02*
X140804400Y-133177900D01*
X116404000Y-97764800D02*
X116912900Y-98240700D01*
X175058900Y-75114400D02*
X174796500Y-73997900D01*
X146746300Y-130986400D02*
X146887100Y-130898000D01*
X143139600Y-132658000D02*
X143285600Y-132611100D01*
X165877100Y-55200300D02*
X165350400Y-54608400D01*
X131091100Y-57080200D02*
X130485400Y-57761900D01*
X157718100Y-115972100D02*
X157799100Y-115759700D01*
X160732800Y-104837700D02*
X160770100Y-104614200D01*
X136085100Y-132824700D02*
X136215000Y-132863600D01*
X157814000Y-49009470D02*
X157190500Y-48740780D01*
X131024600Y-128950300D02*
X131101600Y-129069500D01*
X128872700Y-118481100D02*
X128869400Y-118681500D01*
X124380200Y-66552300D02*
X123871400Y-67478600D01*
X160940900Y-103503900D02*
X160942900Y-103486800D01*
X148547200Y-129714200D02*
X148682700Y-129605200D01*
M02*
