%TF.GenerationSoftware,KiCad,Pcbnew,7.0.1*%
%TF.CreationDate,2023-05-31T17:56:53-07:00*%
%TF.ProjectId,GameOfShrooms2023,47616d65-4f66-4536-9872-6f6f6d733230,rev?*%
%TF.SameCoordinates,Original*%
%TF.FileFunction,Soldermask,Top*%
%TF.FilePolarity,Negative*%
%FSLAX46Y46*%
G04 Gerber Fmt 4.6, Leading zero omitted, Abs format (unit mm)*
G04 Created by KiCad (PCBNEW 7.0.1) date 2023-05-31 17:56:53*
%MOMM*%
%LPD*%
G01*
G04 APERTURE LIST*
G04 Aperture macros list*
%AMRoundRect*
0 Rectangle with rounded corners*
0 $1 Rounding radius*
0 $2 $3 $4 $5 $6 $7 $8 $9 X,Y pos of 4 corners*
0 Add a 4 corners polygon primitive as box body*
4,1,4,$2,$3,$4,$5,$6,$7,$8,$9,$2,$3,0*
0 Add four circle primitives for the rounded corners*
1,1,$1+$1,$2,$3*
1,1,$1+$1,$4,$5*
1,1,$1+$1,$6,$7*
1,1,$1+$1,$8,$9*
0 Add four rect primitives between the rounded corners*
20,1,$1+$1,$2,$3,$4,$5,0*
20,1,$1+$1,$4,$5,$6,$7,0*
20,1,$1+$1,$6,$7,$8,$9,0*
20,1,$1+$1,$8,$9,$2,$3,0*%
%AMRotRect*
0 Rectangle, with rotation*
0 The origin of the aperture is its center*
0 $1 length*
0 $2 width*
0 $3 Rotation angle, in degrees counterclockwise*
0 Add horizontal line*
21,1,$1,$2,0,0,$3*%
G04 Aperture macros list end*
%ADD10RoundRect,0.218750X-0.256250X0.218750X-0.256250X-0.218750X0.256250X-0.218750X0.256250X0.218750X0*%
%ADD11RoundRect,0.147500X-0.147500X-0.172500X0.147500X-0.172500X0.147500X0.172500X-0.147500X0.172500X0*%
%ADD12RotRect,1.500000X0.900000X40.000000*%
%ADD13RotRect,1.500000X0.900000X250.000000*%
%ADD14RotRect,1.500000X0.900000X235.000000*%
%ADD15RoundRect,0.147500X0.147500X0.172500X-0.147500X0.172500X-0.147500X-0.172500X0.147500X-0.172500X0*%
%ADD16R,1.500000X0.900000*%
%ADD17RoundRect,0.147500X0.017678X-0.226274X0.226274X-0.017678X-0.017678X0.226274X-0.226274X0.017678X0*%
%ADD18R,2.500000X2.500000*%
%ADD19RotRect,1.500000X0.900000X325.000000*%
%ADD20RotRect,1.500000X0.900000X100.000000*%
%ADD21RotRect,1.500000X0.900000X265.000000*%
%ADD22RotRect,1.500000X0.900000X120.000000*%
%ADD23RoundRect,0.150000X-0.150000X0.512500X-0.150000X-0.512500X0.150000X-0.512500X0.150000X0.512500X0*%
%ADD24RotRect,1.500000X0.900000X70.000000*%
G04 APERTURE END LIST*
D10*
%TO.C,C0*%
X145500000Y-60000000D03*
X145500000Y-61575000D03*
%TD*%
D11*
%TO.C,C2*%
X163000000Y-72500000D03*
X163970000Y-72500000D03*
%TD*%
D12*
%TO.C,LED4*%
X166000000Y-94000000D03*
X168121199Y-96527947D03*
X171874816Y-93378288D03*
X169753617Y-90850341D03*
%TD*%
D13*
%TO.C,LED9*%
X128675899Y-77895506D03*
X125574914Y-76766840D03*
X123899015Y-81371334D03*
X127000000Y-82500000D03*
%TD*%
D11*
%TO.C,C5*%
X140515000Y-119000000D03*
X141485000Y-119000000D03*
%TD*%
D14*
%TO.C,LED10*%
X135000000Y-64500000D03*
X132296798Y-62607197D03*
X129486274Y-66621042D03*
X132189476Y-68513845D03*
%TD*%
D15*
%TO.C,C8*%
X130985000Y-81000000D03*
X130015000Y-81000000D03*
%TD*%
D16*
%TO.C,LED6*%
X137600000Y-124000000D03*
X137600000Y-127300000D03*
X142500000Y-127300000D03*
X142500000Y-124000000D03*
%TD*%
D17*
%TO.C,C1*%
X156314106Y-61685894D03*
X157000000Y-61000000D03*
%TD*%
D18*
%TO.C,GND*%
X144000000Y-51500000D03*
%TD*%
%TO.C,IN*%
X139000000Y-54000000D03*
%TD*%
D15*
%TO.C,C7*%
X129470000Y-92500000D03*
X128500000Y-92500000D03*
%TD*%
%TO.C,C9*%
X136985000Y-69000000D03*
X136015000Y-69000000D03*
%TD*%
D19*
%TO.C,LED8*%
X121439479Y-91243137D03*
X119546676Y-93946339D03*
X123560521Y-96756863D03*
X125453324Y-94053661D03*
%TD*%
D20*
%TO.C,LED3*%
X167850876Y-82325558D03*
X171100742Y-81752520D03*
X170249866Y-76926962D03*
X167000000Y-77500000D03*
%TD*%
D21*
%TO.C,LED7*%
X138000000Y-105500000D03*
X134712557Y-105212386D03*
X134285494Y-110093740D03*
X137572937Y-110381354D03*
%TD*%
D18*
%TO.C,5V*%
X150000000Y-58000000D03*
%TD*%
%TO.C,INv5*%
X139500000Y-58500000D03*
%TD*%
D15*
%TO.C,C6*%
X141500000Y-108500000D03*
X140530000Y-108500000D03*
%TD*%
D22*
%TO.C,LED2*%
X164450000Y-67743524D03*
X167307884Y-66093524D03*
X164857884Y-61850000D03*
X162000000Y-63500000D03*
%TD*%
D11*
%TO.C,C3*%
X166530000Y-86500000D03*
X167500000Y-86500000D03*
%TD*%
D18*
%TO.C,OUT*%
X134500000Y-58500000D03*
%TD*%
D11*
%TO.C,C4*%
X148015000Y-108000000D03*
X148985000Y-108000000D03*
%TD*%
D23*
%TO.C,U1*%
X145400000Y-55725000D03*
X144450000Y-55725000D03*
X143500000Y-55725000D03*
X143500000Y-58000000D03*
X145400000Y-58000000D03*
%TD*%
D24*
%TO.C,LED5*%
X150324101Y-111104494D03*
X153425086Y-112233160D03*
X155100985Y-107628666D03*
X152000000Y-106500000D03*
%TD*%
D16*
%TO.C,LED1*%
X152500000Y-54800000D03*
X152500000Y-51500000D03*
X147600000Y-51500000D03*
X147600000Y-54800000D03*
%TD*%
M02*
