%TF.GenerationSoftware,KiCad,Pcbnew,7.0.1*%
%TF.CreationDate,2023-05-31T17:56:53-07:00*%
%TF.ProjectId,GameOfShrooms2023,47616d65-4f66-4536-9872-6f6f6d733230,rev?*%
%TF.SameCoordinates,Original*%
%TF.FileFunction,Copper,L1,Top*%
%TF.FilePolarity,Positive*%
%FSLAX46Y46*%
G04 Gerber Fmt 4.6, Leading zero omitted, Abs format (unit mm)*
G04 Created by KiCad (PCBNEW 7.0.1) date 2023-05-31 17:56:53*
%MOMM*%
%LPD*%
G01*
G04 APERTURE LIST*
G04 Aperture macros list*
%AMRoundRect*
0 Rectangle with rounded corners*
0 $1 Rounding radius*
0 $2 $3 $4 $5 $6 $7 $8 $9 X,Y pos of 4 corners*
0 Add a 4 corners polygon primitive as box body*
4,1,4,$2,$3,$4,$5,$6,$7,$8,$9,$2,$3,0*
0 Add four circle primitives for the rounded corners*
1,1,$1+$1,$2,$3*
1,1,$1+$1,$4,$5*
1,1,$1+$1,$6,$7*
1,1,$1+$1,$8,$9*
0 Add four rect primitives between the rounded corners*
20,1,$1+$1,$2,$3,$4,$5,0*
20,1,$1+$1,$4,$5,$6,$7,0*
20,1,$1+$1,$6,$7,$8,$9,0*
20,1,$1+$1,$8,$9,$2,$3,0*%
%AMRotRect*
0 Rectangle, with rotation*
0 The origin of the aperture is its center*
0 $1 length*
0 $2 width*
0 $3 Rotation angle, in degrees counterclockwise*
0 Add horizontal line*
21,1,$1,$2,0,0,$3*%
G04 Aperture macros list end*
%TA.AperFunction,SMDPad,CuDef*%
%ADD10RoundRect,0.218750X-0.256250X0.218750X-0.256250X-0.218750X0.256250X-0.218750X0.256250X0.218750X0*%
%TD*%
%TA.AperFunction,SMDPad,CuDef*%
%ADD11RoundRect,0.147500X-0.147500X-0.172500X0.147500X-0.172500X0.147500X0.172500X-0.147500X0.172500X0*%
%TD*%
%TA.AperFunction,SMDPad,CuDef*%
%ADD12RotRect,1.500000X0.900000X40.000000*%
%TD*%
%TA.AperFunction,SMDPad,CuDef*%
%ADD13RotRect,1.500000X0.900000X250.000000*%
%TD*%
%TA.AperFunction,SMDPad,CuDef*%
%ADD14RotRect,1.500000X0.900000X235.000000*%
%TD*%
%TA.AperFunction,SMDPad,CuDef*%
%ADD15RoundRect,0.147500X0.147500X0.172500X-0.147500X0.172500X-0.147500X-0.172500X0.147500X-0.172500X0*%
%TD*%
%TA.AperFunction,SMDPad,CuDef*%
%ADD16R,1.500000X0.900000*%
%TD*%
%TA.AperFunction,SMDPad,CuDef*%
%ADD17RoundRect,0.147500X0.017678X-0.226274X0.226274X-0.017678X-0.017678X0.226274X-0.226274X0.017678X0*%
%TD*%
%TA.AperFunction,SMDPad,CuDef*%
%ADD18R,2.500000X2.500000*%
%TD*%
%TA.AperFunction,SMDPad,CuDef*%
%ADD19RotRect,1.500000X0.900000X325.000000*%
%TD*%
%TA.AperFunction,SMDPad,CuDef*%
%ADD20RotRect,1.500000X0.900000X100.000000*%
%TD*%
%TA.AperFunction,SMDPad,CuDef*%
%ADD21RotRect,1.500000X0.900000X265.000000*%
%TD*%
%TA.AperFunction,SMDPad,CuDef*%
%ADD22RotRect,1.500000X0.900000X120.000000*%
%TD*%
%TA.AperFunction,SMDPad,CuDef*%
%ADD23RoundRect,0.150000X-0.150000X0.512500X-0.150000X-0.512500X0.150000X-0.512500X0.150000X0.512500X0*%
%TD*%
%TA.AperFunction,SMDPad,CuDef*%
%ADD24RotRect,1.500000X0.900000X70.000000*%
%TD*%
%TA.AperFunction,Conductor*%
%ADD25C,1.000000*%
%TD*%
%TA.AperFunction,Conductor*%
%ADD26C,0.500000*%
%TD*%
G04 APERTURE END LIST*
D10*
%TO.P,C0,1*%
%TO.N,+5V*%
X145500000Y-60000000D03*
%TO.P,C0,2*%
%TO.N,GND*%
X145500000Y-61575000D03*
%TD*%
D11*
%TO.P,C2,1*%
%TO.N,GND*%
X163000000Y-72500000D03*
%TO.P,C2,2*%
%TO.N,+5V*%
X163970000Y-72500000D03*
%TD*%
D12*
%TO.P,LED4,1,VDD*%
%TO.N,+5V*%
X166000000Y-94000000D03*
%TO.P,LED4,2,DOU*%
%TO.N,Net-(LED4-DOU)*%
X168121199Y-96527947D03*
%TO.P,LED4,3,GND*%
%TO.N,GND*%
X171874816Y-93378288D03*
%TO.P,LED4,4,DIN*%
%TO.N,Net-(LED3-DOU)*%
X169753617Y-90850341D03*
%TD*%
D13*
%TO.P,LED9,1,VDD*%
%TO.N,+5V*%
X128675899Y-77895506D03*
%TO.P,LED9,2,DOU*%
%TO.N,Net-(LED10-DIN)*%
X125574914Y-76766840D03*
%TO.P,LED9,3,GND*%
%TO.N,GND*%
X123899015Y-81371334D03*
%TO.P,LED9,4,DIN*%
%TO.N,Net-(LED8-DOU)*%
X127000000Y-82500000D03*
%TD*%
D11*
%TO.P,C5,1*%
%TO.N,GND*%
X140515000Y-119000000D03*
%TO.P,C5,2*%
%TO.N,+5V*%
X141485000Y-119000000D03*
%TD*%
D14*
%TO.P,LED10,1,VDD*%
%TO.N,+5V*%
X135000000Y-64500000D03*
%TO.P,LED10,2,DOU*%
%TO.N,LED_OUT*%
X132296798Y-62607197D03*
%TO.P,LED10,3,GND*%
%TO.N,GND*%
X129486274Y-66621042D03*
%TO.P,LED10,4,DIN*%
%TO.N,Net-(LED10-DIN)*%
X132189476Y-68513845D03*
%TD*%
D15*
%TO.P,C8,1*%
%TO.N,GND*%
X130985000Y-81000000D03*
%TO.P,C8,2*%
%TO.N,+5V*%
X130015000Y-81000000D03*
%TD*%
D16*
%TO.P,LED6,1,VDD*%
%TO.N,+5V*%
X137600000Y-124000000D03*
%TO.P,LED6,2,DOU*%
%TO.N,Net-(LED6-DOU)*%
X137600000Y-127300000D03*
%TO.P,LED6,3,GND*%
%TO.N,GND*%
X142500000Y-127300000D03*
%TO.P,LED6,4,DIN*%
%TO.N,Net-(LED5-DOU)*%
X142500000Y-124000000D03*
%TD*%
D17*
%TO.P,C1,1*%
%TO.N,GND*%
X156314106Y-61685894D03*
%TO.P,C1,2*%
%TO.N,+5V*%
X157000000Y-61000000D03*
%TD*%
D18*
%TO.P,GND,1,1*%
%TO.N,GND*%
X144000000Y-51500000D03*
%TD*%
%TO.P,IN,1,1*%
%TO.N,LED_IN*%
X139000000Y-54000000D03*
%TD*%
D15*
%TO.P,C7,1*%
%TO.N,GND*%
X129470000Y-92500000D03*
%TO.P,C7,2*%
%TO.N,+5V*%
X128500000Y-92500000D03*
%TD*%
%TO.P,C9,1*%
%TO.N,GND*%
X136985000Y-69000000D03*
%TO.P,C9,2*%
%TO.N,+5V*%
X136015000Y-69000000D03*
%TD*%
D19*
%TO.P,LED8,1,VDD*%
%TO.N,+5V*%
X121439479Y-91243137D03*
%TO.P,LED8,2,DOU*%
%TO.N,Net-(LED8-DOU)*%
X119546676Y-93946339D03*
%TO.P,LED8,3,GND*%
%TO.N,GND*%
X123560521Y-96756863D03*
%TO.P,LED8,4,DIN*%
%TO.N,Net-(LED7-DOU)*%
X125453324Y-94053661D03*
%TD*%
D20*
%TO.P,LED3,1,VDD*%
%TO.N,+5V*%
X167850876Y-82325558D03*
%TO.P,LED3,2,DOU*%
%TO.N,Net-(LED3-DOU)*%
X171100742Y-81752520D03*
%TO.P,LED3,3,GND*%
%TO.N,GND*%
X170249866Y-76926962D03*
%TO.P,LED3,4,DIN*%
%TO.N,Net-(LED2-DOU)*%
X167000000Y-77500000D03*
%TD*%
D21*
%TO.P,LED7,1,VDD*%
%TO.N,+5V*%
X138000000Y-105500000D03*
%TO.P,LED7,2,DOU*%
%TO.N,Net-(LED7-DOU)*%
X134712557Y-105212386D03*
%TO.P,LED7,3,GND*%
%TO.N,GND*%
X134285494Y-110093740D03*
%TO.P,LED7,4,DIN*%
%TO.N,Net-(LED6-DOU)*%
X137572937Y-110381354D03*
%TD*%
D18*
%TO.P,5V,1,1*%
%TO.N,+5V*%
X150000000Y-58000000D03*
%TD*%
%TO.P,INv5,1,1*%
%TO.N,Net-(LED1-DIN)*%
X139500000Y-58500000D03*
%TD*%
D15*
%TO.P,C6,1*%
%TO.N,GND*%
X141500000Y-108500000D03*
%TO.P,C6,2*%
%TO.N,+5V*%
X140530000Y-108500000D03*
%TD*%
D22*
%TO.P,LED2,1,VDD*%
%TO.N,+5V*%
X164450000Y-67743524D03*
%TO.P,LED2,2,DOU*%
%TO.N,Net-(LED2-DOU)*%
X167307884Y-66093524D03*
%TO.P,LED2,3,GND*%
%TO.N,GND*%
X164857884Y-61850000D03*
%TO.P,LED2,4,DIN*%
%TO.N,Net-(LED1-DOU)*%
X162000000Y-63500000D03*
%TD*%
D11*
%TO.P,C3,1*%
%TO.N,GND*%
X166530000Y-86500000D03*
%TO.P,C3,2*%
%TO.N,+5V*%
X167500000Y-86500000D03*
%TD*%
D18*
%TO.P,OUT,1,1*%
%TO.N,LED_OUT*%
X134500000Y-58500000D03*
%TD*%
D11*
%TO.P,C4,1*%
%TO.N,GND*%
X148015000Y-108000000D03*
%TO.P,C4,2*%
%TO.N,+5V*%
X148985000Y-108000000D03*
%TD*%
D23*
%TO.P,U1,1*%
%TO.N,GND*%
X145400000Y-55725000D03*
%TO.P,U1,2*%
%TO.N,LED_IN*%
X144450000Y-55725000D03*
%TO.P,U1,3,GND*%
%TO.N,GND*%
X143500000Y-55725000D03*
%TO.P,U1,4*%
%TO.N,Net-(LED1-DIN)*%
X143500000Y-58000000D03*
%TO.P,U1,5,VCC*%
%TO.N,+5V*%
X145400000Y-58000000D03*
%TD*%
D24*
%TO.P,LED5,1,VDD*%
%TO.N,+5V*%
X150324101Y-111104494D03*
%TO.P,LED5,2,DOU*%
%TO.N,Net-(LED5-DOU)*%
X153425086Y-112233160D03*
%TO.P,LED5,3,GND*%
%TO.N,GND*%
X155100985Y-107628666D03*
%TO.P,LED5,4,DIN*%
%TO.N,Net-(LED4-DOU)*%
X152000000Y-106500000D03*
%TD*%
D16*
%TO.P,LED1,1,VDD*%
%TO.N,+5V*%
X152500000Y-54800000D03*
%TO.P,LED1,2,DOU*%
%TO.N,Net-(LED1-DOU)*%
X152500000Y-51500000D03*
%TO.P,LED1,3,GND*%
%TO.N,GND*%
X147600000Y-51500000D03*
%TO.P,LED1,4,DIN*%
%TO.N,Net-(LED1-DIN)*%
X147600000Y-54800000D03*
%TD*%
D25*
%TO.N,GND*%
X171874816Y-93378288D02*
X171874816Y-94501736D01*
X172937408Y-92315696D02*
X171874816Y-93378288D01*
D26*
X156515967Y-61887755D02*
X156517700Y-61889488D01*
D25*
X134285494Y-109689617D02*
X134285494Y-110295800D01*
X124408692Y-96756863D02*
X124368933Y-96756863D01*
X171166351Y-77166351D02*
X172463481Y-78463481D01*
D26*
X137600000Y-60600000D02*
X137500000Y-60500000D01*
X137500000Y-60500000D02*
X137389306Y-60389306D01*
X140638214Y-118528282D02*
X141007500Y-118158997D01*
X130985000Y-81000000D02*
X130985000Y-89913733D01*
X156282914Y-61654702D02*
X156289845Y-61661633D01*
X137000000Y-59828332D02*
X137000000Y-59484996D01*
D25*
X129486274Y-67067384D02*
X129486274Y-66895716D01*
D26*
X156382547Y-61754335D02*
X156387746Y-61759534D01*
X156442325Y-61814113D02*
X156449256Y-61821044D01*
X156609534Y-61981322D02*
X156646788Y-62018576D01*
X156269054Y-61640842D02*
X156275984Y-61647772D01*
X156387746Y-61759534D02*
X156389480Y-61761268D01*
X156517700Y-61889488D02*
X156536760Y-61908548D01*
X156536760Y-61908548D02*
X156573147Y-61944935D01*
X146900777Y-112265719D02*
X140638214Y-118528282D01*
X163000000Y-72500000D02*
X163000000Y-70435894D01*
X166323223Y-83823223D02*
X164593792Y-82093792D01*
X156365221Y-61737009D02*
X156373884Y-61745672D01*
X156292444Y-61664232D02*
X156294177Y-61665965D01*
X137121387Y-60121387D02*
X137210693Y-60210693D01*
X156259525Y-61631313D02*
X156261257Y-61633045D01*
X156391214Y-61763002D02*
X156393812Y-61765600D01*
X156258659Y-61630447D02*
X156259525Y-61631313D01*
X141500000Y-108500000D02*
X141500000Y-106515000D01*
D25*
X129170662Y-67829337D02*
X125492807Y-71507192D01*
X165483614Y-99500000D02*
X165746036Y-99500000D01*
D26*
X137700000Y-67779418D02*
X137700000Y-60841421D01*
X156393812Y-61765600D02*
X156400742Y-61772530D01*
X135391207Y-76593792D02*
X130985000Y-81000000D01*
D25*
X174000000Y-89750371D02*
X174000000Y-82172966D01*
X119388476Y-87611522D02*
X117914213Y-89085786D01*
D26*
X156327967Y-61699755D02*
X156355691Y-61727479D01*
D25*
X133999735Y-108999735D02*
X133392747Y-108392747D01*
D26*
X156275984Y-61647772D02*
X156282914Y-61654702D01*
D25*
X124289416Y-96756863D02*
X120352706Y-96756863D01*
D26*
X145500000Y-61575000D02*
X156124798Y-61575000D01*
X129470000Y-92500000D02*
X140096393Y-103126393D01*
D25*
X131262563Y-102762563D02*
X125856610Y-97356610D01*
D26*
X163000000Y-72500000D02*
X163000000Y-78246036D01*
X156646788Y-62018576D02*
X156757682Y-62129470D01*
X141500000Y-116969996D02*
X141500000Y-108500000D01*
X130229845Y-66426818D02*
X136878612Y-59778051D01*
X139335139Y-61575000D02*
X145500000Y-61575000D01*
X156514234Y-61886022D02*
X156497773Y-61869561D01*
X156262989Y-61634777D02*
X156264722Y-61636510D01*
D25*
X167554319Y-62554319D02*
X168906207Y-63906207D01*
D26*
X149070356Y-103959643D02*
X166530000Y-86500000D01*
D25*
X153507192Y-116292807D02*
X142606066Y-127193933D01*
X144494974Y-51500000D02*
X147600000Y-51500000D01*
X142093933Y-127406066D02*
X141225000Y-128275000D01*
D26*
X156400742Y-61772530D02*
X156407672Y-61779460D01*
D25*
X134285494Y-110295800D02*
X134285494Y-111508166D01*
D26*
X161540456Y-66912244D02*
X156757682Y-62129470D01*
X156435394Y-61807182D02*
X156442325Y-61814113D01*
D25*
X123899015Y-81371334D02*
X120611523Y-84658825D01*
D26*
X156309772Y-61681560D02*
X156318437Y-61690225D01*
D25*
X165853942Y-61850000D02*
X165353942Y-61850000D01*
X170426737Y-76926962D02*
X170588414Y-76926962D01*
D26*
X129470000Y-92500000D02*
X130227500Y-91742500D01*
D25*
X154878858Y-50878858D02*
X164507118Y-60507118D01*
D26*
X156266455Y-61638243D02*
X156269054Y-61640842D01*
X140292893Y-56500000D02*
X138578332Y-56500000D01*
X166530000Y-86500000D02*
X166530000Y-84551213D01*
X156327967Y-61699755D02*
X156318437Y-61690225D01*
X136985000Y-69000000D02*
X136985000Y-72746036D01*
D25*
X161635858Y-101093792D02*
X155100985Y-107628666D01*
D26*
X148015000Y-106507500D02*
X148015000Y-108000000D01*
D25*
X136785562Y-129250000D02*
X138871141Y-129250000D01*
D26*
X156373884Y-61745672D02*
X156382547Y-61754335D01*
X148015000Y-109575748D02*
X148015000Y-108000000D01*
X142637500Y-55500000D02*
X143115900Y-55500000D01*
X156573147Y-61944935D02*
X156609534Y-61981322D01*
X137000000Y-59484996D02*
X137000000Y-58078332D01*
X143387500Y-55612500D02*
X143500000Y-55725000D01*
D25*
X151550000Y-49500000D02*
X151014213Y-49500000D01*
D26*
X145400000Y-53889949D02*
X145400000Y-55725000D01*
D25*
X155100985Y-107628666D02*
X155100985Y-112445051D01*
X123899015Y-75354948D02*
X123899015Y-81371334D01*
D26*
X156264722Y-61636510D02*
X156266455Y-61638243D01*
X156449256Y-61821044D02*
X156463118Y-61834906D01*
X156407672Y-61779460D02*
X156414602Y-61786390D01*
D25*
X134285494Y-126749931D02*
X134285494Y-111508166D01*
D26*
X156435394Y-61807182D02*
X156421533Y-61793321D01*
X156289845Y-61661633D02*
X156292444Y-61664232D01*
X156389480Y-61761268D02*
X156391214Y-61763002D01*
D25*
X124368933Y-96756863D02*
X124289416Y-96756863D01*
D26*
X156301107Y-61672895D02*
X156295910Y-61667698D01*
D25*
X132500000Y-105750000D02*
X132500000Y-106237465D01*
X169593792Y-97906207D02*
X171080418Y-96419581D01*
D26*
X144700000Y-52200000D02*
X144350000Y-51850000D01*
X141500000Y-56000000D02*
X141549219Y-55950780D01*
X137389306Y-60389306D02*
X137210693Y-60210693D01*
X156294177Y-61665965D02*
X156295910Y-61667698D01*
X137600000Y-60600000D02*
X138037500Y-61037500D01*
X137600000Y-60600000D02*
X137500000Y-60500000D01*
X156355691Y-61727479D02*
X156365221Y-61737009D01*
D25*
X116500000Y-92904156D02*
X116500000Y-92500000D01*
D26*
X156514234Y-61886022D02*
X156515967Y-61887755D01*
X156301107Y-61672895D02*
X156309772Y-61681560D01*
X136985000Y-69000000D02*
X137342500Y-68642500D01*
X140515000Y-118825748D02*
X140515000Y-119000000D01*
D25*
X170500000Y-67753963D02*
X170500000Y-76499956D01*
D26*
X156463118Y-61834906D02*
X156497773Y-61869561D01*
X137389306Y-60389306D02*
X137210693Y-60210693D01*
X156414602Y-61786390D02*
X156421533Y-61793321D01*
D25*
X148600000Y-50500000D02*
X147600000Y-51500000D01*
D26*
X156262989Y-61634777D02*
X156261257Y-61633045D01*
X166500000Y-84478786D02*
X166500000Y-84250000D01*
X137500000Y-60500000D02*
X137389306Y-60389306D01*
D25*
X125492776Y-71507161D02*
G75*
G03*
X123899015Y-75354948I3847824J-3847739D01*
G01*
X154878855Y-50878861D02*
G75*
G03*
X151550000Y-49500000I-3328855J-3328839D01*
G01*
X144350000Y-51850000D02*
G75*
G02*
X144350000Y-51850000I0J0D01*
G01*
D26*
X129760948Y-66621069D02*
G75*
G03*
X130229845Y-66426818I-48J663169D01*
G01*
D25*
X142350000Y-127299990D02*
G75*
G03*
X142093933Y-127406066I0J-362110D01*
G01*
D26*
X130227490Y-91742490D02*
G75*
G03*
X130985000Y-89913733I-1828790J1828790D01*
G01*
X166499986Y-84250000D02*
G75*
G03*
X166323223Y-83823223I-603586J0D01*
G01*
D25*
X151014213Y-49500006D02*
G75*
G03*
X148600000Y-50500000I-13J-3414194D01*
G01*
X167554299Y-62554339D02*
G75*
G03*
X165853942Y-61850000I-1700399J-1700361D01*
G01*
X174000025Y-82172966D02*
G75*
G03*
X172463481Y-78463481I-5246025J-34D01*
G01*
X119388495Y-87611541D02*
G75*
G03*
X120000000Y-86135174I-1476395J1476341D01*
G01*
D26*
X143387500Y-55612500D02*
G75*
G03*
X143115900Y-55500000I-271600J-271600D01*
G01*
D25*
X120611531Y-84658833D02*
G75*
G03*
X120000000Y-86135174I1476369J-1476367D01*
G01*
D26*
X140638186Y-118528254D02*
G75*
G03*
X140515000Y-118825748I297514J-297446D01*
G01*
D25*
X132500017Y-106237465D02*
G75*
G03*
X133392748Y-108392746I3047983J-35D01*
G01*
X129170672Y-67829347D02*
G75*
G03*
X129486274Y-67067384I-761972J761947D01*
G01*
D26*
X141007502Y-118158999D02*
G75*
G03*
X141500000Y-116969996I-1189002J1188999D01*
G01*
X156258658Y-61630448D02*
G75*
G03*
X156124798Y-61575000I-133858J-133852D01*
G01*
D25*
X171166346Y-77166356D02*
G75*
G03*
X170588414Y-76926962I-577946J-577944D01*
G01*
D26*
X142637500Y-55500011D02*
G75*
G03*
X141549219Y-55950780I0J-1539089D01*
G01*
D25*
X117628437Y-95628425D02*
G75*
G03*
X120352706Y-96756863I2724263J2724225D01*
G01*
D26*
X136878606Y-59778045D02*
G75*
G03*
X137000000Y-59484996I-293006J293045D01*
G01*
X135391200Y-76593785D02*
G75*
G03*
X136985000Y-72746036I-3847800J3847785D01*
G01*
X137342495Y-68642495D02*
G75*
G03*
X137700000Y-67779418I-863095J863095D01*
G01*
D25*
X164857856Y-61353942D02*
G75*
G03*
X164507118Y-60507118I-1197556J42D01*
G01*
D26*
X163000002Y-70435894D02*
G75*
G03*
X161540456Y-66912244I-4983202J-6D01*
G01*
X137699991Y-60841421D02*
G75*
G03*
X137600000Y-60600000I-341391J21D01*
G01*
X138037488Y-61037512D02*
G75*
G03*
X139335139Y-61575000I1297612J1297612D01*
G01*
X136999965Y-59828332D02*
G75*
G03*
X137121387Y-60121387I414435J32D01*
G01*
D25*
X165483614Y-99499996D02*
G75*
G03*
X161635859Y-101093793I-14J-5441504D01*
G01*
D26*
X137500000Y-60500000D02*
G75*
G02*
X137500000Y-60500000I0J0D01*
G01*
D25*
X125856608Y-97356612D02*
G75*
G03*
X124408692Y-96756863I-1447908J-1447888D01*
G01*
D26*
X140638214Y-118528282D02*
G75*
G02*
X140638214Y-118528282I0J0D01*
G01*
D25*
X116500029Y-92904156D02*
G75*
G03*
X117628431Y-95628431I3852671J-44D01*
G01*
D26*
X162999990Y-78246036D02*
G75*
G03*
X164593793Y-82093791I5441610J36D01*
G01*
X140638186Y-118528254D02*
G75*
G03*
X140515000Y-118825748I297514J-297446D01*
G01*
D25*
X144494974Y-51499940D02*
G75*
G03*
X144350001Y-51849999I26J-205060D01*
G01*
D26*
X137389306Y-60389306D02*
G75*
G02*
X137389306Y-60389306I0J0D01*
G01*
X129760948Y-66621074D02*
G75*
G03*
X129486274Y-66895716I-48J-274626D01*
G01*
D25*
X134285483Y-126749931D02*
G75*
G03*
X135017747Y-128517747I2500117J31D01*
G01*
X138871141Y-129250017D02*
G75*
G03*
X141225000Y-128275000I-41J3328917D01*
G01*
D26*
X146900755Y-112265697D02*
G75*
G03*
X148015000Y-109575748I-2689955J2689997D01*
G01*
D25*
X170374915Y-76801877D02*
G75*
G03*
X170426737Y-76926962I51785J-51823D01*
G01*
X132499992Y-105750000D02*
G75*
G03*
X131262563Y-102762563I-4224892J0D01*
G01*
X165746036Y-99500010D02*
G75*
G03*
X169593792Y-97906207I-36J5441610D01*
G01*
D26*
X136999990Y-59828332D02*
G75*
G03*
X136878612Y-59778051I-71090J32D01*
G01*
X149070359Y-103959646D02*
G75*
G03*
X148015000Y-106507500I2547841J-2547854D01*
G01*
D25*
X164857800Y-61353942D02*
G75*
G03*
X165353942Y-61850000I496100J42D01*
G01*
X117914219Y-89085792D02*
G75*
G03*
X116500000Y-92500000I3414181J-3414208D01*
G01*
D26*
X141500004Y-106515000D02*
G75*
G03*
X140096393Y-103126393I-4792204J0D01*
G01*
X145400020Y-53889949D02*
G75*
G03*
X144699999Y-52200001I-2390020J-51D01*
G01*
D25*
X171080395Y-96419558D02*
G75*
G03*
X171874816Y-94501736I-1917795J1917858D01*
G01*
X153507174Y-116292789D02*
G75*
G03*
X155100985Y-112445051I-3847774J3847789D01*
G01*
X142350000Y-127300008D02*
G75*
G03*
X142606066Y-127193933I0J362108D01*
G01*
D26*
X140292893Y-56499997D02*
G75*
G03*
X141500000Y-56000000I7J1707097D01*
G01*
X138578332Y-56500000D02*
G75*
G03*
X137000000Y-58078332I-32J-1578300D01*
G01*
D25*
X135017759Y-128517735D02*
G75*
G03*
X136785562Y-129250000I1767841J1767835D01*
G01*
X172937419Y-92315707D02*
G75*
G03*
X174000000Y-89750371I-2565319J2565307D01*
G01*
D26*
X166529994Y-84551213D02*
G75*
G03*
X166515000Y-84515000I-51194J13D01*
G01*
X137600000Y-60600000D02*
G75*
G02*
X137600000Y-60600000I0J0D01*
G01*
D25*
X170500010Y-67753963D02*
G75*
G03*
X168906206Y-63906208I-5441610J-37D01*
G01*
X134285465Y-109689617D02*
G75*
G03*
X133999734Y-108999736I-975665J17D01*
G01*
D26*
X166500006Y-84478786D02*
G75*
G03*
X166515000Y-84515000I51194J-14D01*
G01*
D25*
X170374954Y-76801916D02*
G75*
G03*
X170500000Y-76499956I-301954J301916D01*
G01*
%TO.N,+5V*%
X167850876Y-82325558D02*
X167850876Y-86324562D01*
X163832135Y-67582135D02*
X152765165Y-56515165D01*
X141833151Y-119214298D02*
X141956798Y-119214298D01*
X138550000Y-124000000D02*
X137600000Y-124000000D01*
X150373742Y-57626255D02*
X149058057Y-58941940D01*
X137600000Y-115097056D02*
X137600000Y-123914297D01*
X166000000Y-94000000D02*
X166000000Y-92308766D01*
X167850876Y-86675438D02*
X167850876Y-87840357D01*
X164450000Y-67971762D02*
X164450000Y-72260000D01*
X162753963Y-94000000D02*
X166000000Y-94000000D01*
X140000000Y-109750000D02*
X140000000Y-108765000D01*
X138000000Y-105125000D02*
X138000000Y-104750000D01*
X128675899Y-77895506D02*
X134090871Y-72480533D01*
X128675899Y-80146446D02*
X128675899Y-80853553D01*
X152500000Y-55150000D02*
X152500000Y-54800000D01*
X128675899Y-77895506D02*
X128675899Y-80146446D01*
X122091308Y-90500000D02*
X123250000Y-90500000D01*
X142032217Y-120432080D02*
X142032217Y-119396377D01*
D26*
X167675438Y-86500000D02*
X167500000Y-86500000D01*
D25*
X149500000Y-109697665D02*
X149500000Y-108257500D01*
X164450000Y-72740000D02*
X164450000Y-72260000D01*
X141510000Y-119012500D02*
X141510000Y-119000000D01*
X149058057Y-58941940D02*
X148941941Y-59058057D01*
D26*
X127926776Y-93073223D02*
X128500000Y-92500000D01*
D25*
X138799999Y-112199999D02*
X139116116Y-111883883D01*
X164450000Y-72740000D02*
X164450000Y-78707537D01*
D26*
X129529452Y-81000000D02*
X130015000Y-81000000D01*
D25*
X142032217Y-119396377D02*
X142396377Y-119032217D01*
X135000000Y-70285702D02*
X135000000Y-69507500D01*
X141604649Y-119119649D02*
X141518838Y-119033838D01*
X150118075Y-111310519D02*
X142396377Y-119032217D01*
X127426776Y-93426776D02*
X137469669Y-103469669D01*
X149500000Y-106500000D02*
X149500000Y-107742500D01*
X148941941Y-59058057D02*
X148883883Y-59116116D01*
X127426776Y-93426776D02*
X127073223Y-93073223D01*
X150560660Y-103939339D02*
X158906207Y-95593792D01*
X151626255Y-56373743D02*
X152252512Y-55747487D01*
X140000000Y-108235000D02*
X140000000Y-108765000D01*
X145450000Y-58050000D02*
X145400000Y-58000000D01*
X145500000Y-58170710D02*
X145500000Y-60000000D01*
X167850876Y-86675438D02*
X167850876Y-86324562D01*
D26*
X135507500Y-69000000D02*
X136015000Y-69000000D01*
D25*
X140000000Y-108235000D02*
X140000000Y-108000000D01*
X135000000Y-68492500D02*
X135000000Y-64500000D01*
X141299864Y-122200135D02*
X140171751Y-123328248D01*
X152500000Y-55850000D02*
X152500000Y-55875000D01*
X125383883Y-91383883D02*
X127073223Y-93073223D01*
X135000000Y-68492500D02*
X135000000Y-69507500D01*
X149912050Y-110692443D02*
X150118075Y-110898468D01*
X167850876Y-82325558D02*
X166211045Y-80685727D01*
D26*
X164210000Y-72500000D02*
X163970000Y-72500000D01*
D25*
X146750000Y-60000000D02*
X145500000Y-60000000D01*
X165314272Y-80314272D02*
X164975000Y-79975000D01*
D26*
X140265000Y-108500000D02*
X140530000Y-108500000D01*
D25*
X151626255Y-56373743D02*
X150373742Y-57626255D01*
D26*
X149242500Y-108000000D02*
X148985000Y-108000000D01*
D25*
X127082105Y-87917893D02*
X125383883Y-89616116D01*
X152500000Y-55850000D02*
X152500000Y-55150000D01*
X128675899Y-84070137D02*
X128675899Y-80853553D01*
X121935435Y-90747180D02*
X121439479Y-91243137D01*
X138265165Y-105765165D02*
X139646446Y-107146446D01*
X149500000Y-107742500D02*
X149500000Y-108257500D01*
X150560665Y-103939344D02*
G75*
G03*
X149500000Y-106500000I2560635J-2560656D01*
G01*
D26*
X128925821Y-80750078D02*
G75*
G03*
X128675899Y-80853553I-103521J-103522D01*
G01*
D25*
X145499995Y-58170710D02*
G75*
G03*
X145450000Y-58050000I-170695J10D01*
G01*
X141299876Y-122200147D02*
G75*
G03*
X142032217Y-120432080I-1768076J1768047D01*
G01*
X166925466Y-90074590D02*
G75*
G03*
X167850876Y-87840357I-2234266J2234190D01*
G01*
X134090878Y-72480540D02*
G75*
G03*
X135000000Y-70285702I-2194878J2194840D01*
G01*
X122091308Y-90500000D02*
G75*
G03*
X122000000Y-90591308I-8J-91300D01*
G01*
D26*
X135507500Y-69000000D02*
G75*
G03*
X135000000Y-69507500I0J-507500D01*
G01*
X164210000Y-72500000D02*
G75*
G03*
X164450000Y-72260000I0J240000D01*
G01*
X140265000Y-108500000D02*
G75*
G03*
X140000000Y-108765000I0J-265000D01*
G01*
D25*
X146750000Y-59999989D02*
G75*
G03*
X148883883Y-59116116I0J3017789D01*
G01*
X123250000Y-90499989D02*
G75*
G03*
X125383883Y-89616116I0J3017789D01*
G01*
D26*
X127500000Y-93250080D02*
G75*
G03*
X127426776Y-93426776I0J-103520D01*
G01*
D25*
X163832152Y-67582118D02*
G75*
G03*
X164221762Y-67743524I389648J389618D01*
G01*
X166925463Y-90074587D02*
G75*
G03*
X166000000Y-92308766I2234137J-2234213D01*
G01*
X121935424Y-90747169D02*
G75*
G03*
X122000000Y-90591308I-155824J155869D01*
G01*
X166211062Y-80685710D02*
G75*
G03*
X165762659Y-80500000I-448362J-448390D01*
G01*
D26*
X167675438Y-86500076D02*
G75*
G03*
X167850876Y-86324562I-38J175476D01*
G01*
D25*
X137999992Y-105125000D02*
G75*
G03*
X138265166Y-105765164I905308J0D01*
G01*
X139116123Y-111883890D02*
G75*
G03*
X140000000Y-109750000I-2133923J2133890D01*
G01*
X138800013Y-112200013D02*
G75*
G03*
X137600000Y-115097056I2897087J-2897087D01*
G01*
X152499957Y-55850000D02*
G75*
G03*
X152252512Y-55747487I-144957J0D01*
G01*
X125383884Y-89616117D02*
G75*
G03*
X125383883Y-91383883I883916J-883883D01*
G01*
X128675922Y-80146446D02*
G75*
G03*
X128925899Y-80750000I853478J-54D01*
G01*
X135000000Y-68492500D02*
G75*
G03*
X135507500Y-69000000I507500J0D01*
G01*
D26*
X127500000Y-93249985D02*
G75*
G03*
X127926776Y-93073223I0J603585D01*
G01*
D25*
X164450000Y-72740000D02*
G75*
G03*
X164210000Y-72500000I-240000J0D01*
G01*
X149500017Y-109697665D02*
G75*
G03*
X149912051Y-110692442I1406783J-35D01*
G01*
X141956798Y-119214284D02*
G75*
G03*
X142396377Y-119032217I2J621684D01*
G01*
X138550000Y-124000000D02*
G75*
G03*
X140171751Y-123328248I0J2293500D01*
G01*
X141604664Y-119119634D02*
G75*
G03*
X141833151Y-119214298I228536J228534D01*
G01*
D26*
X149242500Y-108000000D02*
G75*
G03*
X149500000Y-107742500I0J257500D01*
G01*
D25*
X164450076Y-67971762D02*
G75*
G03*
X164221762Y-67743524I-228276J-38D01*
G01*
X141510007Y-119012500D02*
G75*
G03*
X141518838Y-119033838I30193J0D01*
G01*
X140000000Y-108235000D02*
G75*
G03*
X140265000Y-108500000I265000J0D01*
G01*
X164449985Y-78707537D02*
G75*
G03*
X164975000Y-79975000I1792515J37D01*
G01*
D26*
X128925913Y-80749986D02*
G75*
G03*
X129529452Y-81000000I603587J603586D01*
G01*
D25*
X149500000Y-108257500D02*
G75*
G03*
X149242500Y-108000000I-257500J0D01*
G01*
X140000001Y-108000000D02*
G75*
G03*
X139646445Y-107146447I-1207101J0D01*
G01*
X152499992Y-55875000D02*
G75*
G03*
X152765166Y-56515164I905308J0D01*
G01*
X137999988Y-104750000D02*
G75*
G03*
X137469669Y-103469669I-1810688J0D01*
G01*
X142032270Y-119396430D02*
G75*
G03*
X141956798Y-119214298I-75470J75430D01*
G01*
X167850800Y-86675438D02*
G75*
G03*
X167675438Y-86500000I-175400J38D01*
G01*
X165314296Y-80314248D02*
G75*
G03*
X165762659Y-80500000I448404J448348D01*
G01*
X127073213Y-93073233D02*
G75*
G03*
X127500000Y-93250000I426787J426833D01*
G01*
X152252518Y-55747493D02*
G75*
G03*
X152500000Y-55150000I-597518J597493D01*
G01*
X150118081Y-111310525D02*
G75*
G03*
X150118075Y-110898468I-206081J206025D01*
G01*
X125383890Y-91383876D02*
G75*
G03*
X123250000Y-90500000I-2133890J-2133924D01*
G01*
X127082098Y-87917886D02*
G75*
G03*
X128675899Y-84070137I-3847798J3847786D01*
G01*
X162753963Y-93999960D02*
G75*
G03*
X158906208Y-95593793I37J-5441540D01*
G01*
D26*
%TO.N,LED_IN*%
X144251646Y-54965618D02*
X143868014Y-54581986D01*
X144450000Y-55444486D02*
X144450000Y-55725000D01*
X142462975Y-54000000D02*
X139000000Y-54000000D01*
X144450015Y-55444486D02*
G75*
G03*
X144251645Y-54965619I-677215J-14D01*
G01*
X143868021Y-54581979D02*
G75*
G03*
X142462975Y-54000000I-1405021J-1405021D01*
G01*
%TO.N,LED_OUT*%
X133826836Y-61077158D02*
X132296798Y-62607197D01*
X134500000Y-59451997D02*
X134500000Y-58500000D01*
X133826833Y-61077155D02*
G75*
G03*
X134500000Y-59451997I-1625133J1625155D01*
G01*
%TO.N,Net-(LED1-DOU)*%
X154616116Y-53616116D02*
X152676776Y-51676776D01*
X156383883Y-57883883D02*
X162000000Y-63500000D01*
X155500010Y-55750000D02*
G75*
G03*
X156383883Y-57883883I3017790J0D01*
G01*
X155499990Y-55750000D02*
G75*
G03*
X154616116Y-53616116I-3017790J0D01*
G01*
%TO.N,Net-(LED1-DIN)*%
X144026355Y-57473639D02*
X143973641Y-57526352D01*
X143267576Y-58232420D02*
X143263671Y-58236327D01*
X147600000Y-56055285D02*
X147600000Y-54859007D01*
X143894571Y-57605422D02*
X143973641Y-57526352D01*
X144184496Y-57315502D02*
X144210853Y-57289146D01*
X144184496Y-57315502D02*
X144131782Y-57368214D01*
X144079068Y-57420926D02*
X144131782Y-57368214D01*
X142646446Y-58500000D02*
X139500000Y-58500000D01*
X143255859Y-58244139D02*
X143259765Y-58240233D01*
X143251953Y-58248046D02*
X143250000Y-58250000D01*
X143289061Y-58210936D02*
X143273436Y-58226561D01*
X143255859Y-58244139D02*
X143251953Y-58248046D01*
X143263671Y-58236327D02*
X143259765Y-58240233D01*
X144079068Y-57420926D02*
X144026355Y-57473639D01*
X143683718Y-57816275D02*
X143289061Y-58210936D01*
X143267576Y-58232420D02*
X143273436Y-58226561D01*
X145180514Y-56887500D02*
X146767785Y-56887500D01*
X143894571Y-57605422D02*
X143683718Y-57816275D01*
X142646446Y-58500019D02*
G75*
G03*
X143250000Y-58250000I-46J853619D01*
G01*
X145180514Y-56887508D02*
G75*
G03*
X144210854Y-57289147I-14J-1371292D01*
G01*
X147356254Y-56643754D02*
G75*
G03*
X147600000Y-56055285I-588454J588454D01*
G01*
X146767785Y-56887493D02*
G75*
G03*
X147356249Y-56643749I15J832193D01*
G01*
D25*
%TO.N,Net-(LED2-DOU)*%
X167000000Y-66619114D02*
X167000000Y-77500000D01*
X167153942Y-66247466D02*
X167307884Y-66093524D01*
X167153933Y-66247457D02*
G75*
G03*
X167000000Y-66619114I371667J-371643D01*
G01*
%TO.N,Net-(LED3-DOU)*%
X170427179Y-82426082D02*
X171100742Y-81752520D01*
X169753617Y-84052206D02*
X169753617Y-90850341D01*
X170427177Y-82426080D02*
G75*
G03*
X169753617Y-84052206I1626123J-1626120D01*
G01*
%TO.N,Net-(LED4-DOU)*%
X164226016Y-96527947D02*
X168121199Y-96527947D01*
X160378260Y-98121739D02*
X152000000Y-106500000D01*
X164226016Y-96527960D02*
G75*
G03*
X160378261Y-98121740I-16J-5441540D01*
G01*
%TO.N,Net-(LED5-DOU)*%
X142500000Y-123579123D02*
X142500000Y-124000000D01*
X142797604Y-122860641D02*
X153425086Y-112233160D01*
X142797590Y-122860627D02*
G75*
G03*
X142500000Y-123579123I718510J-718473D01*
G01*
%TO.N,Net-(LED6-DOU)*%
X136786468Y-111167822D02*
X137572937Y-110381354D01*
X136000000Y-113066525D02*
X136000000Y-124368629D01*
X137600000Y-127200000D02*
X137600000Y-127300000D01*
X136800000Y-126300000D02*
X137529289Y-127029289D01*
X137600006Y-127200000D02*
G75*
G03*
X137529289Y-127029289I-241406J0D01*
G01*
X136786450Y-111167804D02*
G75*
G03*
X136000000Y-113066525I1898750J-1898696D01*
G01*
X135999988Y-124368629D02*
G75*
G03*
X136800000Y-126300000I2731412J29D01*
G01*
%TO.N,Net-(LED7-DOU)*%
X134040985Y-102641322D02*
X125453324Y-94053661D01*
X134712557Y-104262640D02*
X134712557Y-105212386D01*
X134712538Y-104262640D02*
G75*
G03*
X134040985Y-102641322I-2292838J40D01*
G01*
%TO.N,Net-(LED8-DOU)*%
X118135811Y-92535474D02*
X119546676Y-93946339D01*
X125250000Y-83000000D02*
X126500000Y-83000000D01*
X123116116Y-83883883D02*
X121920765Y-85079234D01*
X118000000Y-92449831D02*
X118000000Y-91099956D01*
X118048387Y-90990245D02*
X120479234Y-88559398D01*
X118048376Y-90990234D02*
G75*
G03*
X118013173Y-91040536I125024J-124966D01*
G01*
X118013152Y-91040526D02*
G75*
G03*
X118000000Y-91099956I127448J-59374D01*
G01*
X121920767Y-85079236D02*
G75*
G03*
X121200000Y-86819316I1740033J-1740064D01*
G01*
X120479216Y-88559380D02*
G75*
G03*
X121200000Y-86819316I-1740016J1740080D01*
G01*
X118135823Y-92535462D02*
G75*
G03*
X118050168Y-92500000I-85623J-85638D01*
G01*
X118000000Y-92449831D02*
G75*
G03*
X118050168Y-92500000I50200J31D01*
G01*
X125250000Y-83000009D02*
G75*
G03*
X123116116Y-83883883I0J-3017791D01*
G01*
%TO.N,Net-(LED10-DIN)*%
X131610202Y-70731551D02*
X125574914Y-76766840D01*
X132189476Y-69333061D02*
X132189476Y-68513845D01*
X131610224Y-70731573D02*
G75*
G03*
X132189476Y-69333061I-1398524J1398473D01*
G01*
%TD*%
%TA.AperFunction,Conductor*%
%TO.N,GND*%
G36*
X150057623Y-47324888D02*
G01*
X150063185Y-47325020D01*
X150063186Y-47325021D01*
X150063186Y-47325020D01*
X150086696Y-47325583D01*
X150087653Y-47325412D01*
X150724541Y-47336681D01*
X150728834Y-47336834D01*
X151385665Y-47371817D01*
X151389926Y-47372120D01*
X152044177Y-47430393D01*
X152048509Y-47430857D01*
X152699934Y-47512389D01*
X152704289Y-47513013D01*
X153352543Y-47617791D01*
X153356842Y-47618564D01*
X154001771Y-47746577D01*
X154006013Y-47747498D01*
X154631453Y-47894951D01*
X154647418Y-47898715D01*
X154651686Y-47899801D01*
X155278670Y-48071335D01*
X155289139Y-48074199D01*
X155293338Y-48075428D01*
X155926689Y-48273004D01*
X155930756Y-48274351D01*
X156491147Y-48471006D01*
X156559797Y-48495097D01*
X156563843Y-48496597D01*
X156949246Y-48647102D01*
X157188338Y-48740472D01*
X157192258Y-48742081D01*
X157811860Y-49009091D01*
X157815676Y-49010814D01*
X158430093Y-49300910D01*
X158430184Y-49300953D01*
X158433940Y-49302805D01*
X159025357Y-49606930D01*
X159043013Y-49616009D01*
X159046613Y-49617936D01*
X159650215Y-49954306D01*
X159653679Y-49956313D01*
X160251322Y-50315703D01*
X160254702Y-50317811D01*
X160825127Y-50686608D01*
X160846246Y-50700262D01*
X160849557Y-50702479D01*
X161434599Y-51107961D01*
X161437775Y-51110237D01*
X162016247Y-51538760D01*
X162019309Y-51541103D01*
X162590796Y-51992632D01*
X162593714Y-51995011D01*
X163158060Y-52469592D01*
X163160871Y-52472028D01*
X163275884Y-52574792D01*
X163717725Y-52969574D01*
X163720357Y-52971996D01*
X164269639Y-53492515D01*
X164272212Y-53495025D01*
X164813391Y-54038493D01*
X164815832Y-54041015D01*
X165348843Y-54607475D01*
X165351171Y-54610018D01*
X165875612Y-55199381D01*
X165877813Y-55201923D01*
X166393568Y-55814176D01*
X166395666Y-55816736D01*
X166902381Y-56451924D01*
X166904362Y-56454475D01*
X167401832Y-57112518D01*
X167403716Y-57115078D01*
X167891585Y-57796025D01*
X167893358Y-57798565D01*
X168371438Y-58502333D01*
X168373118Y-58504873D01*
X168841089Y-59231545D01*
X168842656Y-59234043D01*
X168881647Y-59297873D01*
X169293134Y-59971500D01*
X169300422Y-59983430D01*
X169301898Y-59985912D01*
X169749233Y-60758084D01*
X169750625Y-60760549D01*
X170187307Y-61555649D01*
X170188605Y-61558077D01*
X170453028Y-62065936D01*
X170608465Y-62364473D01*
X170614437Y-62375942D01*
X170615657Y-62378348D01*
X171011822Y-63181445D01*
X171030377Y-63219058D01*
X171031522Y-63221444D01*
X171434788Y-64084915D01*
X171435855Y-64087263D01*
X171827510Y-64973496D01*
X171828509Y-64975819D01*
X172208381Y-65885098D01*
X172209314Y-65887398D01*
X172576895Y-66819270D01*
X172577756Y-66821516D01*
X172933109Y-67776241D01*
X172933916Y-67778475D01*
X173276624Y-68756114D01*
X173277369Y-68758302D01*
X173607273Y-69758789D01*
X173607964Y-69760952D01*
X173924692Y-70784085D01*
X173925327Y-70786204D01*
X174228816Y-71832293D01*
X174229406Y-71834393D01*
X174519244Y-72903327D01*
X174519783Y-72905385D01*
X174795761Y-73997020D01*
X174796254Y-73999042D01*
X175058167Y-75113471D01*
X175058619Y-75115467D01*
X175306195Y-76252815D01*
X175306602Y-76254762D01*
X175539712Y-77414919D01*
X175540084Y-77416849D01*
X175758342Y-78599898D01*
X175758676Y-78601791D01*
X175961851Y-79807566D01*
X175962151Y-79809431D01*
X176149956Y-81037893D01*
X176150221Y-81039715D01*
X176322590Y-82291339D01*
X176322823Y-82293132D01*
X176479386Y-83567209D01*
X176479591Y-83568978D01*
X176620110Y-84866102D01*
X176620285Y-84867836D01*
X176744528Y-86187766D01*
X176744676Y-86189466D01*
X176852430Y-87531958D01*
X176852554Y-87533635D01*
X176943541Y-88899143D01*
X176943640Y-88900794D01*
X177017556Y-90289109D01*
X177017631Y-90290721D01*
X177074365Y-91701885D01*
X177074419Y-91703472D01*
X177113678Y-93137450D01*
X177113711Y-93139016D01*
X177135182Y-94595204D01*
X177135097Y-94601949D01*
X177124196Y-94876625D01*
X177123416Y-94886442D01*
X177091179Y-95155828D01*
X177089657Y-95165370D01*
X177036433Y-95431970D01*
X177034247Y-95441105D01*
X176960446Y-95704875D01*
X176957686Y-95713509D01*
X176863608Y-95974527D01*
X176860397Y-95982550D01*
X176746406Y-96240829D01*
X176742857Y-96248200D01*
X176609339Y-96503652D01*
X176605564Y-96510359D01*
X176452948Y-96762837D01*
X176449032Y-96768908D01*
X176277612Y-97018414D01*
X176273645Y-97023866D01*
X176083825Y-97270297D01*
X176079850Y-97275194D01*
X175872007Y-97518365D01*
X175868125Y-97522696D01*
X175643712Y-97761600D01*
X175638020Y-97767280D01*
X175135416Y-98237199D01*
X175128278Y-98243380D01*
X174561984Y-98697247D01*
X174555479Y-98702120D01*
X173926425Y-99141853D01*
X173920496Y-99145749D01*
X173229495Y-99572131D01*
X173224109Y-99575271D01*
X172472989Y-99988125D01*
X172468063Y-99990690D01*
X171658709Y-100389451D01*
X171654222Y-100391552D01*
X170788437Y-100775936D01*
X170784313Y-100777678D01*
X169863790Y-101147182D01*
X169860040Y-101148617D01*
X168886657Y-101503199D01*
X168883194Y-101504403D01*
X167858650Y-101843658D01*
X167855819Y-101844558D01*
X167078132Y-102081562D01*
X167075846Y-102082235D01*
X166272554Y-102310266D01*
X166269346Y-102311130D01*
X164587166Y-102740307D01*
X164583223Y-102741245D01*
X162808608Y-103132710D01*
X162804982Y-103133453D01*
X160961493Y-103482766D01*
X160954592Y-103483020D01*
X160947218Y-103485075D01*
X160942553Y-103486190D01*
X160942420Y-103486286D01*
X160942276Y-103486517D01*
X160941526Y-103491065D01*
X160939403Y-103501568D01*
X160939596Y-103509367D01*
X160908217Y-103724737D01*
X160908144Y-103725232D01*
X160875022Y-103946303D01*
X160874954Y-103946756D01*
X160840943Y-104168178D01*
X160840850Y-104168773D01*
X160805615Y-104390966D01*
X160805561Y-104391299D01*
X160788078Y-104499643D01*
X160769622Y-104614020D01*
X160769538Y-104614530D01*
X160732318Y-104837545D01*
X160732253Y-104837934D01*
X160694230Y-105061380D01*
X160694163Y-105061767D01*
X160655341Y-105285613D01*
X160655242Y-105286175D01*
X160615349Y-105510074D01*
X160615263Y-105510553D01*
X160574314Y-105735268D01*
X160574229Y-105735730D01*
X160541767Y-105910125D01*
X160532426Y-105960309D01*
X160532343Y-105960750D01*
X160489565Y-106185705D01*
X160489479Y-106186152D01*
X160445772Y-106411482D01*
X160445691Y-106411899D01*
X160401140Y-106637443D01*
X160401009Y-106638095D01*
X160355187Y-106863706D01*
X160355130Y-106863984D01*
X160308761Y-107089641D01*
X160308646Y-107090194D01*
X160261136Y-107316170D01*
X160261027Y-107316683D01*
X160212518Y-107542661D01*
X160212429Y-107543071D01*
X160163134Y-107768983D01*
X160163041Y-107769408D01*
X160112836Y-107995675D01*
X160112714Y-107996217D01*
X160091793Y-108088549D01*
X160061490Y-108222286D01*
X160040497Y-108313455D01*
X160009331Y-108448806D01*
X160009205Y-108449346D01*
X159956080Y-108675426D01*
X159955996Y-108675780D01*
X159902297Y-108901331D01*
X159902146Y-108901959D01*
X159847169Y-109127654D01*
X159847083Y-109128006D01*
X159799261Y-109321866D01*
X159791338Y-109353983D01*
X159791211Y-109354491D01*
X159734571Y-109579954D01*
X159734492Y-109580267D01*
X159677197Y-109805852D01*
X159677017Y-109806551D01*
X159618472Y-110031557D01*
X159618391Y-110031870D01*
X159559141Y-110257176D01*
X159559037Y-110257567D01*
X159498934Y-110482403D01*
X159498779Y-110482975D01*
X159437713Y-110707113D01*
X159437594Y-110707549D01*
X159375572Y-110931970D01*
X159375446Y-110932421D01*
X159312662Y-111156306D01*
X159312533Y-111156763D01*
X159248854Y-111380536D01*
X159248717Y-111381014D01*
X159184242Y-111604180D01*
X159184115Y-111604616D01*
X159118883Y-111827341D01*
X159118736Y-111827840D01*
X159052568Y-112050295D01*
X159052408Y-112050829D01*
X158985248Y-112272964D01*
X158985117Y-112273395D01*
X158917245Y-112494976D01*
X158917106Y-112495426D01*
X158848460Y-112716528D01*
X158848319Y-112716979D01*
X158778902Y-112937594D01*
X158778698Y-112938236D01*
X158708196Y-113158119D01*
X158708082Y-113158473D01*
X158636851Y-113378361D01*
X158636678Y-113378891D01*
X158564654Y-113597856D01*
X158564654Y-113597857D01*
X158491913Y-113816774D01*
X158491697Y-113817418D01*
X158418029Y-114035133D01*
X158417864Y-114035618D01*
X158343258Y-114253144D01*
X158343124Y-114253532D01*
X158326197Y-114302359D01*
X158267960Y-114470341D01*
X158267808Y-114470775D01*
X158191771Y-114686807D01*
X158191599Y-114687292D01*
X158114830Y-114902546D01*
X158114638Y-114903081D01*
X158036985Y-115117700D01*
X158036795Y-115118223D01*
X158020807Y-115161799D01*
X157958164Y-115332534D01*
X157958033Y-115332889D01*
X157878920Y-115546384D01*
X157878686Y-115547010D01*
X157798699Y-115759344D01*
X157798520Y-115759815D01*
X157717656Y-115971857D01*
X157717479Y-115972319D01*
X157636013Y-116183410D01*
X157635801Y-116183956D01*
X157553459Y-116394351D01*
X157553250Y-116394880D01*
X157470165Y-116604337D01*
X157469972Y-116604821D01*
X157386232Y-116813371D01*
X157385971Y-116814016D01*
X157301176Y-117021812D01*
X157301035Y-117022155D01*
X157215890Y-117229038D01*
X157215626Y-117229675D01*
X157137829Y-117415757D01*
X157129277Y-117436214D01*
X157129149Y-117436519D01*
X157042191Y-117641980D01*
X157042003Y-117642421D01*
X156954549Y-117846847D01*
X156954270Y-117847493D01*
X156865949Y-118050751D01*
X156865704Y-118051310D01*
X156776563Y-118253721D01*
X156776354Y-118254193D01*
X156686505Y-118455931D01*
X156686225Y-118456556D01*
X156595579Y-118657094D01*
X156595385Y-118657522D01*
X156504044Y-118857575D01*
X156503742Y-118858230D01*
X156411611Y-119056948D01*
X156411370Y-119057464D01*
X156318756Y-119254841D01*
X156318456Y-119255478D01*
X156224758Y-119452253D01*
X156224530Y-119452729D01*
X156130251Y-119648571D01*
X156129963Y-119649164D01*
X156083036Y-119745332D01*
X156034894Y-119843990D01*
X156034795Y-119844192D01*
X156003601Y-119907361D01*
X155939121Y-120037934D01*
X155938825Y-120038530D01*
X155842462Y-120231056D01*
X155842172Y-120231631D01*
X155745114Y-120423056D01*
X155744785Y-120423700D01*
X155646704Y-120614374D01*
X155646403Y-120614955D01*
X155547895Y-120804000D01*
X155547627Y-120804512D01*
X155448420Y-120992755D01*
X155448111Y-120993337D01*
X155348199Y-121180498D01*
X155347834Y-121181177D01*
X155247196Y-121366909D01*
X155246885Y-121367479D01*
X155190891Y-121469355D01*
X155145357Y-121552202D01*
X155145071Y-121552719D01*
X155042833Y-121736649D01*
X155042457Y-121737321D01*
X154939572Y-121919738D01*
X154939319Y-121920184D01*
X154836088Y-122101460D01*
X154835652Y-122102220D01*
X154731422Y-122282279D01*
X154731086Y-122282856D01*
X154626224Y-122461779D01*
X154625856Y-122462402D01*
X154520333Y-122640069D01*
X154519916Y-122640766D01*
X154413607Y-122817115D01*
X154413270Y-122817671D01*
X154306341Y-122992962D01*
X154305965Y-122993574D01*
X154198477Y-123167507D01*
X154198050Y-123168192D01*
X154089870Y-123340723D01*
X154089478Y-123341345D01*
X153980547Y-123512807D01*
X153980106Y-123513497D01*
X153870251Y-123683916D01*
X153869884Y-123684480D01*
X153759737Y-123853332D01*
X153759272Y-123854040D01*
X153648345Y-124021576D01*
X153647957Y-124022158D01*
X153536433Y-124188549D01*
X153535913Y-124189319D01*
X153423610Y-124354188D01*
X153423179Y-124354816D01*
X153310150Y-124518579D01*
X153309732Y-124519182D01*
X153196233Y-124681562D01*
X153195717Y-124682294D01*
X153081530Y-124843172D01*
X153081099Y-124843777D01*
X152966258Y-125003540D01*
X152965723Y-125004277D01*
X152850274Y-125162423D01*
X152849790Y-125163082D01*
X152733403Y-125320324D01*
X152732897Y-125321003D01*
X152616248Y-125476368D01*
X152615695Y-125477099D01*
X152498126Y-125631302D01*
X152497750Y-125631792D01*
X152379795Y-125784916D01*
X152379129Y-125785772D01*
X152260410Y-125937129D01*
X152259908Y-125937765D01*
X152140692Y-126087728D01*
X152140114Y-126088451D01*
X152020028Y-126237215D01*
X152019462Y-126237910D01*
X151899040Y-126384903D01*
X151898523Y-126385530D01*
X151777343Y-126531485D01*
X151776725Y-126532224D01*
X151655068Y-126676460D01*
X151654398Y-126677247D01*
X151531912Y-126820033D01*
X151531417Y-126820607D01*
X151408396Y-126962255D01*
X151407766Y-126962974D01*
X151284182Y-127103075D01*
X151283548Y-127103789D01*
X151283395Y-127103960D01*
X151159414Y-127242345D01*
X151158967Y-127242841D01*
X151034229Y-127380231D01*
X151033492Y-127381035D01*
X150983841Y-127434745D01*
X150908251Y-127516515D01*
X150907649Y-127517161D01*
X150781761Y-127651408D01*
X150781085Y-127652123D01*
X150654754Y-127784718D01*
X150654099Y-127785400D01*
X150527007Y-127916772D01*
X150526243Y-127917555D01*
X150398717Y-128047069D01*
X150398109Y-128047682D01*
X150270034Y-128175956D01*
X150269350Y-128176637D01*
X150140536Y-128303658D01*
X150139770Y-128304406D01*
X150010820Y-128429384D01*
X150010079Y-128430096D01*
X149880345Y-128553765D01*
X149879593Y-128554476D01*
X149749247Y-128676669D01*
X149748553Y-128677314D01*
X149617770Y-128798052D01*
X149616956Y-128798798D01*
X149485688Y-128917836D01*
X149485118Y-128918349D01*
X149353376Y-129036171D01*
X149352388Y-129037044D01*
X149219992Y-129152940D01*
X149219369Y-129153482D01*
X149086586Y-129268164D01*
X149085650Y-129268964D01*
X148952302Y-129381841D01*
X148951619Y-129382416D01*
X148817885Y-129493977D01*
X148816959Y-129494742D01*
X148682887Y-129604400D01*
X148682104Y-129605035D01*
X148547265Y-129713503D01*
X148546348Y-129714233D01*
X148411240Y-129820830D01*
X148410513Y-129821399D01*
X148275186Y-129926543D01*
X148274129Y-129927356D01*
X148138068Y-130030744D01*
X148137284Y-130031334D01*
X148000487Y-130133583D01*
X147999681Y-130134180D01*
X147862999Y-130234631D01*
X147862019Y-130235345D01*
X147724770Y-130334160D01*
X147723817Y-130334839D01*
X147662161Y-130378314D01*
X147585998Y-130432018D01*
X147585142Y-130432616D01*
X147447191Y-130528159D01*
X147446235Y-130528814D01*
X147307665Y-130622881D01*
X147306837Y-130623438D01*
X147168092Y-130716002D01*
X147166942Y-130716760D01*
X147027710Y-130807430D01*
X147026875Y-130807970D01*
X146887286Y-130897286D01*
X146886388Y-130897855D01*
X146746581Y-130985631D01*
X146745355Y-130986390D01*
X146605207Y-131072124D01*
X146604286Y-131072683D01*
X146463365Y-131157216D01*
X146462498Y-131157731D01*
X146321728Y-131240624D01*
X146320492Y-131241342D01*
X146179269Y-131322325D01*
X146178435Y-131322799D01*
X146036986Y-131402463D01*
X146035838Y-131403101D01*
X145894059Y-131480985D01*
X145892995Y-131481563D01*
X145750986Y-131557777D01*
X145749908Y-131558349D01*
X145607584Y-131632938D01*
X145606611Y-131633442D01*
X145464084Y-131706539D01*
X145462829Y-131707174D01*
X145364361Y-131756272D01*
X145320074Y-131778354D01*
X145319111Y-131778829D01*
X145175877Y-131848707D01*
X145174717Y-131849265D01*
X145031582Y-131917264D01*
X145030440Y-131917800D01*
X144886948Y-131984187D01*
X144885822Y-131984701D01*
X144742186Y-132049422D01*
X144741184Y-132049868D01*
X144597366Y-132113147D01*
X144596055Y-132113715D01*
X144452101Y-132175084D01*
X144450965Y-132175562D01*
X144306890Y-132235297D01*
X144305817Y-132235736D01*
X144161523Y-132293988D01*
X144160281Y-132294482D01*
X144158625Y-132295130D01*
X144043397Y-132340209D01*
X144015862Y-132350981D01*
X144014520Y-132351496D01*
X143869865Y-132406163D01*
X143868863Y-132406537D01*
X143748134Y-132450921D01*
X143724240Y-132459705D01*
X143723084Y-132460123D01*
X143578382Y-132511696D01*
X143576998Y-132512180D01*
X143432361Y-132561811D01*
X143431207Y-132562201D01*
X143285997Y-132610440D01*
X143284830Y-132610821D01*
X143140096Y-132657315D01*
X143138775Y-132657731D01*
X142993901Y-132702491D01*
X142992734Y-132702846D01*
X142847595Y-132746129D01*
X142846149Y-132746550D01*
X142701266Y-132787847D01*
X142700150Y-132788160D01*
X142555120Y-132828037D01*
X142553803Y-132828391D01*
X142408909Y-132866522D01*
X142407464Y-132866893D01*
X142262522Y-132903178D01*
X142261338Y-132903468D01*
X142116358Y-132938251D01*
X142114997Y-132938569D01*
X141970279Y-132971477D01*
X141969157Y-132971726D01*
X141824389Y-133003236D01*
X141822895Y-133003552D01*
X141678298Y-133033165D01*
X141676968Y-133033430D01*
X141532400Y-133061393D01*
X141531173Y-133061623D01*
X141386655Y-133088070D01*
X141385237Y-133088321D01*
X141241016Y-133112986D01*
X141239625Y-133113216D01*
X141095487Y-133136183D01*
X141093949Y-133136418D01*
X140950030Y-133157502D01*
X140948832Y-133157672D01*
X140804992Y-133177313D01*
X140803575Y-133177498D01*
X140660129Y-133195404D01*
X140658557Y-133195590D01*
X140515086Y-133211642D01*
X140513848Y-133211774D01*
X140370964Y-133226309D01*
X140369365Y-133226462D01*
X140226334Y-133239142D01*
X140224985Y-133239254D01*
X140082371Y-133250330D01*
X140080520Y-133250460D01*
X139938189Y-133259373D01*
X139937342Y-133259423D01*
X139795080Y-133267355D01*
X139793365Y-133267438D01*
X139651899Y-133273362D01*
X139650180Y-133273422D01*
X139508976Y-133277374D01*
X139507247Y-133277411D01*
X139365992Y-133279393D01*
X139365124Y-133279402D01*
X139224272Y-133280393D01*
X139222527Y-133280393D01*
X139081807Y-133279402D01*
X139080927Y-133279393D01*
X138940766Y-133277411D01*
X138939008Y-133277373D01*
X138799558Y-133273423D01*
X138797782Y-133273360D01*
X138659048Y-133267439D01*
X138657276Y-133267351D01*
X138518238Y-133259423D01*
X138517325Y-133259367D01*
X138379205Y-133250469D01*
X138377070Y-133250313D01*
X138239488Y-133239062D01*
X138238208Y-133238951D01*
X138100786Y-133226278D01*
X138099086Y-133226109D01*
X137962258Y-133211587D01*
X137960691Y-133211411D01*
X137824420Y-133195193D01*
X137822891Y-133195001D01*
X137686963Y-133177108D01*
X137685372Y-133176888D01*
X137550393Y-133157338D01*
X137548657Y-133157075D01*
X137414033Y-133135626D01*
X137412471Y-133135366D01*
X137278363Y-133112240D01*
X137276784Y-133111958D01*
X137143231Y-133087145D01*
X137141737Y-133086858D01*
X137008857Y-133060479D01*
X137007082Y-133060113D01*
X136874984Y-133031877D01*
X136873399Y-133031527D01*
X136741834Y-133001598D01*
X136740209Y-133001217D01*
X136609458Y-132969617D01*
X136607892Y-132969228D01*
X136477596Y-132935937D01*
X136475797Y-132935463D01*
X136346340Y-132900310D01*
X136345011Y-132899941D01*
X136216010Y-132863366D01*
X136214262Y-132862856D01*
X136086214Y-132824511D01*
X136084393Y-132823951D01*
X135956998Y-132783659D01*
X135955510Y-132783178D01*
X135829003Y-132741404D01*
X135827211Y-132740797D01*
X135701591Y-132697180D01*
X135700028Y-132696625D01*
X135575022Y-132651338D01*
X135573406Y-132650740D01*
X135449197Y-132603780D01*
X135447443Y-132603102D01*
X135324232Y-132554370D01*
X135322579Y-132553702D01*
X135199963Y-132503156D01*
X135198409Y-132502503D01*
X135076681Y-132450375D01*
X135075090Y-132449680D01*
X134954198Y-132395895D01*
X134952565Y-132395155D01*
X134832847Y-132339734D01*
X134831287Y-132338998D01*
X134712067Y-132281657D01*
X134710323Y-132280801D01*
X134592480Y-132221831D01*
X134591077Y-132221117D01*
X134473691Y-132160500D01*
X134471996Y-132159609D01*
X134355893Y-132097365D01*
X134354325Y-132096509D01*
X134239217Y-132032647D01*
X134237523Y-132031690D01*
X134123269Y-131965937D01*
X134121642Y-131964984D01*
X134041619Y-131917264D01*
X134008467Y-131897494D01*
X134007079Y-131896653D01*
X133894772Y-131827671D01*
X133893136Y-131826648D01*
X133781907Y-131755847D01*
X133780369Y-131754852D01*
X133670072Y-131682241D01*
X133668675Y-131681306D01*
X133559640Y-131607202D01*
X133558182Y-131606196D01*
X133450127Y-131530479D01*
X133448557Y-131529361D01*
X133381754Y-131480985D01*
X133341703Y-131451982D01*
X133340090Y-131450793D01*
X133275589Y-131402463D01*
X133234260Y-131371495D01*
X133232935Y-131370488D01*
X133128135Y-131289743D01*
X133126465Y-131288433D01*
X133023367Y-131206150D01*
X133022948Y-131205816D01*
X133021676Y-131204787D01*
X132919304Y-131120842D01*
X132917727Y-131119527D01*
X132816367Y-131033565D01*
X132815091Y-131032467D01*
X132715013Y-130945022D01*
X132713721Y-130943876D01*
X132614732Y-130854845D01*
X132613189Y-130853434D01*
X132515411Y-130762464D01*
X132514184Y-130761306D01*
X132417594Y-130668958D01*
X132416292Y-130667695D01*
X132371905Y-130623996D01*
X132320798Y-130573681D01*
X132319517Y-130572400D01*
X132225488Y-130476891D01*
X132224279Y-130475644D01*
X132182111Y-130431509D01*
X132131197Y-130378219D01*
X132129920Y-130376862D01*
X132038413Y-130278157D01*
X132037175Y-130276801D01*
X131946714Y-130176279D01*
X131945450Y-130174853D01*
X131856353Y-130072733D01*
X131856352Y-130072732D01*
X131856285Y-130072654D01*
X131855235Y-130071433D01*
X131767329Y-129967723D01*
X131766198Y-129966368D01*
X131734508Y-129927857D01*
X131679590Y-129861117D01*
X131678431Y-129859687D01*
X131648225Y-129821834D01*
X131593006Y-129752634D01*
X131591964Y-129751309D01*
X131507907Y-129642982D01*
X131506780Y-129641508D01*
X131479714Y-129605528D01*
X131424008Y-129531475D01*
X131422919Y-129530003D01*
X131397440Y-129495020D01*
X131341690Y-129418473D01*
X131340781Y-129417209D01*
X131316469Y-129382897D01*
X131260516Y-129303928D01*
X131259440Y-129302384D01*
X131180806Y-129187739D01*
X131179825Y-129186285D01*
X131102457Y-129069885D01*
X131101568Y-129068529D01*
X131025458Y-128950708D01*
X131024662Y-128949459D01*
X130949694Y-128830083D01*
X130948724Y-128828510D01*
X130875457Y-128707385D01*
X130874789Y-128706266D01*
X130802616Y-128583870D01*
X130801709Y-128582306D01*
X130731081Y-128458438D01*
X130730260Y-128456975D01*
X130660914Y-128331438D01*
X130660105Y-128329949D01*
X130619740Y-128254457D01*
X130592318Y-128203170D01*
X130591632Y-128201868D01*
X130524935Y-128073324D01*
X130524176Y-128071838D01*
X130458815Y-127941610D01*
X130458197Y-127940357D01*
X130394314Y-127809029D01*
X130393639Y-127807620D01*
X130331110Y-127674848D01*
X130330367Y-127673240D01*
X130320464Y-127651408D01*
X130269448Y-127538942D01*
X130268906Y-127537728D01*
X130209039Y-127401740D01*
X130208466Y-127400415D01*
X130150091Y-127262948D01*
X130149597Y-127261767D01*
X130092438Y-127122977D01*
X130091841Y-127121501D01*
X130084008Y-127101765D01*
X130036246Y-126981427D01*
X130035713Y-126980060D01*
X130028898Y-126962255D01*
X129981437Y-126838266D01*
X129981005Y-126837118D01*
X129928009Y-126694078D01*
X129927547Y-126692809D01*
X129876108Y-126548498D01*
X129875612Y-126547078D01*
X129825560Y-126401084D01*
X129825182Y-126399964D01*
X129799209Y-126321783D01*
X129776278Y-126252759D01*
X129775861Y-126251476D01*
X129728449Y-126102692D01*
X129728134Y-126101685D01*
X129681974Y-125951491D01*
X129681629Y-125950350D01*
X129636866Y-125798550D01*
X129636630Y-125797735D01*
X129593145Y-125644841D01*
X129592830Y-125643708D01*
X129550866Y-125489646D01*
X129550548Y-125488455D01*
X129547387Y-125476368D01*
X129509774Y-125332521D01*
X129509538Y-125331600D01*
X129486642Y-125240818D01*
X129470015Y-125174897D01*
X129469701Y-125173616D01*
X129467224Y-125163315D01*
X129431743Y-125015735D01*
X129431432Y-125014413D01*
X129426775Y-124994063D01*
X129394859Y-124854606D01*
X129394688Y-124853840D01*
X129392525Y-124844011D01*
X129359324Y-124693112D01*
X129359085Y-124692001D01*
X129358210Y-124687834D01*
X129324952Y-124529496D01*
X129324817Y-124528841D01*
X129292001Y-124365159D01*
X129291778Y-124364013D01*
X129289975Y-124354536D01*
X129260463Y-124199388D01*
X129260305Y-124198538D01*
X129258667Y-124189562D01*
X129229992Y-124032463D01*
X129229801Y-124031384D01*
X129228105Y-124021576D01*
X129200839Y-123863879D01*
X129200714Y-123863137D01*
X129173078Y-123693922D01*
X129173020Y-123693556D01*
X129146576Y-123523853D01*
X129146415Y-123522788D01*
X129121521Y-123351408D01*
X129121417Y-123350670D01*
X129097578Y-123178628D01*
X129097440Y-123177605D01*
X129074800Y-123003566D01*
X129074747Y-123003147D01*
X129053309Y-122828141D01*
X129053238Y-122827538D01*
X129032956Y-122651565D01*
X129032865Y-122650751D01*
X129014019Y-122473248D01*
X129013942Y-122472499D01*
X129012957Y-122462639D01*
X128996118Y-122294148D01*
X128996050Y-122293441D01*
X128995101Y-122283136D01*
X128979515Y-122113840D01*
X128979473Y-122113366D01*
X128964190Y-121931959D01*
X128949929Y-121749761D01*
X128949867Y-121748921D01*
X128949047Y-121737420D01*
X128936805Y-121565756D01*
X128936775Y-121565307D01*
X128924893Y-121380569D01*
X128913914Y-121195138D01*
X128913885Y-121194632D01*
X128904197Y-121007727D01*
X128895606Y-120819619D01*
X128895588Y-120819192D01*
X128888102Y-120630343D01*
X128888080Y-120629732D01*
X128881503Y-120440185D01*
X128875997Y-120248487D01*
X128871599Y-120056212D01*
X128868302Y-119863078D01*
X128868296Y-119862687D01*
X128865902Y-119668616D01*
X128865898Y-119668201D01*
X128864701Y-119473286D01*
X128864700Y-119472526D01*
X128864700Y-119276728D01*
X128864702Y-119275973D01*
X128864978Y-119230588D01*
X128865901Y-119079104D01*
X128865900Y-119079103D01*
X128867501Y-118880605D01*
X128869901Y-118681407D01*
X128873202Y-118481009D01*
X128877402Y-118279811D01*
X128882698Y-118077984D01*
X128888803Y-117874816D01*
X128888802Y-117874815D01*
X128895703Y-117671118D01*
X128903190Y-117466661D01*
X128903214Y-117466056D01*
X128911804Y-117260722D01*
X128911803Y-117260721D01*
X128921097Y-117054474D01*
X128931304Y-116847025D01*
X128942097Y-116639271D01*
X128953605Y-116430129D01*
X128953604Y-116430128D01*
X128953622Y-116429824D01*
X128966006Y-116220531D01*
X128966062Y-116220534D01*
X128966021Y-116220261D01*
X128978897Y-116010467D01*
X128992495Y-115799373D01*
X129006806Y-115587335D01*
X129006806Y-115587334D01*
X129006887Y-115587339D01*
X129006832Y-115586956D01*
X129021806Y-115374836D01*
X129037106Y-115161637D01*
X129053297Y-114947760D01*
X129069997Y-114733359D01*
X129070050Y-114733363D01*
X129070016Y-114733115D01*
X129087206Y-114517941D01*
X129104897Y-114302357D01*
X129123207Y-114085643D01*
X129142007Y-113868745D01*
X129142006Y-113868743D01*
X129142030Y-113868468D01*
X129161307Y-113651146D01*
X129161306Y-113651145D01*
X129161341Y-113650757D01*
X129161354Y-113650608D01*
X129163284Y-113629151D01*
X129180907Y-113433146D01*
X129200907Y-113214447D01*
X129200906Y-113214446D01*
X129221607Y-112995449D01*
X129221606Y-112995448D01*
X129242407Y-112775749D01*
X129242463Y-112775754D01*
X129242431Y-112775495D01*
X129263707Y-112555650D01*
X129285088Y-112335248D01*
X129285145Y-112335253D01*
X129285113Y-112334990D01*
X129306881Y-112115416D01*
X129307018Y-112114052D01*
X129329107Y-111892751D01*
X129351607Y-111670952D01*
X129374187Y-111448950D01*
X129374220Y-111448953D01*
X129374202Y-111448801D01*
X129381162Y-111381183D01*
X129383263Y-111360772D01*
X134425597Y-111360772D01*
X134672478Y-111382371D01*
X134732362Y-111381183D01*
X134870944Y-111342870D01*
X134993111Y-111267068D01*
X135088981Y-111159913D01*
X135150776Y-111030092D01*
X135162344Y-110971327D01*
X135210090Y-110425585D01*
X134512753Y-110364576D01*
X134425597Y-111360772D01*
X129383263Y-111360772D01*
X129397087Y-111226450D01*
X129420208Y-111003654D01*
X129420207Y-111003653D01*
X129440967Y-110805729D01*
X133269574Y-110805729D01*
X133270761Y-110865613D01*
X133309074Y-111004194D01*
X133384878Y-111126364D01*
X133492029Y-111222231D01*
X133621853Y-111284027D01*
X133680616Y-111295595D01*
X133927499Y-111317194D01*
X133927500Y-111317194D01*
X134014656Y-110320999D01*
X133317319Y-110259990D01*
X133269574Y-110805729D01*
X129440967Y-110805729D01*
X129443608Y-110780554D01*
X129443607Y-110780553D01*
X129446530Y-110752696D01*
X129446527Y-110752664D01*
X129451241Y-110707638D01*
X129467008Y-110557053D01*
X129467007Y-110557052D01*
X129490608Y-110333354D01*
X129490607Y-110333353D01*
X129512575Y-110126101D01*
X129515246Y-110100907D01*
X129515248Y-110100888D01*
X129515376Y-110099688D01*
X129538108Y-109885554D01*
X129540149Y-109866479D01*
X134556330Y-109866479D01*
X135253667Y-109927488D01*
X135301413Y-109381750D01*
X135300226Y-109321866D01*
X135261913Y-109183285D01*
X135186109Y-109061115D01*
X135078958Y-108965248D01*
X134949134Y-108903452D01*
X134890372Y-108891884D01*
X134643486Y-108870284D01*
X134556330Y-109866479D01*
X129540149Y-109866479D01*
X129551340Y-109761893D01*
X133360896Y-109761893D01*
X134058233Y-109822902D01*
X134145389Y-108826706D01*
X133898509Y-108805108D01*
X133838625Y-108806296D01*
X133700043Y-108844609D01*
X133577876Y-108920411D01*
X133482006Y-109027566D01*
X133420211Y-109157387D01*
X133408643Y-109216152D01*
X133360896Y-109761893D01*
X129551340Y-109761893D01*
X129562108Y-109661255D01*
X129562107Y-109661254D01*
X129565081Y-109633464D01*
X129565068Y-109633346D01*
X129567608Y-109609417D01*
X129585908Y-109436954D01*
X129609908Y-109212455D01*
X129633908Y-108987854D01*
X129633907Y-108987853D01*
X129636885Y-108959990D01*
X129636877Y-108959927D01*
X129652081Y-108816994D01*
X129658589Y-108755819D01*
X129658593Y-108755783D01*
X129660497Y-108737940D01*
X129681808Y-108538155D01*
X129705808Y-108313455D01*
X129705807Y-108313454D01*
X129705821Y-108313317D01*
X129708774Y-108285674D01*
X129708760Y-108285559D01*
X129729608Y-108088655D01*
X129729607Y-108088654D01*
X129729618Y-108088549D01*
X129732563Y-108060738D01*
X129732562Y-108060729D01*
X129748326Y-107911778D01*
X129756364Y-107835827D01*
X129756364Y-107835822D01*
X129758362Y-107816950D01*
X129777208Y-107638955D01*
X129777207Y-107638953D01*
X129777218Y-107638849D01*
X129779052Y-107621528D01*
X129779046Y-107621367D01*
X129800708Y-107414253D01*
X129800707Y-107414252D01*
X129802541Y-107396725D01*
X129802538Y-107396659D01*
X129824108Y-107189453D01*
X129824107Y-107189451D01*
X129825919Y-107172047D01*
X129825914Y-107171904D01*
X129830560Y-107126790D01*
X129847187Y-106965350D01*
X129847198Y-106965249D01*
X129850793Y-106930453D01*
X129870408Y-106740652D01*
X129870407Y-106740649D01*
X129873116Y-106714439D01*
X129873088Y-106714181D01*
X129893107Y-106516552D01*
X129893106Y-106516551D01*
X129893675Y-106510932D01*
X129895920Y-106488768D01*
X129895919Y-106488763D01*
X129912581Y-106324203D01*
X129912650Y-106324017D01*
X129915786Y-106292548D01*
X129915788Y-106292548D01*
X129938087Y-106068849D01*
X129938088Y-106068848D01*
X129958354Y-105866718D01*
X129958442Y-105866401D01*
X129960517Y-105845152D01*
X129982307Y-105621950D01*
X129982317Y-105621852D01*
X130002285Y-105414828D01*
X130003807Y-105399050D01*
X130003806Y-105399049D01*
X130006452Y-105371626D01*
X130006432Y-105371472D01*
X130020509Y-105223673D01*
X130027632Y-105148892D01*
X130027626Y-105148852D01*
X130044048Y-104975923D01*
X130044102Y-104975727D01*
X130046088Y-104954445D01*
X130046089Y-104954445D01*
X130066807Y-104732448D01*
X130087207Y-104511047D01*
X130087206Y-104511046D01*
X130089708Y-104483898D01*
X130089675Y-104483646D01*
X130107107Y-104290246D01*
X130107106Y-104290245D01*
X130108636Y-104273281D01*
X130108628Y-104273119D01*
X130126707Y-104069746D01*
X130126706Y-104069743D01*
X130128965Y-104044333D01*
X130128942Y-104044132D01*
X130131544Y-104014331D01*
X130145907Y-103849844D01*
X130145906Y-103849843D01*
X130148264Y-103822847D01*
X130148230Y-103822587D01*
X130164607Y-103630544D01*
X130164606Y-103630543D01*
X130164652Y-103629989D01*
X130166925Y-103603343D01*
X130166914Y-103603264D01*
X130183107Y-103411944D01*
X130183106Y-103411943D01*
X130185213Y-103387057D01*
X130185168Y-103386684D01*
X130190674Y-103319268D01*
X130191747Y-103311666D01*
X130191639Y-103311239D01*
X130191484Y-103311032D01*
X130190889Y-103310684D01*
X130183635Y-103309644D01*
X128587023Y-102987516D01*
X128583915Y-102986847D01*
X127046485Y-102635418D01*
X127042980Y-102634563D01*
X125578412Y-102254630D01*
X125574415Y-102253521D01*
X124189989Y-101844495D01*
X124186155Y-101843295D01*
X123162088Y-101504298D01*
X123158614Y-101503090D01*
X122185269Y-101148521D01*
X122181519Y-101147086D01*
X121260995Y-100777582D01*
X121256871Y-100775840D01*
X120391084Y-100391456D01*
X120386602Y-100389358D01*
X119577154Y-99990599D01*
X119572217Y-99988027D01*
X118821164Y-99575156D01*
X118815784Y-99572020D01*
X118124806Y-99145653D01*
X118118885Y-99141762D01*
X117489739Y-98702033D01*
X117483226Y-98697156D01*
X116916911Y-98243274D01*
X116909764Y-98237084D01*
X116407272Y-97767175D01*
X116401610Y-97761525D01*
X116395190Y-97754690D01*
X116323574Y-97678450D01*
X123220411Y-97678450D01*
X123669167Y-97992673D01*
X123721617Y-98021583D01*
X123860786Y-98057693D01*
X124004494Y-98053130D01*
X124141091Y-98008268D01*
X124259520Y-97926735D01*
X124298920Y-97881628D01*
X124441066Y-97678620D01*
X123621915Y-97105045D01*
X123220411Y-97678450D01*
X116323574Y-97678450D01*
X116177154Y-97522575D01*
X116173292Y-97518267D01*
X115965426Y-97275068D01*
X115961455Y-97270175D01*
X115947137Y-97251587D01*
X115813000Y-97077443D01*
X115771654Y-97023765D01*
X115767687Y-97018315D01*
X115764439Y-97013587D01*
X115596244Y-96768775D01*
X115592362Y-96762756D01*
X115517741Y-96639309D01*
X122186018Y-96639309D01*
X122190580Y-96783017D01*
X122235443Y-96919616D01*
X122316972Y-97038042D01*
X122362082Y-97077443D01*
X122810834Y-97391663D01*
X122810835Y-97391663D01*
X123212338Y-96818256D01*
X123212338Y-96818255D01*
X123036981Y-96695469D01*
X123908702Y-96695469D01*
X124727854Y-97269044D01*
X124870005Y-97066033D01*
X124898914Y-97013587D01*
X124935023Y-96874416D01*
X124930461Y-96730708D01*
X124885598Y-96594109D01*
X124804069Y-96475683D01*
X124758959Y-96436282D01*
X124310206Y-96122061D01*
X124310205Y-96122061D01*
X123908702Y-96695468D01*
X123908702Y-96695469D01*
X123036981Y-96695469D01*
X122393186Y-96244679D01*
X122393185Y-96244679D01*
X122251041Y-96447685D01*
X122222127Y-96500140D01*
X122186018Y-96639309D01*
X115517741Y-96639309D01*
X115439727Y-96510248D01*
X115435964Y-96503564D01*
X115302428Y-96248076D01*
X115298903Y-96240750D01*
X115184903Y-95982457D01*
X115181705Y-95974467D01*
X115131475Y-95835104D01*
X122679974Y-95835104D01*
X123499126Y-96408680D01*
X123499127Y-96408680D01*
X123900630Y-95835274D01*
X123900630Y-95835273D01*
X123451879Y-95521055D01*
X123399424Y-95492142D01*
X123260255Y-95456032D01*
X123116547Y-95460595D01*
X122979950Y-95505457D01*
X122861522Y-95586989D01*
X122822125Y-95632093D01*
X122679975Y-95835104D01*
X122679974Y-95835104D01*
X115131475Y-95835104D01*
X115087605Y-95713389D01*
X115084856Y-95704789D01*
X115011048Y-95440994D01*
X115008868Y-95431886D01*
X114955636Y-95165245D01*
X114954122Y-95155748D01*
X114921883Y-94886338D01*
X114921103Y-94876526D01*
X114920612Y-94864143D01*
X114910319Y-94604812D01*
X114910371Y-94593796D01*
X114925706Y-94283835D01*
X114926847Y-94272114D01*
X114971400Y-93966222D01*
X114973451Y-93955481D01*
X115045338Y-93652550D01*
X115048007Y-93643025D01*
X115141094Y-93355671D01*
X115144741Y-93348222D01*
X115145099Y-93346381D01*
X115149019Y-93331308D01*
X115149711Y-93329198D01*
X115150125Y-93320783D01*
X115423376Y-91936576D01*
X115423616Y-91935393D01*
X115618079Y-91008708D01*
X116999434Y-91008708D01*
X116999500Y-91100354D01*
X116999500Y-92345982D01*
X116999436Y-92346673D01*
X116999500Y-92450449D01*
X116999500Y-92506409D01*
X116999530Y-92507013D01*
X116999549Y-92542300D01*
X117008621Y-92593607D01*
X117009878Y-92602648D01*
X117014924Y-92652266D01*
X117021850Y-92674339D01*
X117025641Y-92689864D01*
X117031535Y-92723193D01*
X117071214Y-92832098D01*
X117073019Y-92837425D01*
X117077026Y-92850196D01*
X117080909Y-92858705D01*
X117089912Y-92883416D01*
X117094424Y-92895798D01*
X117186307Y-93054871D01*
X117304397Y-93195588D01*
X117317472Y-93206561D01*
X117445109Y-93313680D01*
X117558806Y-93379355D01*
X117584464Y-93399048D01*
X118164254Y-93978838D01*
X118194382Y-94027827D01*
X118221146Y-94109317D01*
X118302758Y-94227860D01*
X118302759Y-94227861D01*
X118347912Y-94267302D01*
X118569271Y-94422299D01*
X118688618Y-94505866D01*
X118705175Y-94519759D01*
X118875095Y-94689679D01*
X118993268Y-94786036D01*
X119173627Y-94880248D01*
X119237626Y-94898560D01*
X119274632Y-94916197D01*
X119655071Y-95182583D01*
X119707577Y-95211525D01*
X119846886Y-95247671D01*
X119990735Y-95243104D01*
X120127472Y-95198197D01*
X120246017Y-95116584D01*
X120285457Y-95071430D01*
X120856592Y-94255763D01*
X120885535Y-94203257D01*
X120921681Y-94063948D01*
X120917114Y-93920098D01*
X120872206Y-93783362D01*
X120872205Y-93783361D01*
X120872205Y-93783359D01*
X120790593Y-93664817D01*
X120745439Y-93625375D01*
X120371064Y-93363235D01*
X120338650Y-93329895D01*
X120326078Y-93310819D01*
X119036819Y-92021562D01*
X119009939Y-91981334D01*
X119000500Y-91933881D01*
X119000500Y-91504415D01*
X119009939Y-91456962D01*
X119036819Y-91416734D01*
X119556383Y-90897170D01*
X121222574Y-89230978D01*
X121222578Y-89230972D01*
X121226967Y-89226584D01*
X121227265Y-89226252D01*
X121306906Y-89146615D01*
X121522661Y-88883725D01*
X121711610Y-88600953D01*
X121871932Y-88301022D01*
X121962607Y-88082121D01*
X122002083Y-87986822D01*
X122100808Y-87661379D01*
X122123070Y-87549468D01*
X122167161Y-87327821D01*
X122200498Y-86989368D01*
X122200498Y-86935904D01*
X122200500Y-86935894D01*
X122200500Y-86823374D01*
X122200765Y-86815265D01*
X122211643Y-86649276D01*
X122212461Y-86636788D01*
X122214576Y-86620733D01*
X122248674Y-86449308D01*
X122252865Y-86433665D01*
X122309049Y-86268152D01*
X122315248Y-86253186D01*
X122392559Y-86096417D01*
X122400645Y-86082410D01*
X122497769Y-85937056D01*
X122507622Y-85924216D01*
X122625586Y-85789707D01*
X122631096Y-85783823D01*
X122693775Y-85721145D01*
X122693774Y-85721145D01*
X122752357Y-85662562D01*
X122752357Y-85662561D01*
X123821127Y-84593791D01*
X123826146Y-84589046D01*
X123987065Y-84445242D01*
X123997911Y-84436593D01*
X124171079Y-84313725D01*
X124182826Y-84306344D01*
X124368657Y-84203640D01*
X124381164Y-84197617D01*
X124577303Y-84116374D01*
X124590421Y-84111784D01*
X124794433Y-84053010D01*
X124807969Y-84049921D01*
X125017283Y-84014357D01*
X125031078Y-84012803D01*
X125176352Y-84004644D01*
X125246693Y-84000695D01*
X125253645Y-84000500D01*
X126550740Y-84000500D01*
X126550742Y-84000500D01*
X126702438Y-83985074D01*
X126896588Y-83924159D01*
X126996445Y-83868732D01*
X127040256Y-83854237D01*
X127086337Y-83856767D01*
X127098358Y-83859734D01*
X127242276Y-83858592D01*
X127380042Y-83816950D01*
X127483533Y-83749274D01*
X127546236Y-83729162D01*
X127610394Y-83743987D01*
X127657915Y-83789569D01*
X127675399Y-83853054D01*
X127675399Y-84067422D01*
X127675281Y-84072832D01*
X127658733Y-84451786D01*
X127657790Y-84462562D01*
X127608632Y-84835937D01*
X127606754Y-84846590D01*
X127525239Y-85214273D01*
X127522439Y-85224722D01*
X127409190Y-85583896D01*
X127405490Y-85594061D01*
X127261369Y-85941999D01*
X127256797Y-85951803D01*
X127082904Y-86285846D01*
X127077496Y-86295214D01*
X126875145Y-86612842D01*
X126868940Y-86621703D01*
X126639670Y-86920493D01*
X126632716Y-86928780D01*
X126376299Y-87208609D01*
X126372558Y-87212517D01*
X124745951Y-88839125D01*
X124745941Y-88839133D01*
X124745942Y-88839134D01*
X124741964Y-88843111D01*
X124741964Y-88843112D01*
X124689088Y-88895990D01*
X124689087Y-88895989D01*
X124689085Y-88895993D01*
X124678884Y-88906193D01*
X124678884Y-88906194D01*
X124673833Y-88910968D01*
X124512945Y-89054744D01*
X124502074Y-89063414D01*
X124328932Y-89186263D01*
X124317158Y-89193661D01*
X124131354Y-89296350D01*
X124118825Y-89302383D01*
X123922695Y-89383622D01*
X123909570Y-89388215D01*
X123705575Y-89446984D01*
X123692019Y-89450078D01*
X123482728Y-89485638D01*
X123468910Y-89487195D01*
X123253272Y-89499305D01*
X123246319Y-89499500D01*
X122091396Y-89499500D01*
X121995863Y-89499492D01*
X121939274Y-89509466D01*
X121930301Y-89510711D01*
X121888872Y-89514925D01*
X121871620Y-89520337D01*
X121856034Y-89524138D01*
X121807705Y-89532657D01*
X121628162Y-89597995D01*
X121462694Y-89693522D01*
X121316333Y-89816330D01*
X121248549Y-89897113D01*
X121191362Y-89935504D01*
X121156936Y-89936480D01*
X121157088Y-89941240D01*
X121139271Y-89941805D01*
X121139269Y-89941805D01*
X121008391Y-89945960D01*
X120995418Y-89946372D01*
X120858685Y-89991278D01*
X120858684Y-89991278D01*
X120858683Y-89991279D01*
X120740138Y-90072892D01*
X120740137Y-90072893D01*
X120700696Y-90118048D01*
X120129566Y-90933708D01*
X120100619Y-90986219D01*
X120064474Y-91125527D01*
X120069041Y-91269379D01*
X120113949Y-91406116D01*
X120195561Y-91524658D01*
X120195562Y-91524659D01*
X120240715Y-91564100D01*
X120597216Y-91813724D01*
X120611341Y-91823614D01*
X120632227Y-91842060D01*
X120765301Y-91989351D01*
X120890172Y-92081045D01*
X120929313Y-92109787D01*
X121114209Y-92194742D01*
X121114210Y-92194742D01*
X121114212Y-92194743D01*
X121131420Y-92198736D01*
X121174509Y-92217948D01*
X121547874Y-92479381D01*
X121600380Y-92508323D01*
X121739689Y-92544469D01*
X121883538Y-92539902D01*
X122020275Y-92494995D01*
X122138820Y-92413382D01*
X122178260Y-92368228D01*
X122748824Y-91553375D01*
X122793141Y-91514511D01*
X122850398Y-91500500D01*
X123157290Y-91500500D01*
X123246519Y-91500500D01*
X123253471Y-91500695D01*
X123280447Y-91502209D01*
X123468920Y-91512794D01*
X123482719Y-91514348D01*
X123692028Y-91549911D01*
X123705567Y-91553001D01*
X123909580Y-91611776D01*
X123922703Y-91616368D01*
X124118845Y-91697612D01*
X124131338Y-91703628D01*
X124317160Y-91806326D01*
X124328934Y-91813724D01*
X124415507Y-91875150D01*
X124502084Y-91936579D01*
X124512947Y-91945243D01*
X124673698Y-92088896D01*
X124678754Y-92093676D01*
X124750638Y-92165562D01*
X124750653Y-92165574D01*
X125129207Y-92544128D01*
X125159211Y-92592743D01*
X125164236Y-92649650D01*
X125143214Y-92702771D01*
X125100608Y-92740829D01*
X125045461Y-92755746D01*
X125019055Y-92756585D01*
X125009263Y-92756896D01*
X124872530Y-92801802D01*
X124872529Y-92801802D01*
X124872528Y-92801803D01*
X124753983Y-92883416D01*
X124753982Y-92883417D01*
X124714541Y-92928572D01*
X124143411Y-93744232D01*
X124114464Y-93796743D01*
X124078319Y-93936051D01*
X124078319Y-93936052D01*
X124079101Y-93960681D01*
X124082886Y-94079903D01*
X124127794Y-94216640D01*
X124209406Y-94335182D01*
X124254560Y-94374624D01*
X124628935Y-94636764D01*
X124661347Y-94670100D01*
X124673923Y-94689181D01*
X133330073Y-103345331D01*
X133336683Y-103352481D01*
X133451505Y-103486922D01*
X133458889Y-103495567D01*
X133470326Y-103511309D01*
X133566085Y-103667576D01*
X133574918Y-103684913D01*
X133645057Y-103854247D01*
X133651070Y-103872754D01*
X133693851Y-104050961D01*
X133696895Y-104070179D01*
X133711674Y-104258010D01*
X133712056Y-104267737D01*
X133712056Y-104367606D01*
X133712057Y-104367616D01*
X133712057Y-105263128D01*
X133714372Y-105285890D01*
X133727483Y-105414828D01*
X133730474Y-105424360D01*
X133735688Y-105472284D01*
X133696136Y-105924375D01*
X133697324Y-105984323D01*
X133735675Y-106123043D01*
X133811554Y-106245334D01*
X133811555Y-106245335D01*
X133918814Y-106341299D01*
X134048766Y-106403155D01*
X134107590Y-106414735D01*
X135099546Y-106501519D01*
X135159489Y-106500331D01*
X135298207Y-106461980D01*
X135420501Y-106386100D01*
X135516464Y-106278840D01*
X135578321Y-106148889D01*
X135589901Y-106090064D01*
X135630484Y-105626181D01*
X135640060Y-105588096D01*
X135672097Y-105513444D01*
X135713057Y-105314127D01*
X135713057Y-104687784D01*
X135713529Y-104676977D01*
X135716169Y-104646802D01*
X135728978Y-104500392D01*
X135727790Y-104440449D01*
X135717540Y-104403377D01*
X135713057Y-104370335D01*
X135713057Y-104205474D01*
X135713038Y-104205119D01*
X135713041Y-104100863D01*
X135681329Y-103778832D01*
X135618204Y-103461460D01*
X135575394Y-103320330D01*
X135573482Y-103255391D01*
X135604671Y-103198396D01*
X135660398Y-103164994D01*
X135725365Y-103164357D01*
X135781737Y-103196658D01*
X136758748Y-104173669D01*
X136765359Y-104180820D01*
X136838426Y-104266373D01*
X136849862Y-104282114D01*
X136906092Y-104373877D01*
X136914915Y-104391194D01*
X136956101Y-104490625D01*
X136962113Y-104509129D01*
X136987235Y-104613771D01*
X136990279Y-104632989D01*
X136996262Y-104709010D01*
X136998099Y-104732355D01*
X136999118Y-104745295D01*
X136999500Y-104755024D01*
X136999500Y-105073630D01*
X136999492Y-105073670D01*
X136999492Y-105249918D01*
X137032103Y-105497616D01*
X137036979Y-105515813D01*
X137040732Y-105558711D01*
X136983579Y-106211989D01*
X136984767Y-106271937D01*
X137023118Y-106410657D01*
X137088824Y-106516552D01*
X137098998Y-106532949D01*
X137206257Y-106628913D01*
X137336209Y-106690769D01*
X137395033Y-106702349D01*
X137780090Y-106736036D01*
X137821685Y-106747182D01*
X137856962Y-106771883D01*
X138933236Y-107848157D01*
X138943925Y-107860344D01*
X138961884Y-107883749D01*
X138978067Y-107911778D01*
X138986214Y-107931446D01*
X138994592Y-107962714D01*
X138998439Y-107991933D01*
X138999500Y-108008119D01*
X138999500Y-109746519D01*
X138999305Y-109753472D01*
X138987206Y-109968912D01*
X138985649Y-109982730D01*
X138950089Y-110192021D01*
X138946995Y-110205577D01*
X138888224Y-110409577D01*
X138883631Y-110422702D01*
X138802393Y-110618831D01*
X138796359Y-110631361D01*
X138794492Y-110634739D01*
X138747938Y-110682160D01*
X138683586Y-110698734D01*
X138619917Y-110679703D01*
X138575217Y-110630531D01*
X138562323Y-110565342D01*
X138568639Y-110482403D01*
X138578274Y-110355879D01*
X138552567Y-110154027D01*
X138552566Y-110154026D01*
X138550974Y-110141519D01*
X138553604Y-110141183D01*
X138550383Y-110114845D01*
X138589358Y-109669360D01*
X138588170Y-109609417D01*
X138549819Y-109470699D01*
X138549818Y-109470698D01*
X138549818Y-109470696D01*
X138473939Y-109348405D01*
X138366680Y-109252441D01*
X138236728Y-109190585D01*
X138177901Y-109179004D01*
X137185952Y-109092221D01*
X137185948Y-109092221D01*
X137137993Y-109093171D01*
X137126004Y-109093409D01*
X136987284Y-109131760D01*
X136864994Y-109207639D01*
X136769030Y-109314899D01*
X136707172Y-109444852D01*
X136695592Y-109503676D01*
X136666918Y-109831423D01*
X136655772Y-109873021D01*
X136631071Y-109908297D01*
X136144553Y-110394815D01*
X136123103Y-110416266D01*
X136123096Y-110416273D01*
X136114597Y-110424771D01*
X136114485Y-110424846D01*
X135965191Y-110574145D01*
X135758321Y-110820689D01*
X135573727Y-111084326D01*
X135412807Y-111363054D01*
X135276794Y-111654744D01*
X135166724Y-111957169D01*
X135083429Y-112268048D01*
X135027546Y-112584996D01*
X134999499Y-112905610D01*
X134999500Y-112994962D01*
X134999500Y-124263647D01*
X134999499Y-124263657D01*
X134999499Y-124317266D01*
X134999487Y-124317329D01*
X134999489Y-124531575D01*
X135027895Y-124856209D01*
X135084058Y-125174713D01*
X135084485Y-125177131D01*
X135150183Y-125422315D01*
X135168829Y-125491900D01*
X135280287Y-125798123D01*
X135351687Y-125951238D01*
X135418007Y-126093460D01*
X135423250Y-126102541D01*
X135580949Y-126375681D01*
X135767856Y-126642609D01*
X135767859Y-126642613D01*
X135977326Y-126892247D01*
X136006369Y-126921289D01*
X136006373Y-126921295D01*
X136313181Y-127228102D01*
X136340061Y-127268330D01*
X136349500Y-127315783D01*
X136349500Y-127797869D01*
X136355909Y-127857484D01*
X136381056Y-127924906D01*
X136406204Y-127992331D01*
X136492454Y-128107546D01*
X136607669Y-128193796D01*
X136742517Y-128244091D01*
X136802127Y-128250500D01*
X137263667Y-128250499D01*
X137294748Y-128254457D01*
X137309274Y-128258218D01*
X137447715Y-128294063D01*
X137650936Y-128304369D01*
X137650936Y-128304368D01*
X137650937Y-128304369D01*
X137718216Y-128294062D01*
X137852071Y-128273556D01*
X137893484Y-128258217D01*
X137936551Y-128250499D01*
X138397870Y-128250499D01*
X138397872Y-128250499D01*
X138457483Y-128244091D01*
X138592331Y-128193796D01*
X138707546Y-128107546D01*
X138793796Y-127992331D01*
X138844091Y-127857483D01*
X138850500Y-127797873D01*
X138850500Y-127550000D01*
X141250000Y-127550000D01*
X141250000Y-127797824D01*
X141256402Y-127857375D01*
X141306647Y-127992089D01*
X141392811Y-128107188D01*
X141507910Y-128193352D01*
X141642624Y-128243597D01*
X141702176Y-128250000D01*
X142250000Y-128250000D01*
X142250000Y-127550000D01*
X142750000Y-127550000D01*
X142750000Y-128250000D01*
X143297824Y-128250000D01*
X143357375Y-128243597D01*
X143492089Y-128193352D01*
X143607188Y-128107188D01*
X143693352Y-127992089D01*
X143743597Y-127857375D01*
X143750000Y-127797824D01*
X143750000Y-127550000D01*
X142750000Y-127550000D01*
X142250000Y-127550000D01*
X141250000Y-127550000D01*
X138850500Y-127550000D01*
X138850499Y-127050000D01*
X141250000Y-127050000D01*
X142250000Y-127050000D01*
X142250000Y-126350000D01*
X142750000Y-126350000D01*
X142750000Y-127050000D01*
X143750000Y-127050000D01*
X143750000Y-126802176D01*
X143743597Y-126742624D01*
X143693352Y-126607910D01*
X143607188Y-126492811D01*
X143492089Y-126406647D01*
X143357375Y-126356402D01*
X143297824Y-126350000D01*
X142750000Y-126350000D01*
X142250000Y-126350000D01*
X141702176Y-126350000D01*
X141642624Y-126356402D01*
X141507910Y-126406647D01*
X141392811Y-126492811D01*
X141306647Y-126607910D01*
X141256402Y-126742624D01*
X141250000Y-126802176D01*
X141250000Y-127050000D01*
X138850499Y-127050000D01*
X138850499Y-126802128D01*
X138844091Y-126742517D01*
X138793796Y-126607669D01*
X138707546Y-126492454D01*
X138592331Y-126406204D01*
X138457483Y-126355909D01*
X138397873Y-126349500D01*
X138397869Y-126349500D01*
X138315783Y-126349500D01*
X138268330Y-126340061D01*
X138228102Y-126313181D01*
X137510332Y-125595412D01*
X137504785Y-125589490D01*
X137363535Y-125428425D01*
X137353661Y-125415557D01*
X137298178Y-125332521D01*
X137236897Y-125240808D01*
X137228799Y-125226781D01*
X137186341Y-125140687D01*
X137174170Y-125073495D01*
X137199418Y-125010047D01*
X137254427Y-124969586D01*
X137322510Y-124964383D01*
X137498259Y-125000500D01*
X138457290Y-125000500D01*
X138600742Y-125000500D01*
X138711823Y-125000500D01*
X138711824Y-125000500D01*
X139033914Y-124968777D01*
X139351343Y-124905637D01*
X139661055Y-124811686D01*
X139960067Y-124687832D01*
X140245499Y-124535265D01*
X140514602Y-124355455D01*
X140764785Y-124150135D01*
X140879212Y-124035708D01*
X140944768Y-123970152D01*
X140944768Y-123970151D01*
X141037821Y-123877097D01*
X141087182Y-123846849D01*
X141144898Y-123842307D01*
X141198385Y-123864462D01*
X141235985Y-123908485D01*
X141249500Y-123964780D01*
X141249500Y-124497869D01*
X141255909Y-124557483D01*
X141306204Y-124692331D01*
X141392454Y-124807546D01*
X141507669Y-124893796D01*
X141642517Y-124944091D01*
X141702127Y-124950500D01*
X142163667Y-124950499D01*
X142194748Y-124954457D01*
X142209274Y-124958218D01*
X142347715Y-124994063D01*
X142550936Y-125004369D01*
X142550936Y-125004368D01*
X142550937Y-125004369D01*
X142618216Y-124994062D01*
X142752071Y-124973556D01*
X142793484Y-124958217D01*
X142836551Y-124950499D01*
X143297870Y-124950499D01*
X143297872Y-124950499D01*
X143357483Y-124944091D01*
X143492331Y-124893796D01*
X143607546Y-124807546D01*
X143693796Y-124692331D01*
X143744091Y-124557483D01*
X143750500Y-124497873D01*
X143750499Y-123502128D01*
X143744091Y-123442517D01*
X143741122Y-123434559D01*
X143733338Y-123388275D01*
X143743314Y-123342412D01*
X143769619Y-123303545D01*
X153444017Y-113629148D01*
X153483788Y-113602460D01*
X153530710Y-113592836D01*
X153667362Y-113591752D01*
X153805128Y-113550110D01*
X153925582Y-113471342D01*
X154018965Y-113361829D01*
X154045375Y-113308006D01*
X154099801Y-113158473D01*
X154190449Y-112909418D01*
X154204109Y-112871885D01*
X154224529Y-112835935D01*
X154264783Y-112786568D01*
X154358995Y-112606209D01*
X154414972Y-112410578D01*
X154425044Y-112278297D01*
X154432162Y-112245309D01*
X154591151Y-111808495D01*
X154605518Y-111750288D01*
X154604377Y-111606370D01*
X154562734Y-111468604D01*
X154483967Y-111348150D01*
X154483964Y-111348147D01*
X154374456Y-111254769D01*
X154374454Y-111254768D01*
X154374453Y-111254767D01*
X154320630Y-111228357D01*
X154320626Y-111228355D01*
X154320623Y-111228354D01*
X153384935Y-110887792D01*
X153326727Y-110873425D01*
X153182809Y-110874567D01*
X153045043Y-110916209D01*
X152924590Y-110994977D01*
X152831207Y-111104490D01*
X152804797Y-111158313D01*
X152653845Y-111573049D01*
X152625004Y-111618319D01*
X143211507Y-121031816D01*
X143159821Y-121062796D01*
X143099635Y-121065752D01*
X143045162Y-121039989D01*
X143009265Y-120991588D01*
X143000423Y-120931982D01*
X143032718Y-120604061D01*
X143032717Y-120432072D01*
X143032717Y-120391491D01*
X143032717Y-119862160D01*
X143042156Y-119814707D01*
X143069036Y-119774479D01*
X143103807Y-119739708D01*
X143133805Y-119709712D01*
X143169364Y-119674156D01*
X143169365Y-119674154D01*
X143179333Y-119664187D01*
X143179356Y-119664157D01*
X150343030Y-112500482D01*
X150382801Y-112473794D01*
X150429723Y-112464170D01*
X150566377Y-112463086D01*
X150704143Y-112421444D01*
X150824597Y-112342676D01*
X150917980Y-112233163D01*
X150944390Y-112179340D01*
X150967503Y-112115839D01*
X151490166Y-110679829D01*
X151502334Y-110630531D01*
X151504533Y-110621622D01*
X151503392Y-110477704D01*
X151461749Y-110339938D01*
X151382982Y-110219484D01*
X151382979Y-110219481D01*
X151273471Y-110126103D01*
X151273469Y-110126102D01*
X151273468Y-110126101D01*
X151219645Y-110099691D01*
X151219641Y-110099689D01*
X151219638Y-110099688D01*
X150588344Y-109869916D01*
X150540731Y-109838669D01*
X150512108Y-109789437D01*
X150511878Y-109788680D01*
X150507125Y-109764800D01*
X150501097Y-109703578D01*
X150500500Y-109691425D01*
X150500502Y-109604980D01*
X150500500Y-109604973D01*
X150500501Y-109593811D01*
X150500500Y-109593789D01*
X150500500Y-108888786D01*
X154908382Y-108888786D01*
X155141271Y-108973551D01*
X155199410Y-108987900D01*
X155343185Y-108986759D01*
X155480814Y-108945158D01*
X155601147Y-108866469D01*
X155694436Y-108757066D01*
X155720818Y-108703299D01*
X155908187Y-108188508D01*
X155250402Y-107949094D01*
X154908382Y-108888786D01*
X150500500Y-108888786D01*
X150500500Y-108111605D01*
X153921052Y-108111605D01*
X153922192Y-108255378D01*
X153963794Y-108393007D01*
X154042483Y-108513342D01*
X154151886Y-108606630D01*
X154205660Y-108633017D01*
X154438535Y-108717776D01*
X154780555Y-107778084D01*
X154780555Y-107778083D01*
X154122771Y-107538670D01*
X153935402Y-108053463D01*
X153921052Y-108111605D01*
X150500500Y-108111605D01*
X150500500Y-106503481D01*
X150500695Y-106496529D01*
X150505939Y-106403154D01*
X150516589Y-106213505D01*
X150518143Y-106199706D01*
X150565043Y-105923680D01*
X150568137Y-105910125D01*
X150618512Y-105735268D01*
X150645646Y-105641084D01*
X150650238Y-105627963D01*
X150757384Y-105369290D01*
X150763409Y-105356781D01*
X150786984Y-105314127D01*
X150859428Y-105183050D01*
X150898844Y-105111733D01*
X150906236Y-105099968D01*
X151068266Y-104871610D01*
X151076904Y-104860778D01*
X151265912Y-104649279D01*
X151270654Y-104644264D01*
X159533889Y-96381029D01*
X159533896Y-96381025D01*
X159611757Y-96303163D01*
X159615631Y-96299453D01*
X159895338Y-96043143D01*
X159903601Y-96036209D01*
X160202414Y-95806917D01*
X160211234Y-95800741D01*
X160528888Y-95598369D01*
X160538228Y-95592976D01*
X160872319Y-95419056D01*
X160882073Y-95414507D01*
X161230050Y-95270367D01*
X161240185Y-95266678D01*
X161599397Y-95153415D01*
X161609827Y-95150621D01*
X161977501Y-95069107D01*
X161988145Y-95067229D01*
X162361558Y-95018065D01*
X162372292Y-95017126D01*
X162728420Y-95001575D01*
X162750353Y-95000618D01*
X162755762Y-95000500D01*
X165149286Y-95000500D01*
X165201690Y-95012118D01*
X165244275Y-95044794D01*
X165266626Y-95071430D01*
X165362088Y-95185197D01*
X165389481Y-95211525D01*
X165405314Y-95226743D01*
X165526742Y-95295572D01*
X165572587Y-95340767D01*
X165589594Y-95402857D01*
X165573178Y-95465106D01*
X165527765Y-95510736D01*
X165465595Y-95527447D01*
X164169121Y-95527447D01*
X164168865Y-95527460D01*
X163995940Y-95527460D01*
X163536959Y-95560284D01*
X163081479Y-95625771D01*
X162631842Y-95723583D01*
X162190331Y-95853220D01*
X161759187Y-96014028D01*
X161340603Y-96205187D01*
X160936743Y-96425710D01*
X160549624Y-96674495D01*
X160181255Y-96950251D01*
X159833493Y-97251587D01*
X159742744Y-97342335D01*
X159742742Y-97342337D01*
X151981070Y-105104008D01*
X151941296Y-105130699D01*
X151894373Y-105140323D01*
X151757723Y-105141407D01*
X151619957Y-105183049D01*
X151499504Y-105261817D01*
X151406121Y-105371330D01*
X151379711Y-105425153D01*
X151220974Y-105861276D01*
X151200555Y-105897225D01*
X151160301Y-105946593D01*
X151066091Y-106126949D01*
X151028772Y-106257371D01*
X151013092Y-106312173D01*
X151010113Y-106322583D01*
X151000039Y-106454862D01*
X150992919Y-106487855D01*
X150833934Y-106924663D01*
X150819567Y-106982872D01*
X150820708Y-107126789D01*
X150851462Y-107228530D01*
X150862352Y-107264556D01*
X150941119Y-107385010D01*
X150941120Y-107385011D01*
X150941121Y-107385012D01*
X150990934Y-107427488D01*
X151050633Y-107478393D01*
X151104456Y-107504803D01*
X151296893Y-107574844D01*
X152040150Y-107845367D01*
X152098358Y-107859734D01*
X152242276Y-107858592D01*
X152380042Y-107816950D01*
X152500496Y-107738182D01*
X152593879Y-107628669D01*
X152620289Y-107574846D01*
X152655084Y-107479246D01*
X155421413Y-107479246D01*
X156079197Y-107718660D01*
X156266568Y-107203865D01*
X156280917Y-107145726D01*
X156279777Y-107001953D01*
X156238175Y-106864324D01*
X156159486Y-106743989D01*
X156050083Y-106650701D01*
X155996308Y-106624314D01*
X155763433Y-106539554D01*
X155763433Y-106539555D01*
X155421413Y-107479246D01*
X152655084Y-107479246D01*
X152771239Y-107160108D01*
X152800078Y-107114841D01*
X152846096Y-107068823D01*
X154293781Y-107068823D01*
X154951566Y-107308237D01*
X155293586Y-106368545D01*
X155293586Y-106368544D01*
X155060701Y-106283781D01*
X155002559Y-106269431D01*
X154858784Y-106270572D01*
X154721155Y-106312173D01*
X154600822Y-106390862D01*
X154507533Y-106500265D01*
X154481151Y-106554032D01*
X154293781Y-107068823D01*
X152846096Y-107068823D01*
X161083791Y-98831127D01*
X161087657Y-98827425D01*
X161367379Y-98571108D01*
X161375663Y-98564159D01*
X161674445Y-98334896D01*
X161683284Y-98328706D01*
X162000939Y-98126339D01*
X162010280Y-98120946D01*
X162344368Y-97947033D01*
X162354127Y-97942482D01*
X162702102Y-97798347D01*
X162712234Y-97794660D01*
X163071438Y-97681404D01*
X163081852Y-97678613D01*
X163449573Y-97597093D01*
X163460184Y-97595222D01*
X163833602Y-97546062D01*
X163844336Y-97545122D01*
X164120359Y-97533072D01*
X164223616Y-97528565D01*
X164229024Y-97528447D01*
X164318723Y-97528447D01*
X167270485Y-97528447D01*
X167322889Y-97540065D01*
X167365474Y-97572741D01*
X167436642Y-97657555D01*
X167483287Y-97713144D01*
X167526513Y-97754690D01*
X167651720Y-97825661D01*
X167791850Y-97858480D01*
X167935550Y-97850493D01*
X168071179Y-97802342D01*
X168120962Y-97768935D01*
X168468085Y-97477662D01*
X168510669Y-97454338D01*
X168517787Y-97452106D01*
X168695701Y-97353356D01*
X168850094Y-97220813D01*
X168974647Y-97059905D01*
X168974647Y-97059903D01*
X168982368Y-97049930D01*
X168984481Y-97051566D01*
X169000808Y-97030654D01*
X169343373Y-96743209D01*
X169384919Y-96699983D01*
X169455890Y-96574776D01*
X169488709Y-96434646D01*
X169480722Y-96290946D01*
X169432571Y-96155317D01*
X169399164Y-96105534D01*
X169399162Y-96105531D01*
X168759111Y-95342750D01*
X168715884Y-95301203D01*
X168590678Y-95230233D01*
X168450548Y-95197414D01*
X168306848Y-95205401D01*
X168171218Y-95253552D01*
X168121433Y-95286960D01*
X167869408Y-95498436D01*
X167832113Y-95519969D01*
X167789702Y-95527447D01*
X165957109Y-95527447D01*
X165891232Y-95508501D01*
X165845487Y-95457451D01*
X165833851Y-95389899D01*
X165859882Y-95326487D01*
X165915623Y-95286593D01*
X165949978Y-95274396D01*
X165949978Y-95274395D01*
X165949980Y-95274395D01*
X165999763Y-95240988D01*
X166346888Y-94949713D01*
X166389475Y-94926390D01*
X166396588Y-94924159D01*
X166410669Y-94916342D01*
X166427781Y-94908479D01*
X166442887Y-94902886D01*
X166505056Y-94864134D01*
X166510450Y-94860959D01*
X166574502Y-94825409D01*
X166586720Y-94814918D01*
X166601898Y-94803773D01*
X166615571Y-94795252D01*
X166668692Y-94744755D01*
X166673328Y-94740568D01*
X166728895Y-94692866D01*
X166738752Y-94680131D01*
X166751375Y-94666159D01*
X166763053Y-94655059D01*
X166804939Y-94594877D01*
X166808577Y-94589924D01*
X166853448Y-94531958D01*
X166853448Y-94531957D01*
X166861171Y-94521981D01*
X166863284Y-94523616D01*
X166879609Y-94502707D01*
X167033851Y-94373283D01*
X171077956Y-94373283D01*
X171237257Y-94563130D01*
X171280438Y-94604631D01*
X171405520Y-94675530D01*
X171545510Y-94708317D01*
X171689067Y-94700338D01*
X171824562Y-94652236D01*
X171874295Y-94618862D01*
X172293952Y-94266726D01*
X171844000Y-93730495D01*
X171077956Y-94373283D01*
X167033851Y-94373283D01*
X167222174Y-94215262D01*
X167263720Y-94172036D01*
X167334691Y-94046829D01*
X167367510Y-93906699D01*
X167359523Y-93762999D01*
X167311372Y-93627370D01*
X167277965Y-93577587D01*
X167277963Y-93577584D01*
X167189058Y-93471632D01*
X170507809Y-93471632D01*
X170515788Y-93615189D01*
X170563890Y-93750684D01*
X170597259Y-93800408D01*
X170756563Y-93990260D01*
X171449159Y-93409102D01*
X172227023Y-93409102D01*
X172676975Y-93945333D01*
X173096634Y-93593197D01*
X173138137Y-93550014D01*
X173209036Y-93424934D01*
X173241822Y-93284943D01*
X173233843Y-93141386D01*
X173185741Y-93005891D01*
X173152372Y-92956167D01*
X172993067Y-92766314D01*
X172227023Y-93409102D01*
X171449159Y-93409102D01*
X171522607Y-93347472D01*
X171072655Y-92811241D01*
X170652997Y-93163378D01*
X170611494Y-93206561D01*
X170540595Y-93331641D01*
X170507809Y-93471632D01*
X167189058Y-93471632D01*
X167029511Y-93281492D01*
X167007978Y-93244197D01*
X167000500Y-93201786D01*
X167000500Y-92489848D01*
X171455678Y-92489848D01*
X171905630Y-93026079D01*
X172671674Y-92383291D01*
X172512374Y-92193445D01*
X172469193Y-92151944D01*
X172344111Y-92081045D01*
X172204121Y-92048258D01*
X172060564Y-92056237D01*
X171925069Y-92104339D01*
X171875342Y-92137709D01*
X171455678Y-92489848D01*
X167000500Y-92489848D01*
X167000500Y-92312259D01*
X167000695Y-92305305D01*
X167003124Y-92262060D01*
X167013688Y-92073977D01*
X167015245Y-92060167D01*
X167019431Y-92035537D01*
X167053474Y-91835182D01*
X167056568Y-91821632D01*
X167119745Y-91602348D01*
X167124330Y-91589245D01*
X167211671Y-91378396D01*
X167217695Y-91365888D01*
X167328093Y-91166144D01*
X167335477Y-91154393D01*
X167467545Y-90968265D01*
X167476197Y-90957416D01*
X167630553Y-90784699D01*
X167635305Y-90779672D01*
X167761373Y-90653600D01*
X167994875Y-90375313D01*
X168203235Y-90077734D01*
X168384867Y-89763127D01*
X168516734Y-89480324D01*
X168559776Y-89429928D01*
X168622626Y-89408898D01*
X168687331Y-89423242D01*
X168735406Y-89468863D01*
X168753117Y-89532728D01*
X168753117Y-90391250D01*
X168741499Y-90443655D01*
X168708823Y-90486239D01*
X168531443Y-90635078D01*
X168489896Y-90678305D01*
X168418926Y-90803511D01*
X168388433Y-90933708D01*
X168386107Y-90943642D01*
X168394094Y-91087342D01*
X168407651Y-91125528D01*
X168442245Y-91222971D01*
X168475653Y-91272756D01*
X169032666Y-91936576D01*
X169115705Y-92035538D01*
X169158931Y-92077084D01*
X169284138Y-92148055D01*
X169424268Y-92180874D01*
X169567968Y-92172887D01*
X169703597Y-92124736D01*
X169753380Y-92091329D01*
X170108087Y-91793693D01*
X170144719Y-91772405D01*
X170196504Y-91753227D01*
X170369188Y-91645593D01*
X170516670Y-91505400D01*
X170598516Y-91387807D01*
X170620582Y-91363659D01*
X170788247Y-91222971D01*
X170975791Y-91065603D01*
X171017337Y-91022377D01*
X171088308Y-90897170D01*
X171121127Y-90757040D01*
X171113140Y-90613340D01*
X171064989Y-90477711D01*
X171031582Y-90427928D01*
X171031580Y-90427925D01*
X170783128Y-90131833D01*
X170761595Y-90094538D01*
X170754117Y-90052127D01*
X170754117Y-84057078D01*
X170754499Y-84047349D01*
X170760283Y-83973856D01*
X170769346Y-83858687D01*
X170772388Y-83839481D01*
X170815427Y-83660211D01*
X170821433Y-83641726D01*
X170891984Y-83471401D01*
X170900817Y-83454067D01*
X170997144Y-83296875D01*
X171008572Y-83281143D01*
X171131465Y-83137254D01*
X171138037Y-83130144D01*
X171249297Y-83018883D01*
X171279718Y-82996579D01*
X171315438Y-82984453D01*
X171808197Y-82897567D01*
X171865790Y-82880905D01*
X171989855Y-82807958D01*
X172088343Y-82703011D01*
X172153276Y-82574569D01*
X172179390Y-82433036D01*
X172175351Y-82373219D01*
X172095316Y-81919326D01*
X172093791Y-81888389D01*
X172106079Y-81727045D01*
X172105006Y-81718622D01*
X172095061Y-81640537D01*
X172080372Y-81525193D01*
X172014558Y-81332649D01*
X171993532Y-81296931D01*
X171978276Y-81255559D01*
X171973395Y-81227880D01*
X171913535Y-80888394D01*
X171898253Y-80801722D01*
X171886779Y-80762062D01*
X171881590Y-80744124D01*
X171808643Y-80620059D01*
X171795229Y-80607471D01*
X171703695Y-80521570D01*
X171575256Y-80456638D01*
X171504487Y-80443580D01*
X171433721Y-80430524D01*
X171433719Y-80430524D01*
X171373904Y-80434563D01*
X170393292Y-80607471D01*
X170335692Y-80624135D01*
X170211628Y-80697082D01*
X170113140Y-80802029D01*
X170048208Y-80930468D01*
X170034722Y-81003562D01*
X170022094Y-81072004D01*
X170026133Y-81131821D01*
X170049055Y-81261817D01*
X170056953Y-81306608D01*
X170053098Y-81365427D01*
X170022518Y-81415821D01*
X169756039Y-81682301D01*
X169756029Y-81682307D01*
X169605071Y-81833264D01*
X169399368Y-82083916D01*
X169219220Y-82353527D01*
X169088919Y-82597305D01*
X169048001Y-82642254D01*
X168990638Y-82662356D01*
X168930613Y-82652782D01*
X168882350Y-82615832D01*
X168857445Y-82560385D01*
X168853260Y-82536651D01*
X168851376Y-82515118D01*
X168851376Y-82339797D01*
X168851416Y-82336655D01*
X168853632Y-82249196D01*
X168843227Y-82191143D01*
X168841918Y-82181811D01*
X168835950Y-82123120D01*
X168826843Y-82094095D01*
X168823099Y-82078844D01*
X168817733Y-82048901D01*
X168795852Y-81994123D01*
X168792692Y-81985247D01*
X168781351Y-81949101D01*
X168775035Y-81928970D01*
X168760271Y-81902370D01*
X168753536Y-81888189D01*
X168737575Y-81848230D01*
X168738539Y-81847844D01*
X168726443Y-81817439D01*
X168726364Y-81816993D01*
X168670463Y-81499962D01*
X168648387Y-81374760D01*
X168647061Y-81370178D01*
X168631724Y-81317162D01*
X168558777Y-81193097D01*
X168517790Y-81154633D01*
X168453829Y-81094608D01*
X168325390Y-81029676D01*
X168246367Y-81015096D01*
X168183855Y-81003562D01*
X168183853Y-81003562D01*
X168124036Y-81007601D01*
X168037819Y-81022803D01*
X167979000Y-81018948D01*
X167928607Y-80988368D01*
X166992731Y-80052493D01*
X166992714Y-80052472D01*
X166977068Y-80036827D01*
X166954820Y-80014580D01*
X166954748Y-80014472D01*
X166918500Y-79978227D01*
X166918501Y-79978227D01*
X166842737Y-79902469D01*
X166672730Y-79772028D01*
X166487150Y-79664894D01*
X166487148Y-79664893D01*
X166487146Y-79664892D01*
X166289177Y-79582901D01*
X166289175Y-79582900D01*
X166289174Y-79582900D01*
X166082188Y-79527451D01*
X166082185Y-79527450D01*
X166082183Y-79527450D01*
X165962920Y-79511756D01*
X165924257Y-79500030D01*
X165891417Y-79476497D01*
X165686775Y-79271854D01*
X165678603Y-79262838D01*
X165591714Y-79156964D01*
X165578209Y-79136753D01*
X165516533Y-79021368D01*
X165507231Y-78998910D01*
X165469252Y-78873714D01*
X165464509Y-78849875D01*
X165451097Y-78713728D01*
X165450500Y-78701571D01*
X165450500Y-76819485D01*
X165921352Y-76819485D01*
X165925391Y-76879300D01*
X165997616Y-77288908D01*
X165999500Y-77310440D01*
X165999500Y-77550742D01*
X166004686Y-77601740D01*
X166014926Y-77702440D01*
X166031815Y-77756268D01*
X166075841Y-77896588D01*
X166096136Y-77933152D01*
X166108146Y-77954791D01*
X166121843Y-77993435D01*
X166202489Y-78450798D01*
X166219152Y-78508397D01*
X166292099Y-78632461D01*
X166397046Y-78730949D01*
X166525485Y-78795881D01*
X166525486Y-78795881D01*
X166525488Y-78795882D01*
X166667021Y-78821996D01*
X166726838Y-78817957D01*
X167707455Y-78645047D01*
X167765048Y-78628385D01*
X167889113Y-78555438D01*
X167987601Y-78450491D01*
X168052534Y-78322049D01*
X168078648Y-78180516D01*
X168074609Y-78120699D01*
X167995245Y-77670612D01*
X167995900Y-77624118D01*
X168000500Y-77601741D01*
X168000500Y-77338129D01*
X169357710Y-77338129D01*
X169452838Y-77877629D01*
X169469485Y-77935167D01*
X169542358Y-78059106D01*
X169647202Y-78157497D01*
X169775517Y-78222365D01*
X169916904Y-78248454D01*
X169976660Y-78244418D01*
X170220723Y-78201384D01*
X170047075Y-77216575D01*
X169357710Y-77338129D01*
X168000500Y-77338129D01*
X168000500Y-77129751D01*
X170539478Y-77129751D01*
X170713127Y-78114559D01*
X170957188Y-78071525D01*
X171014723Y-78054879D01*
X171138662Y-77982005D01*
X171237052Y-77877162D01*
X171301921Y-77748846D01*
X171328010Y-77607459D01*
X171323974Y-77547703D01*
X171228845Y-77008197D01*
X170539478Y-77129751D01*
X168000500Y-77129751D01*
X168000500Y-76246464D01*
X169171721Y-76246464D01*
X169175757Y-76306220D01*
X169270885Y-76845725D01*
X169960252Y-76724171D01*
X169786604Y-75739363D01*
X169542543Y-75782398D01*
X169485009Y-75799044D01*
X169361069Y-75871918D01*
X169262679Y-75976761D01*
X169197810Y-76105077D01*
X169171721Y-76246464D01*
X168000500Y-76246464D01*
X168000500Y-75652539D01*
X170279008Y-75652539D01*
X170452656Y-76637347D01*
X171142021Y-76515793D01*
X171046893Y-75976293D01*
X171030246Y-75918756D01*
X170957373Y-75794817D01*
X170852529Y-75696426D01*
X170724214Y-75631558D01*
X170582827Y-75605469D01*
X170523071Y-75609505D01*
X170279008Y-75652539D01*
X168000500Y-75652539D01*
X168000500Y-67209185D01*
X168017113Y-67147185D01*
X168062500Y-67101798D01*
X168126210Y-67065015D01*
X168364303Y-66927552D01*
X168412724Y-66892197D01*
X168504358Y-66781216D01*
X168561012Y-66648914D01*
X168578100Y-66506010D01*
X168554232Y-66364081D01*
X168553975Y-66363501D01*
X168529979Y-66309254D01*
X168374797Y-66040471D01*
X168303755Y-65917423D01*
X168288137Y-65871091D01*
X168287514Y-65866196D01*
X168221700Y-65673652D01*
X168118475Y-65498297D01*
X167982063Y-65347311D01*
X167982062Y-65347310D01*
X167973609Y-65337954D01*
X167975164Y-65336548D01*
X167956091Y-65315254D01*
X167759295Y-64974393D01*
X167732104Y-64927297D01*
X167696749Y-64878876D01*
X167696747Y-64878874D01*
X167585770Y-64787242D01*
X167519617Y-64758914D01*
X167453466Y-64730588D01*
X167434189Y-64728283D01*
X167310562Y-64713500D01*
X167168632Y-64737368D01*
X167113805Y-64761622D01*
X166251462Y-65259497D01*
X166203043Y-65294850D01*
X166111411Y-65405830D01*
X166111410Y-65405831D01*
X166111410Y-65405832D01*
X166071816Y-65498296D01*
X166054756Y-65538135D01*
X166037667Y-65681038D01*
X166061536Y-65822969D01*
X166085788Y-65877793D01*
X166110546Y-65920675D01*
X166126893Y-65974563D01*
X166117722Y-66030123D01*
X166077375Y-66127539D01*
X166025601Y-66320781D01*
X166000706Y-66509913D01*
X165999497Y-66517100D01*
X165999500Y-66604029D01*
X165999500Y-76545461D01*
X165986163Y-76601406D01*
X165947465Y-76677951D01*
X165921352Y-76819485D01*
X165450500Y-76819485D01*
X165450500Y-68681378D01*
X165463949Y-68625213D01*
X165501379Y-68581232D01*
X165554840Y-68542197D01*
X165599058Y-68488643D01*
X165646474Y-68431216D01*
X165703128Y-68298914D01*
X165720216Y-68156010D01*
X165696348Y-68014081D01*
X165672094Y-67959252D01*
X164874220Y-66577297D01*
X164838865Y-66528876D01*
X164838863Y-66528874D01*
X164727886Y-66437242D01*
X164661733Y-66408914D01*
X164595582Y-66380588D01*
X164580318Y-66378763D01*
X164452678Y-66363500D01*
X164310748Y-66387368D01*
X164255919Y-66411623D01*
X164224599Y-66429706D01*
X164173407Y-66445846D01*
X164120190Y-66438840D01*
X164074920Y-66409999D01*
X162500278Y-64835357D01*
X162470540Y-64787534D01*
X162465020Y-64731491D01*
X162484857Y-64678785D01*
X162525957Y-64640289D01*
X163056419Y-64334028D01*
X163104840Y-64298673D01*
X163196474Y-64187692D01*
X163253128Y-64055390D01*
X163270216Y-63912486D01*
X163268757Y-63903813D01*
X163252302Y-63805961D01*
X163246348Y-63770557D01*
X163242217Y-63761219D01*
X163222095Y-63715730D01*
X163211868Y-63698017D01*
X162544154Y-62541505D01*
X164160159Y-62541505D01*
X164434070Y-63015933D01*
X164469394Y-63064310D01*
X164580259Y-63155849D01*
X164712432Y-63212447D01*
X164855194Y-63229519D01*
X164996981Y-63205674D01*
X165051752Y-63181445D01*
X165266376Y-63057532D01*
X165266376Y-63057531D01*
X164766377Y-62191506D01*
X164766376Y-62191506D01*
X164160159Y-62541504D01*
X164160159Y-62541505D01*
X162544154Y-62541505D01*
X162424220Y-62333773D01*
X162388865Y-62285352D01*
X162361185Y-62262497D01*
X162277886Y-62193718D01*
X162192507Y-62157158D01*
X162145582Y-62137064D01*
X162130318Y-62135239D01*
X162002678Y-62119976D01*
X161860747Y-62143844D01*
X161830651Y-62157158D01*
X161782453Y-62167742D01*
X161733944Y-62158692D01*
X161692806Y-62131439D01*
X160998869Y-61437502D01*
X163588172Y-61437502D01*
X163612015Y-61579288D01*
X163636247Y-61634063D01*
X163910158Y-62108492D01*
X163910159Y-62108492D01*
X164199388Y-61941506D01*
X165199389Y-61941506D01*
X165699388Y-62807531D01*
X165699389Y-62807531D01*
X165914008Y-62683623D01*
X165962387Y-62648296D01*
X166053925Y-62537432D01*
X166110524Y-62405257D01*
X166127595Y-62262497D01*
X166103752Y-62120711D01*
X166079520Y-62065936D01*
X165805608Y-61591506D01*
X165805607Y-61591506D01*
X165199389Y-61941505D01*
X165199389Y-61941506D01*
X164199388Y-61941506D01*
X164516377Y-61758493D01*
X164516377Y-61758492D01*
X164016378Y-60892467D01*
X164016377Y-60892467D01*
X163801754Y-61016380D01*
X163753381Y-61051702D01*
X163661842Y-61162567D01*
X163605243Y-61294742D01*
X163588172Y-61437502D01*
X160998869Y-61437502D01*
X160203834Y-60642467D01*
X164449390Y-60642467D01*
X164949389Y-61508492D01*
X164949390Y-61508492D01*
X165555607Y-61158494D01*
X165555607Y-61158493D01*
X165281697Y-60684066D01*
X165246373Y-60635689D01*
X165135508Y-60544150D01*
X165003335Y-60487552D01*
X164860573Y-60470480D01*
X164718786Y-60494325D01*
X164664015Y-60518554D01*
X164449390Y-60642466D01*
X164449390Y-60642467D01*
X160203834Y-60642467D01*
X159321305Y-59759938D01*
X156917031Y-57355663D01*
X156912252Y-57350608D01*
X156801882Y-57227102D01*
X156749792Y-57168812D01*
X156741125Y-57157945D01*
X156730178Y-57142517D01*
X156602049Y-56961933D01*
X156594655Y-56950164D01*
X156478404Y-56739820D01*
X156472371Y-56727292D01*
X156380406Y-56505267D01*
X156375813Y-56492142D01*
X156347094Y-56392454D01*
X156309280Y-56261198D01*
X156306188Y-56247648D01*
X156305284Y-56242325D01*
X156265930Y-56010708D01*
X156264376Y-55996909D01*
X156255094Y-55831631D01*
X156250695Y-55753289D01*
X156250500Y-55746337D01*
X156250500Y-55658122D01*
X156250490Y-55658027D01*
X156250490Y-55585472D01*
X156242074Y-55489279D01*
X156221812Y-55257676D01*
X156164673Y-54933623D01*
X156079509Y-54615784D01*
X155966968Y-54306577D01*
X155964894Y-54302130D01*
X155827909Y-54008361D01*
X155827906Y-54008355D01*
X155663382Y-53723388D01*
X155474648Y-53453844D01*
X155303605Y-53250000D01*
X155263138Y-53201772D01*
X155223060Y-53161695D01*
X155223054Y-53161686D01*
X155205391Y-53144023D01*
X155146804Y-53085436D01*
X155091027Y-53029659D01*
X155091024Y-53029657D01*
X155082345Y-53020978D01*
X155082345Y-53020977D01*
X155082342Y-53020975D01*
X153786818Y-51725450D01*
X153759938Y-51685222D01*
X153750499Y-51637769D01*
X153750499Y-51002130D01*
X153750499Y-51002127D01*
X153744091Y-50942517D01*
X153693796Y-50807669D01*
X153607546Y-50692454D01*
X153492331Y-50606204D01*
X153357483Y-50555909D01*
X153297873Y-50549500D01*
X153297869Y-50549500D01*
X151702130Y-50549500D01*
X151642515Y-50555909D01*
X151507669Y-50606204D01*
X151392454Y-50692454D01*
X151306204Y-50807668D01*
X151255909Y-50942516D01*
X151249500Y-51002130D01*
X151249500Y-51997869D01*
X151255897Y-52057375D01*
X151255909Y-52057483D01*
X151306204Y-52192331D01*
X151392454Y-52307546D01*
X151507669Y-52393796D01*
X151642517Y-52444091D01*
X151702127Y-52450500D01*
X152337769Y-52450499D01*
X152385222Y-52459938D01*
X152425450Y-52486818D01*
X153668506Y-53729874D01*
X153699802Y-53782620D01*
X153701991Y-53843913D01*
X153674538Y-53898758D01*
X153624158Y-53933737D01*
X153563178Y-53940293D01*
X153506515Y-53916822D01*
X153492331Y-53906204D01*
X153357483Y-53855909D01*
X153297873Y-53849500D01*
X153297869Y-53849500D01*
X152836331Y-53849500D01*
X152805251Y-53845542D01*
X152652285Y-53805937D01*
X152449062Y-53795630D01*
X152247929Y-53826443D01*
X152206513Y-53841782D01*
X152163449Y-53849500D01*
X151702130Y-53849500D01*
X151642515Y-53855909D01*
X151507669Y-53906204D01*
X151392454Y-53992454D01*
X151306204Y-54107668D01*
X151255909Y-54242516D01*
X151249500Y-54302131D01*
X151249500Y-55284214D01*
X151240061Y-55331667D01*
X151213181Y-55371895D01*
X150882915Y-55702162D01*
X150882911Y-55702166D01*
X150371895Y-56213181D01*
X150331667Y-56240061D01*
X150284214Y-56249500D01*
X148702130Y-56249500D01*
X148642515Y-56255909D01*
X148515191Y-56303398D01*
X148452386Y-56309678D01*
X148394627Y-56284228D01*
X148356878Y-56233644D01*
X148348919Y-56171032D01*
X148350502Y-56159009D01*
X148350500Y-56055271D01*
X148350500Y-56026211D01*
X148350500Y-55866976D01*
X148364969Y-55808847D01*
X148404999Y-55764284D01*
X148443177Y-55750303D01*
X148442890Y-55749534D01*
X148459229Y-55743439D01*
X148592331Y-55693796D01*
X148707546Y-55607546D01*
X148793796Y-55492331D01*
X148844091Y-55357483D01*
X148850500Y-55297873D01*
X148850499Y-54302128D01*
X148844091Y-54242517D01*
X148793796Y-54107669D01*
X148707546Y-53992454D01*
X148592331Y-53906204D01*
X148457483Y-53855909D01*
X148397873Y-53849500D01*
X148397869Y-53849500D01*
X146802130Y-53849500D01*
X146742515Y-53855909D01*
X146607669Y-53906204D01*
X146492454Y-53992454D01*
X146406204Y-54107668D01*
X146355909Y-54242516D01*
X146349500Y-54302131D01*
X146349500Y-54834203D01*
X146333017Y-54895978D01*
X146287949Y-54941330D01*
X146226279Y-54958201D01*
X146164402Y-54942106D01*
X146118768Y-54897324D01*
X146067682Y-54810942D01*
X145951557Y-54694817D01*
X145810200Y-54611219D01*
X145652488Y-54565400D01*
X145650000Y-54565204D01*
X145650000Y-55475000D01*
X146199999Y-55475000D01*
X146209315Y-55465684D01*
X146253662Y-55437183D01*
X146305842Y-55429680D01*
X146356423Y-55444531D01*
X146396264Y-55479053D01*
X146406204Y-55492331D01*
X146492454Y-55607546D01*
X146607669Y-55693796D01*
X146725448Y-55737725D01*
X146757110Y-55749534D01*
X146756822Y-55750304D01*
X146795000Y-55764284D01*
X146835031Y-55808847D01*
X146849500Y-55866976D01*
X146849500Y-55964135D01*
X146849499Y-55964145D01*
X146849499Y-56012999D01*
X146832886Y-56074999D01*
X146787499Y-56120386D01*
X146725499Y-56136999D01*
X146676645Y-56136999D01*
X146676635Y-56137000D01*
X146324000Y-56137000D01*
X146262000Y-56120387D01*
X146216613Y-56075000D01*
X146200000Y-56013000D01*
X146200000Y-55975000D01*
X145374500Y-55975000D01*
X145312500Y-55958387D01*
X145267113Y-55913000D01*
X145250500Y-55851000D01*
X145250500Y-55146808D01*
X145250500Y-55146806D01*
X145247598Y-55109931D01*
X145201744Y-54952102D01*
X145169349Y-54897324D01*
X145167268Y-54893806D01*
X145150000Y-54830685D01*
X145150000Y-54565205D01*
X145149999Y-54565204D01*
X145147510Y-54565400D01*
X145024729Y-54601071D01*
X144975669Y-54605147D01*
X144928888Y-54589812D01*
X144891762Y-54557484D01*
X144848482Y-54501084D01*
X144848481Y-54501083D01*
X144848478Y-54501079D01*
X144840896Y-54493497D01*
X144840894Y-54493494D01*
X144782309Y-54434914D01*
X144782310Y-54434914D01*
X144768500Y-54421105D01*
X144436744Y-54089348D01*
X144436717Y-54089307D01*
X144289994Y-53942584D01*
X144049607Y-53750883D01*
X143789251Y-53587292D01*
X143578332Y-53485720D01*
X143528646Y-53442312D01*
X143508258Y-53379564D01*
X143522939Y-53315240D01*
X143568533Y-53267552D01*
X143632133Y-53250000D01*
X143750000Y-53250000D01*
X143750000Y-51750000D01*
X144250000Y-51750000D01*
X144250000Y-53250000D01*
X145297824Y-53250000D01*
X145357375Y-53243597D01*
X145492089Y-53193352D01*
X145607188Y-53107188D01*
X145693352Y-52992089D01*
X145743597Y-52857375D01*
X145750000Y-52797824D01*
X145750000Y-51750000D01*
X146350000Y-51750000D01*
X146350000Y-51997824D01*
X146356402Y-52057375D01*
X146406647Y-52192089D01*
X146492811Y-52307188D01*
X146607910Y-52393352D01*
X146742624Y-52443597D01*
X146802176Y-52450000D01*
X147350000Y-52450000D01*
X147350000Y-51750000D01*
X147850000Y-51750000D01*
X147850000Y-52450000D01*
X148397824Y-52450000D01*
X148457375Y-52443597D01*
X148592089Y-52393352D01*
X148707188Y-52307188D01*
X148793352Y-52192089D01*
X148843597Y-52057375D01*
X148850000Y-51997824D01*
X148850000Y-51750000D01*
X147850000Y-51750000D01*
X147350000Y-51750000D01*
X146350000Y-51750000D01*
X145750000Y-51750000D01*
X144250000Y-51750000D01*
X143750000Y-51750000D01*
X142250000Y-51750000D01*
X142250000Y-52797824D01*
X142256402Y-52857375D01*
X142306647Y-52992088D01*
X142350890Y-53051189D01*
X142375129Y-53114447D01*
X142362507Y-53181004D01*
X142316790Y-53230995D01*
X142251623Y-53249500D01*
X140874499Y-53249500D01*
X140812499Y-53232887D01*
X140767112Y-53187500D01*
X140750499Y-53125500D01*
X140750499Y-52702130D01*
X140750499Y-52702127D01*
X140744091Y-52642517D01*
X140693796Y-52507669D01*
X140607546Y-52392454D01*
X140492331Y-52306204D01*
X140357483Y-52255909D01*
X140297873Y-52249500D01*
X140297869Y-52249500D01*
X137702130Y-52249500D01*
X137642515Y-52255909D01*
X137507669Y-52306204D01*
X137392454Y-52392454D01*
X137306204Y-52507668D01*
X137255909Y-52642516D01*
X137249500Y-52702130D01*
X137249500Y-55297869D01*
X137255909Y-55357483D01*
X137306204Y-55492331D01*
X137392454Y-55607546D01*
X137507669Y-55693796D01*
X137642517Y-55744091D01*
X137702127Y-55750500D01*
X140297872Y-55750499D01*
X140357483Y-55744091D01*
X140492331Y-55693796D01*
X140607546Y-55607546D01*
X140693796Y-55492331D01*
X140744091Y-55357483D01*
X140750500Y-55297873D01*
X140750500Y-54874500D01*
X140767113Y-54812500D01*
X140812500Y-54767113D01*
X140874500Y-54750500D01*
X142384099Y-54750500D01*
X142384104Y-54750501D01*
X142458112Y-54750500D01*
X142467838Y-54750881D01*
X142646693Y-54764955D01*
X142665891Y-54767995D01*
X142670613Y-54769128D01*
X142721827Y-54795090D01*
X142755855Y-54841342D01*
X142765400Y-54897965D01*
X142750922Y-54944714D01*
X142702900Y-55110006D01*
X142700000Y-55146861D01*
X142700000Y-55475000D01*
X143525500Y-55475000D01*
X143587500Y-55491613D01*
X143632887Y-55537000D01*
X143649500Y-55599000D01*
X143649500Y-55851000D01*
X143632887Y-55913000D01*
X143587500Y-55958387D01*
X143525500Y-55975000D01*
X142700000Y-55975000D01*
X142700000Y-56303139D01*
X142702900Y-56339993D01*
X142748717Y-56497697D01*
X142832317Y-56639057D01*
X142948440Y-56755180D01*
X142948937Y-56755474D01*
X142993528Y-56800767D01*
X143009821Y-56862203D01*
X142993534Y-56923641D01*
X142948947Y-56968938D01*
X142948136Y-56969417D01*
X142831919Y-57085634D01*
X142748255Y-57227102D01*
X142702402Y-57384927D01*
X142699500Y-57421808D01*
X142699500Y-57625500D01*
X142682887Y-57687500D01*
X142637500Y-57732887D01*
X142575500Y-57749500D01*
X141374499Y-57749500D01*
X141312499Y-57732887D01*
X141267112Y-57687500D01*
X141250499Y-57625500D01*
X141250499Y-57202130D01*
X141247522Y-57174438D01*
X141244091Y-57142517D01*
X141193796Y-57007669D01*
X141107546Y-56892454D01*
X140992331Y-56806204D01*
X140857483Y-56755909D01*
X140797873Y-56749500D01*
X140797869Y-56749500D01*
X138202130Y-56749500D01*
X138142515Y-56755909D01*
X138007669Y-56806204D01*
X137892454Y-56892454D01*
X137806204Y-57007668D01*
X137755909Y-57142515D01*
X137755909Y-57142517D01*
X137752478Y-57174434D01*
X137749500Y-57202130D01*
X137749500Y-59797869D01*
X137755909Y-59857484D01*
X137774806Y-59908148D01*
X137806204Y-59992331D01*
X137892454Y-60107546D01*
X138007669Y-60193796D01*
X138142517Y-60244091D01*
X138202127Y-60250500D01*
X140797872Y-60250499D01*
X140857483Y-60244091D01*
X140992331Y-60193796D01*
X141107546Y-60107546D01*
X141193796Y-59992331D01*
X141244091Y-59857483D01*
X141250500Y-59797873D01*
X141250500Y-59374500D01*
X141267113Y-59312500D01*
X141312500Y-59267113D01*
X141374500Y-59250500D01*
X142554674Y-59250500D01*
X142554722Y-59250504D01*
X142567602Y-59250503D01*
X142567606Y-59250504D01*
X142595103Y-59250502D01*
X142595195Y-59250520D01*
X142646486Y-59250518D01*
X142646486Y-59250519D01*
X142751610Y-59250514D01*
X142751621Y-59250514D01*
X142821106Y-59241362D01*
X142960083Y-59223059D01*
X143163181Y-59168632D01*
X143169786Y-59165895D01*
X143210426Y-59156643D01*
X143234738Y-59159422D01*
X143234764Y-59159101D01*
X143247430Y-59160097D01*
X143247431Y-59160098D01*
X143284306Y-59163000D01*
X143715692Y-59163000D01*
X143715694Y-59163000D01*
X143752569Y-59160098D01*
X143910398Y-59114244D01*
X144051865Y-59030581D01*
X144168081Y-58914365D01*
X144251744Y-58772898D01*
X144256424Y-58756791D01*
X144285554Y-58706030D01*
X144334721Y-58674283D01*
X144392972Y-58668623D01*
X144447331Y-58690310D01*
X144485689Y-58734514D01*
X144499500Y-58791386D01*
X144499500Y-59971500D01*
X144499341Y-59977779D01*
X144495631Y-60050937D01*
X144506720Y-60123324D01*
X144507514Y-60129554D01*
X144514926Y-60202440D01*
X144518814Y-60214832D01*
X144524500Y-60251950D01*
X144524500Y-60266674D01*
X144534563Y-60365185D01*
X144587450Y-60524785D01*
X144587451Y-60524787D01*
X144602924Y-60549873D01*
X144675720Y-60667893D01*
X144707998Y-60700170D01*
X144740092Y-60755757D01*
X144740093Y-60819944D01*
X144708000Y-60875532D01*
X144676115Y-60907417D01*
X144587906Y-61050426D01*
X144535056Y-61209916D01*
X144525000Y-61308357D01*
X144525000Y-61325000D01*
X146474999Y-61325000D01*
X146474999Y-61308357D01*
X146464943Y-61209917D01*
X146449563Y-61163504D01*
X146444712Y-61105637D01*
X146466739Y-61051907D01*
X146510813Y-61014097D01*
X146567269Y-61000500D01*
X146806932Y-61000500D01*
X146807149Y-61000489D01*
X146925443Y-61000489D01*
X146984100Y-60995357D01*
X147274986Y-60969908D01*
X147620537Y-60908979D01*
X147959462Y-60818165D01*
X148289183Y-60698158D01*
X148607190Y-60549870D01*
X148911063Y-60374431D01*
X149198489Y-60173176D01*
X149467281Y-59947636D01*
X149506771Y-59908144D01*
X149506786Y-59908134D01*
X149519405Y-59895514D01*
X149519408Y-59895513D01*
X149591338Y-59823582D01*
X149628102Y-59786817D01*
X149668330Y-59759938D01*
X149715783Y-59750499D01*
X151297870Y-59750499D01*
X151297872Y-59750499D01*
X151357483Y-59744091D01*
X151492331Y-59693796D01*
X151607546Y-59607546D01*
X151693796Y-59492331D01*
X151744091Y-59357483D01*
X151750500Y-59297873D01*
X151750499Y-57715778D01*
X151759938Y-57668326D01*
X151786815Y-57628101D01*
X152037319Y-57377597D01*
X152092904Y-57345505D01*
X152157092Y-57345505D01*
X152212676Y-57377597D01*
X157642611Y-62807531D01*
X163107615Y-68272535D01*
X163183157Y-68348081D01*
X163183256Y-68348147D01*
X163196566Y-68361458D01*
X163357910Y-68485273D01*
X163387506Y-68502362D01*
X163432888Y-68547747D01*
X163449500Y-68609745D01*
X163449500Y-71575813D01*
X163436424Y-71631238D01*
X163399952Y-71674974D01*
X163347778Y-71697795D01*
X163290905Y-71694889D01*
X163250001Y-71683005D01*
X163250000Y-71683007D01*
X163250000Y-71988643D01*
X163232732Y-72051762D01*
X163225180Y-72064532D01*
X163223067Y-72068106D01*
X163177391Y-72225321D01*
X163174500Y-72262062D01*
X163174500Y-72737938D01*
X163177391Y-72774678D01*
X163223067Y-72931893D01*
X163223068Y-72931895D01*
X163223069Y-72931897D01*
X163232732Y-72948237D01*
X163250000Y-73011357D01*
X163250000Y-73316993D01*
X163250001Y-73316994D01*
X163290905Y-73305111D01*
X163347778Y-73302205D01*
X163399952Y-73325026D01*
X163436424Y-73368762D01*
X163449500Y-73424187D01*
X163449500Y-78603657D01*
X163449498Y-78603679D01*
X163449498Y-78614846D01*
X163449498Y-78614848D01*
X163449499Y-78645047D01*
X163449499Y-78656179D01*
X163449484Y-78656257D01*
X163449487Y-78844761D01*
X163453700Y-78887522D01*
X163476391Y-79117861D01*
X163476392Y-79117865D01*
X163529930Y-79387004D01*
X163609593Y-79649607D01*
X163714337Y-79902469D01*
X163714611Y-79903131D01*
X163843972Y-80145144D01*
X163843973Y-80145145D01*
X163996430Y-80373312D01*
X164170519Y-80585440D01*
X164186912Y-80601832D01*
X164186916Y-80601837D01*
X164195597Y-80610518D01*
X164195598Y-80610519D01*
X164473474Y-80888394D01*
X164600176Y-81015096D01*
X164600177Y-81015098D01*
X164665237Y-81080167D01*
X164665383Y-81080264D01*
X164679726Y-81094608D01*
X164682544Y-81097426D01*
X164807207Y-81193096D01*
X164852532Y-81227880D01*
X164890840Y-81250000D01*
X165038091Y-81335028D01*
X165236049Y-81417039D01*
X165443018Y-81472511D01*
X165562403Y-81488236D01*
X165601055Y-81499962D01*
X165633889Y-81523492D01*
X166814057Y-82703659D01*
X166840937Y-82743887D01*
X166850376Y-82791340D01*
X166850376Y-85568207D01*
X166837300Y-85623632D01*
X166800828Y-85667368D01*
X166780000Y-85683006D01*
X166780000Y-85988643D01*
X166762732Y-86051762D01*
X166753069Y-86068103D01*
X166753068Y-86068105D01*
X166707389Y-86225327D01*
X166706072Y-86242065D01*
X166701714Y-86266291D01*
X166687800Y-86315152D01*
X166670652Y-86499782D01*
X166687720Y-86684418D01*
X166701722Y-86733671D01*
X166706065Y-86757846D01*
X166707389Y-86774672D01*
X166753068Y-86931894D01*
X166753069Y-86931897D01*
X166762732Y-86948237D01*
X166780000Y-87011357D01*
X166780000Y-87316994D01*
X166800828Y-87332632D01*
X166837300Y-87376368D01*
X166850376Y-87431793D01*
X166850376Y-87735378D01*
X166850375Y-87735388D01*
X166850375Y-87836893D01*
X166850180Y-87843844D01*
X166837193Y-88075170D01*
X166835636Y-88088988D01*
X166797414Y-88313964D01*
X166794320Y-88327521D01*
X166731149Y-88546805D01*
X166726557Y-88559930D01*
X166639229Y-88770768D01*
X166633196Y-88783296D01*
X166522815Y-88983023D01*
X166515417Y-88994798D01*
X166383363Y-89180917D01*
X166374693Y-89191789D01*
X166220770Y-89364033D01*
X166215993Y-89369086D01*
X166144671Y-89440411D01*
X166144449Y-89440677D01*
X166089577Y-89495548D01*
X165856070Y-89773821D01*
X165647698Y-90071398D01*
X165466056Y-90386000D01*
X165312529Y-90715226D01*
X165188278Y-91056590D01*
X165094253Y-91407476D01*
X165031168Y-91765231D01*
X164999501Y-92127119D01*
X164999501Y-92196757D01*
X164999500Y-92196771D01*
X164999500Y-92207025D01*
X164999500Y-92283571D01*
X164999500Y-92308755D01*
X164999500Y-92357739D01*
X164999499Y-92413737D01*
X164999500Y-92413748D01*
X164999500Y-92875500D01*
X164982887Y-92937500D01*
X164937500Y-92982887D01*
X164875500Y-92999500D01*
X162805358Y-92999500D01*
X162805156Y-92999460D01*
X162753956Y-92999460D01*
X162718525Y-92999460D01*
X162523876Y-92999461D01*
X162064895Y-93032292D01*
X161790767Y-93071707D01*
X161609417Y-93097783D01*
X161609413Y-93097783D01*
X161609412Y-93097784D01*
X161159777Y-93195599D01*
X160718251Y-93325247D01*
X160287114Y-93486057D01*
X159868546Y-93677216D01*
X159868543Y-93677217D01*
X159868540Y-93677219D01*
X159711450Y-93762999D01*
X159464665Y-93897757D01*
X159077557Y-94146541D01*
X158709196Y-94422299D01*
X158361432Y-94723645D01*
X158361429Y-94723648D01*
X158270688Y-94814390D01*
X158270689Y-94814390D01*
X158198739Y-94886339D01*
X158198739Y-94886338D01*
X158198736Y-94886341D01*
X158198739Y-94886339D01*
X158182193Y-94902886D01*
X149813903Y-103271174D01*
X149813829Y-103271254D01*
X149710517Y-103374567D01*
X149451094Y-103683735D01*
X149219608Y-104014328D01*
X149017813Y-104363845D01*
X148847250Y-104729617D01*
X148709213Y-105108866D01*
X148604757Y-105498705D01*
X148534674Y-105896157D01*
X148499500Y-106298205D01*
X148499500Y-107085982D01*
X148486423Y-107141407D01*
X148449952Y-107185143D01*
X148397778Y-107207964D01*
X148340905Y-107205058D01*
X148265001Y-107183005D01*
X148265000Y-107183007D01*
X148265000Y-107488643D01*
X148247732Y-107551762D01*
X148240180Y-107564532D01*
X148238067Y-107568106D01*
X148192391Y-107725321D01*
X148189500Y-107762062D01*
X148189500Y-108237938D01*
X148192391Y-108274678D01*
X148238067Y-108431893D01*
X148238068Y-108431895D01*
X148238069Y-108431897D01*
X148247732Y-108448237D01*
X148265000Y-108511357D01*
X148265000Y-108816993D01*
X148265001Y-108816994D01*
X148340905Y-108794942D01*
X148397778Y-108792036D01*
X148449952Y-108814857D01*
X148486423Y-108858593D01*
X148499500Y-108914018D01*
X148499500Y-109754200D01*
X148499514Y-109754510D01*
X148499514Y-109805852D01*
X148499514Y-109832834D01*
X148529782Y-110101522D01*
X148589817Y-110364576D01*
X148589945Y-110365134D01*
X148679242Y-110620345D01*
X148679857Y-110621622D01*
X148796557Y-110863959D01*
X148856567Y-110959467D01*
X148880221Y-110997113D01*
X148898446Y-111049201D01*
X148892267Y-111104038D01*
X148862907Y-111150764D01*
X141986818Y-118026854D01*
X141931736Y-118058811D01*
X141868056Y-118059215D01*
X141859272Y-118056940D01*
X141859271Y-118056940D01*
X141662285Y-118005937D01*
X141641671Y-118004891D01*
X141459062Y-117995630D01*
X141257928Y-118026443D01*
X141067113Y-118097113D01*
X140924073Y-118186270D01*
X140875455Y-118203871D01*
X140823886Y-118200114D01*
X140765001Y-118183005D01*
X140765000Y-118183007D01*
X140765000Y-118280098D01*
X140759313Y-118317219D01*
X140742775Y-118350935D01*
X140630705Y-118511950D01*
X140550460Y-118698941D01*
X140509500Y-118898261D01*
X140509500Y-119068825D01*
X140509503Y-119068909D01*
X140509503Y-119093559D01*
X140517578Y-119144590D01*
X140518466Y-119151422D01*
X140524926Y-119214938D01*
X140529836Y-119230588D01*
X140533995Y-119248311D01*
X140534845Y-119253682D01*
X140547749Y-119293430D01*
X140551861Y-119309828D01*
X140551980Y-119310493D01*
X140557451Y-119324191D01*
X140560235Y-119331890D01*
X140584907Y-119407879D01*
X140610086Y-119457337D01*
X140614736Y-119467598D01*
X140627461Y-119499457D01*
X140641520Y-119520788D01*
X140648488Y-119532767D01*
X140658460Y-119552356D01*
X140698810Y-119607945D01*
X140701992Y-119612544D01*
X140736006Y-119664153D01*
X140744536Y-119677095D01*
X140759774Y-119709712D01*
X140765000Y-119745332D01*
X140765000Y-119816993D01*
X140789167Y-119809971D01*
X140854601Y-119808942D01*
X140911446Y-119841366D01*
X140937424Y-119867344D01*
X140937698Y-119867591D01*
X140958536Y-119888430D01*
X140983206Y-119907361D01*
X141018930Y-119950893D01*
X141031717Y-120005735D01*
X141031717Y-120327095D01*
X141031716Y-120327105D01*
X141031716Y-120428023D01*
X141031451Y-120436131D01*
X141019418Y-120619756D01*
X141017300Y-120635839D01*
X140982196Y-120812323D01*
X140977999Y-120827989D01*
X140920159Y-120998385D01*
X140913952Y-121013371D01*
X140834366Y-121174759D01*
X140826256Y-121188806D01*
X140726286Y-121338425D01*
X140716411Y-121351294D01*
X140595254Y-121489448D01*
X140589708Y-121495369D01*
X140559620Y-121525458D01*
X139471258Y-122613819D01*
X139471246Y-122613832D01*
X139467719Y-122617358D01*
X139460581Y-122623955D01*
X139317425Y-122746221D01*
X139301684Y-122757657D01*
X139145332Y-122853470D01*
X139127995Y-122862304D01*
X138958575Y-122932481D01*
X138940069Y-122938494D01*
X138761760Y-122981302D01*
X138742553Y-122984345D01*
X138734240Y-122985000D01*
X138668212Y-122971871D01*
X138618775Y-122926176D01*
X138600500Y-122861383D01*
X138600500Y-119250000D01*
X139720954Y-119250000D01*
X139722889Y-119274597D01*
X139768530Y-119431696D01*
X139851808Y-119572511D01*
X139967488Y-119688191D01*
X140108303Y-119771469D01*
X140264998Y-119816994D01*
X140265000Y-119816993D01*
X140265000Y-119250000D01*
X139720954Y-119250000D01*
X138600500Y-119250000D01*
X138600500Y-118750000D01*
X139720953Y-118750000D01*
X140265000Y-118750000D01*
X140265000Y-118183007D01*
X140264998Y-118183005D01*
X140108303Y-118228530D01*
X139967488Y-118311808D01*
X139851808Y-118427488D01*
X139768530Y-118568303D01*
X139722889Y-118725400D01*
X139720953Y-118750000D01*
X138600500Y-118750000D01*
X138600500Y-115100121D01*
X138600649Y-115094035D01*
X138607823Y-114948028D01*
X138615115Y-114799630D01*
X138616308Y-114787524D01*
X138659113Y-114498971D01*
X138661480Y-114487069D01*
X138732370Y-114204070D01*
X138735893Y-114192458D01*
X138834176Y-113917780D01*
X138838818Y-113906575D01*
X138963549Y-113642856D01*
X138969268Y-113632155D01*
X139119249Y-113381930D01*
X139125992Y-113371837D01*
X139299780Y-113137512D01*
X139307483Y-113128127D01*
X139505713Y-112909414D01*
X139509868Y-112905049D01*
X139535886Y-112879032D01*
X139787256Y-112627663D01*
X139787299Y-112627634D01*
X139823588Y-112591344D01*
X139823589Y-112591345D01*
X139947644Y-112467289D01*
X140173184Y-112198496D01*
X140374440Y-111911069D01*
X140549880Y-111607195D01*
X140698168Y-111289187D01*
X140818175Y-110959466D01*
X140908989Y-110620539D01*
X140969919Y-110274988D01*
X141000500Y-109925441D01*
X141000500Y-109750000D01*
X141000500Y-109657290D01*
X141000500Y-109409660D01*
X141013577Y-109354235D01*
X141050048Y-109310499D01*
X141102222Y-109287678D01*
X141159095Y-109290584D01*
X141249998Y-109316994D01*
X141250000Y-109316993D01*
X141250000Y-109011357D01*
X141267267Y-108948237D01*
X141276931Y-108931897D01*
X141322609Y-108774675D01*
X141324551Y-108750000D01*
X141750000Y-108750000D01*
X141750000Y-109316993D01*
X141750001Y-109316994D01*
X141906696Y-109271469D01*
X142047511Y-109188191D01*
X142163191Y-109072511D01*
X142246469Y-108931696D01*
X142292110Y-108774599D01*
X142294047Y-108750000D01*
X141750000Y-108750000D01*
X141324551Y-108750000D01*
X141325500Y-108737940D01*
X141325500Y-108262060D01*
X141324551Y-108250000D01*
X141750000Y-108250000D01*
X142294045Y-108250000D01*
X147220954Y-108250000D01*
X147222889Y-108274597D01*
X147268530Y-108431696D01*
X147351808Y-108572511D01*
X147467488Y-108688191D01*
X147608303Y-108771469D01*
X147764998Y-108816994D01*
X147765000Y-108816993D01*
X147765000Y-108250000D01*
X147220954Y-108250000D01*
X142294045Y-108250000D01*
X142292110Y-108225402D01*
X142246469Y-108068303D01*
X142163191Y-107927488D01*
X142047511Y-107811808D01*
X141943000Y-107750000D01*
X147220953Y-107750000D01*
X147765000Y-107750000D01*
X147765000Y-107183007D01*
X147764998Y-107183005D01*
X147608303Y-107228530D01*
X147467488Y-107311808D01*
X147351808Y-107427488D01*
X147268530Y-107568303D01*
X147222889Y-107725400D01*
X147220953Y-107750000D01*
X141943000Y-107750000D01*
X141906696Y-107728530D01*
X141750001Y-107683005D01*
X141750000Y-107683007D01*
X141750000Y-108250000D01*
X141324551Y-108250000D01*
X141322609Y-108225325D01*
X141321726Y-108222287D01*
X141276932Y-108068106D01*
X141276931Y-108068105D01*
X141276931Y-108068103D01*
X141267267Y-108051762D01*
X141250000Y-107988643D01*
X141250000Y-107683007D01*
X141249998Y-107683005D01*
X141127640Y-107718554D01*
X141061131Y-107719301D01*
X141003804Y-107685571D01*
X140972154Y-107627071D01*
X140960234Y-107574846D01*
X140917563Y-107387891D01*
X140835669Y-107153852D01*
X140728085Y-106930453D01*
X140686533Y-106864324D01*
X140596164Y-106720503D01*
X140441565Y-106526646D01*
X140436645Y-106521726D01*
X140436637Y-106521716D01*
X139046855Y-105131935D01*
X139046838Y-105131914D01*
X139036819Y-105121895D01*
X139009939Y-105081667D01*
X139000500Y-105034214D01*
X139000500Y-104975398D01*
X139000972Y-104964591D01*
X139009105Y-104871626D01*
X139016421Y-104788006D01*
X139015233Y-104728063D01*
X139004970Y-104690943D01*
X139000488Y-104657903D01*
X139000488Y-104611898D01*
X138979951Y-104403378D01*
X138973416Y-104337023D01*
X138919532Y-104066126D01*
X138839355Y-103801814D01*
X138733658Y-103546634D01*
X138603459Y-103303042D01*
X138582166Y-103271174D01*
X138450009Y-103073383D01*
X138274788Y-102859870D01*
X138259059Y-102844141D01*
X138259049Y-102844128D01*
X138155711Y-102740790D01*
X138105358Y-102690436D01*
X138105349Y-102690428D01*
X133535860Y-98120939D01*
X128881661Y-93466741D01*
X128852028Y-93419226D01*
X128846321Y-93363519D01*
X128865704Y-93310981D01*
X128906223Y-93272328D01*
X128906891Y-93271932D01*
X128906897Y-93271931D01*
X128922374Y-93262777D01*
X128985491Y-93245512D01*
X129048612Y-93262781D01*
X129063303Y-93271469D01*
X129219998Y-93316994D01*
X129220000Y-93316993D01*
X129220000Y-93011357D01*
X129237267Y-92948237D01*
X129246931Y-92931897D01*
X129292609Y-92774675D01*
X129294551Y-92750000D01*
X129720000Y-92750000D01*
X129720000Y-93316993D01*
X129720001Y-93316994D01*
X129876696Y-93271469D01*
X130017511Y-93188191D01*
X130133191Y-93072511D01*
X130216469Y-92931696D01*
X130262110Y-92774599D01*
X130264047Y-92750000D01*
X129720000Y-92750000D01*
X129294551Y-92750000D01*
X129295500Y-92737940D01*
X129295500Y-92262060D01*
X129294551Y-92250000D01*
X129720000Y-92250000D01*
X130264045Y-92250000D01*
X130262110Y-92225402D01*
X130216469Y-92068303D01*
X130133191Y-91927488D01*
X130017511Y-91811808D01*
X129876696Y-91728530D01*
X129720001Y-91683005D01*
X129720000Y-91683007D01*
X129720000Y-92250000D01*
X129294551Y-92250000D01*
X129292609Y-92225325D01*
X129275249Y-92165574D01*
X129246932Y-92068106D01*
X129246931Y-92068104D01*
X129246931Y-92068103D01*
X129237267Y-92051762D01*
X129220000Y-91988643D01*
X129220000Y-91683007D01*
X129219998Y-91683005D01*
X129063303Y-91728530D01*
X129048608Y-91737221D01*
X128985488Y-91754487D01*
X128922369Y-91737219D01*
X128919250Y-91735374D01*
X128906897Y-91728069D01*
X128906896Y-91728068D01*
X128906895Y-91728068D01*
X128749678Y-91682391D01*
X128727633Y-91680656D01*
X128712940Y-91679500D01*
X128287060Y-91679500D01*
X128274815Y-91680463D01*
X128250321Y-91682391D01*
X128093103Y-91728068D01*
X127952179Y-91811410D01*
X127836410Y-91927179D01*
X127753068Y-92068104D01*
X127750770Y-92076013D01*
X127717986Y-92130463D01*
X127662530Y-92161518D01*
X127598974Y-92161018D01*
X127544014Y-92129094D01*
X126165578Y-90750658D01*
X126165576Y-90750655D01*
X126131363Y-90716442D01*
X126131338Y-90716403D01*
X126098222Y-90683287D01*
X126085583Y-90668489D01*
X126074763Y-90653596D01*
X126057012Y-90629162D01*
X126039403Y-90594601D01*
X126027416Y-90557707D01*
X126021349Y-90519395D01*
X126021349Y-90480605D01*
X126027417Y-90442290D01*
X126028473Y-90439041D01*
X126039404Y-90405396D01*
X126057013Y-90370835D01*
X126085628Y-90331448D01*
X126098290Y-90316629D01*
X126099549Y-90315371D01*
X126156894Y-90258026D01*
X126156894Y-90258025D01*
X127713800Y-88701116D01*
X127713805Y-88701113D01*
X127724009Y-88690908D01*
X127724011Y-88690908D01*
X127789566Y-88625352D01*
X127825445Y-88589473D01*
X127825448Y-88589468D01*
X127830365Y-88584552D01*
X127830487Y-88584414D01*
X127952248Y-88462655D01*
X128253585Y-88114892D01*
X128529346Y-87746519D01*
X128778125Y-87359412D01*
X128998655Y-86955543D01*
X129092524Y-86750000D01*
X165735954Y-86750000D01*
X165737889Y-86774597D01*
X165783530Y-86931696D01*
X165866808Y-87072511D01*
X165982488Y-87188191D01*
X166123303Y-87271469D01*
X166279998Y-87316994D01*
X166280000Y-87316993D01*
X166280000Y-86750000D01*
X165735954Y-86750000D01*
X129092524Y-86750000D01*
X129189811Y-86536972D01*
X129296847Y-86250000D01*
X165735953Y-86250000D01*
X166280000Y-86250000D01*
X166280000Y-85683007D01*
X166279998Y-85683005D01*
X166123303Y-85728530D01*
X165982488Y-85811808D01*
X165866808Y-85927488D01*
X165783530Y-86068303D01*
X165737889Y-86225400D01*
X165735953Y-86250000D01*
X129296847Y-86250000D01*
X129350620Y-86105830D01*
X129480263Y-85664315D01*
X129578078Y-85214676D01*
X129643567Y-84759204D01*
X129674469Y-84327176D01*
X129676397Y-84300222D01*
X129676397Y-84300221D01*
X129676397Y-84187143D01*
X129676399Y-84187139D01*
X129676399Y-81944500D01*
X129693012Y-81882500D01*
X129738399Y-81837113D01*
X129800399Y-81820500D01*
X130227938Y-81820500D01*
X130227940Y-81820500D01*
X130264675Y-81817609D01*
X130301560Y-81806892D01*
X130421895Y-81771932D01*
X130422678Y-81771469D01*
X130437368Y-81762781D01*
X130500489Y-81745512D01*
X130563612Y-81762781D01*
X130578303Y-81771469D01*
X130734998Y-81816994D01*
X130735000Y-81816993D01*
X130735000Y-81511357D01*
X130752267Y-81448237D01*
X130761931Y-81431897D01*
X130807609Y-81274675D01*
X130809551Y-81250000D01*
X131235000Y-81250000D01*
X131235000Y-81816993D01*
X131235001Y-81816994D01*
X131391696Y-81771469D01*
X131532511Y-81688191D01*
X131648191Y-81572511D01*
X131731469Y-81431696D01*
X131777110Y-81274599D01*
X131779047Y-81250000D01*
X131235000Y-81250000D01*
X130809551Y-81250000D01*
X130810500Y-81237940D01*
X130810500Y-80762060D01*
X130809551Y-80750000D01*
X131235000Y-80750000D01*
X131779045Y-80750000D01*
X131777110Y-80725402D01*
X131731469Y-80568303D01*
X131648191Y-80427488D01*
X131532511Y-80311808D01*
X131391696Y-80228530D01*
X131235001Y-80183005D01*
X131235000Y-80183007D01*
X131235000Y-80750000D01*
X130809551Y-80750000D01*
X130807609Y-80725325D01*
X130773229Y-80606992D01*
X130761932Y-80568106D01*
X130761931Y-80568105D01*
X130761931Y-80568103D01*
X130752267Y-80551762D01*
X130735000Y-80488643D01*
X130735000Y-80183007D01*
X130734998Y-80183005D01*
X130578303Y-80228530D01*
X130563608Y-80237221D01*
X130500488Y-80254487D01*
X130437369Y-80237219D01*
X130434250Y-80235374D01*
X130421897Y-80228069D01*
X130421896Y-80228068D01*
X130421895Y-80228068D01*
X130264678Y-80182391D01*
X130242633Y-80180656D01*
X130227940Y-80179500D01*
X129813190Y-80179500D01*
X129755369Y-80165194D01*
X129710890Y-80125576D01*
X129698099Y-80106903D01*
X129681948Y-80073506D01*
X129676399Y-80036827D01*
X129676399Y-78361289D01*
X129685838Y-78313836D01*
X129712718Y-78273608D01*
X134762010Y-73224314D01*
X134762061Y-73224279D01*
X134798344Y-73187994D01*
X134798345Y-73187995D01*
X134925060Y-73061277D01*
X135155439Y-72786718D01*
X135181149Y-72750000D01*
X162205954Y-72750000D01*
X162207889Y-72774597D01*
X162253530Y-72931696D01*
X162336808Y-73072511D01*
X162452488Y-73188191D01*
X162593303Y-73271469D01*
X162749998Y-73316994D01*
X162750000Y-73316993D01*
X162750000Y-72750000D01*
X162205954Y-72750000D01*
X135181149Y-72750000D01*
X135361011Y-72493126D01*
X135501378Y-72250000D01*
X162205953Y-72250000D01*
X162750000Y-72250000D01*
X162750000Y-71683007D01*
X162749998Y-71683005D01*
X162593303Y-71728530D01*
X162452488Y-71811808D01*
X162336808Y-71927488D01*
X162253530Y-72068303D01*
X162207889Y-72225400D01*
X162205953Y-72250000D01*
X135501378Y-72250000D01*
X135540214Y-72182734D01*
X135691682Y-71857905D01*
X135814264Y-71521111D01*
X135907026Y-71174915D01*
X135969262Y-70821951D01*
X136000500Y-70464907D01*
X136000500Y-70285703D01*
X136000500Y-70192993D01*
X136000500Y-70192991D01*
X136000500Y-69944500D01*
X136017113Y-69882500D01*
X136062500Y-69837113D01*
X136124500Y-69820500D01*
X136227938Y-69820500D01*
X136227940Y-69820500D01*
X136264675Y-69817609D01*
X136301560Y-69806892D01*
X136421895Y-69771932D01*
X136422678Y-69771469D01*
X136437368Y-69762781D01*
X136500489Y-69745512D01*
X136563612Y-69762781D01*
X136578303Y-69771469D01*
X136734998Y-69816994D01*
X136735000Y-69816993D01*
X136735000Y-69511357D01*
X136752267Y-69448237D01*
X136761931Y-69431897D01*
X136807609Y-69274675D01*
X136809551Y-69250000D01*
X137235000Y-69250000D01*
X137235000Y-69816993D01*
X137235001Y-69816994D01*
X137391696Y-69771469D01*
X137532511Y-69688191D01*
X137648191Y-69572511D01*
X137731469Y-69431696D01*
X137777110Y-69274599D01*
X137779047Y-69250000D01*
X137235000Y-69250000D01*
X136809551Y-69250000D01*
X136810500Y-69237940D01*
X136810500Y-68762060D01*
X136809551Y-68750000D01*
X137235000Y-68750000D01*
X137779045Y-68750000D01*
X137777110Y-68725402D01*
X137731469Y-68568303D01*
X137648191Y-68427488D01*
X137532511Y-68311808D01*
X137391696Y-68228530D01*
X137235001Y-68183005D01*
X137235000Y-68183007D01*
X137235000Y-68750000D01*
X136809551Y-68750000D01*
X136807609Y-68725325D01*
X136777658Y-68622236D01*
X136761932Y-68568106D01*
X136761931Y-68568105D01*
X136761931Y-68568103D01*
X136752267Y-68551762D01*
X136735000Y-68488643D01*
X136735000Y-68183007D01*
X136734998Y-68183005D01*
X136578303Y-68228530D01*
X136563608Y-68237221D01*
X136500488Y-68254487D01*
X136437369Y-68237219D01*
X136430228Y-68232996D01*
X136421897Y-68228069D01*
X136421896Y-68228068D01*
X136421895Y-68228068D01*
X136264678Y-68182391D01*
X136242634Y-68180656D01*
X136227940Y-68179500D01*
X136227938Y-68179500D01*
X136124500Y-68179500D01*
X136062500Y-68162887D01*
X136017113Y-68117500D01*
X136000500Y-68055500D01*
X136000500Y-64767380D01*
X136006239Y-64730093D01*
X136022925Y-64696257D01*
X136084449Y-64608391D01*
X136236244Y-64391605D01*
X136265186Y-64339099D01*
X136301332Y-64199790D01*
X136296765Y-64055941D01*
X136251858Y-63919204D01*
X136170245Y-63800659D01*
X136125091Y-63761219D01*
X135309424Y-63190084D01*
X135275862Y-63171583D01*
X135256917Y-63161140D01*
X135117609Y-63124995D01*
X134973757Y-63129562D01*
X134837020Y-63174470D01*
X134718478Y-63256082D01*
X134679039Y-63301232D01*
X134420348Y-63670680D01*
X134391510Y-63698017D01*
X134384429Y-63704747D01*
X134384429Y-63704748D01*
X134236947Y-63844941D01*
X134201612Y-63895707D01*
X134120705Y-64011950D01*
X134101828Y-64055939D01*
X134040460Y-64198942D01*
X134040459Y-64198944D01*
X134035489Y-64210527D01*
X134034536Y-64210118D01*
X134021587Y-64240171D01*
X133763758Y-64608391D01*
X133734813Y-64660901D01*
X133698668Y-64800209D01*
X133703235Y-64944060D01*
X133748141Y-65080793D01*
X133748142Y-65080796D01*
X133829755Y-65199341D01*
X133874909Y-65238781D01*
X133946623Y-65288995D01*
X133985489Y-65333313D01*
X133999500Y-65390570D01*
X133999500Y-70282220D01*
X133999305Y-70289173D01*
X133986664Y-70514264D01*
X133985107Y-70528082D01*
X133947928Y-70746903D01*
X133944834Y-70760460D01*
X133883387Y-70973747D01*
X133878794Y-70986871D01*
X133793858Y-71191927D01*
X133787825Y-71204455D01*
X133680459Y-71398723D01*
X133673061Y-71410498D01*
X133544621Y-71591519D01*
X133535951Y-71602391D01*
X133385839Y-71770368D01*
X133381060Y-71775422D01*
X128656969Y-76499514D01*
X128617195Y-76526205D01*
X128570272Y-76535829D01*
X128433622Y-76536913D01*
X128295856Y-76578555D01*
X128175403Y-76657323D01*
X128082020Y-76766836D01*
X128055610Y-76820659D01*
X127897354Y-77255464D01*
X127882608Y-77283888D01*
X127879142Y-77288868D01*
X127873468Y-77296393D01*
X127836200Y-77342099D01*
X127822109Y-77369072D01*
X127813981Y-77382489D01*
X127796604Y-77407456D01*
X127773338Y-77461671D01*
X127769298Y-77470177D01*
X127741989Y-77522458D01*
X127733619Y-77551707D01*
X127728358Y-77566484D01*
X127716359Y-77594448D01*
X127704486Y-77652219D01*
X127702241Y-77661366D01*
X127686012Y-77718086D01*
X127686011Y-77718088D01*
X127686012Y-77718088D01*
X127683945Y-77745233D01*
X127683701Y-77748431D01*
X127681521Y-77763972D01*
X127675399Y-77793765D01*
X127675399Y-77843417D01*
X127667921Y-77885827D01*
X127509833Y-78320170D01*
X127495466Y-78378378D01*
X127496607Y-78522295D01*
X127538250Y-78660060D01*
X127538251Y-78660062D01*
X127617018Y-78780516D01*
X127631856Y-78793168D01*
X127663988Y-78835563D01*
X127675399Y-78887522D01*
X127675399Y-81237981D01*
X127661388Y-81295238D01*
X127622522Y-81339556D01*
X127567584Y-81360920D01*
X127508989Y-81354503D01*
X126959849Y-81154632D01*
X126901641Y-81140265D01*
X126757723Y-81141407D01*
X126619957Y-81183049D01*
X126499504Y-81261817D01*
X126406121Y-81371330D01*
X126379709Y-81425155D01*
X126200363Y-81917910D01*
X126174035Y-81960594D01*
X126132955Y-81989359D01*
X126083841Y-81999500D01*
X125193094Y-81999500D01*
X125192915Y-81999509D01*
X125074557Y-81999509D01*
X124837766Y-82020225D01*
X124787955Y-82014403D01*
X124744524Y-81989328D01*
X124714576Y-81949101D01*
X124706217Y-81931175D01*
X124048433Y-81691762D01*
X122920801Y-81281338D01*
X122733432Y-81796131D01*
X122719082Y-81854273D01*
X122720222Y-81998046D01*
X122761824Y-82135675D01*
X122840513Y-82256010D01*
X122949916Y-82349298D01*
X123003693Y-82375686D01*
X123071551Y-82400384D01*
X123127516Y-82441417D01*
X123152670Y-82506093D01*
X123139135Y-82574156D01*
X123093171Y-82622177D01*
X123093371Y-82622462D01*
X123091939Y-82623464D01*
X123091151Y-82624288D01*
X123088938Y-82625565D01*
X122801510Y-82826822D01*
X122532714Y-83052365D01*
X122408663Y-83176413D01*
X122408661Y-83176417D01*
X122343102Y-83241976D01*
X121257903Y-84327176D01*
X121257902Y-84327177D01*
X121213311Y-84371767D01*
X121174506Y-84410573D01*
X121174498Y-84410581D01*
X121093073Y-84492007D01*
X120877318Y-84754901D01*
X120688372Y-85037676D01*
X120528051Y-85337613D01*
X120409578Y-85623632D01*
X120397904Y-85651816D01*
X120393186Y-85667368D01*
X120299177Y-85977273D01*
X120232833Y-86310817D01*
X120199499Y-86649276D01*
X120199500Y-86774675D01*
X120199500Y-86815256D01*
X120199234Y-86823368D01*
X120187536Y-87001809D01*
X120185419Y-87017889D01*
X120151324Y-87189293D01*
X120147126Y-87204962D01*
X120090944Y-87370458D01*
X120084737Y-87385442D01*
X120007442Y-87542176D01*
X119999331Y-87556223D01*
X119902235Y-87701534D01*
X119892364Y-87714398D01*
X119873957Y-87735388D01*
X119774185Y-87849152D01*
X119768637Y-87855074D01*
X119700784Y-87922923D01*
X119700761Y-87922949D01*
X117414261Y-90209449D01*
X117414054Y-90209622D01*
X117377088Y-90246605D01*
X117377021Y-90246650D01*
X117292274Y-90331437D01*
X117218605Y-90424653D01*
X117217427Y-90426120D01*
X117207947Y-90437747D01*
X117206930Y-90439535D01*
X117171481Y-90497038D01*
X117166802Y-90504078D01*
X117145410Y-90533997D01*
X117128092Y-90571169D01*
X117128065Y-90571205D01*
X117128069Y-90571207D01*
X117106238Y-90618025D01*
X117071104Y-90693375D01*
X117071102Y-90693379D01*
X117067465Y-90701181D01*
X117067245Y-90701759D01*
X117067142Y-90701978D01*
X117059310Y-90732485D01*
X117058011Y-90737164D01*
X117023475Y-90852685D01*
X117009408Y-90948978D01*
X117008172Y-90956013D01*
X116999500Y-90998214D01*
X116999500Y-91007805D01*
X116999434Y-91008708D01*
X115618079Y-91008708D01*
X115713164Y-90555596D01*
X115713415Y-90554432D01*
X116015546Y-89196146D01*
X116015881Y-89194686D01*
X116027196Y-89146615D01*
X116330429Y-87858376D01*
X116330744Y-87857074D01*
X116657493Y-86542291D01*
X116657874Y-86540799D01*
X116658875Y-86536978D01*
X116996608Y-85247595D01*
X116996956Y-85246298D01*
X117347463Y-83974823D01*
X117347888Y-83973320D01*
X117362130Y-83924159D01*
X117709979Y-82723432D01*
X117710370Y-82722114D01*
X118083669Y-81493732D01*
X118084115Y-81492298D01*
X118170266Y-81221914D01*
X124219443Y-81221914D01*
X124877227Y-81461328D01*
X125064598Y-80946533D01*
X125078947Y-80888394D01*
X125077807Y-80744621D01*
X125036205Y-80606992D01*
X124957516Y-80486657D01*
X124848113Y-80393369D01*
X124794338Y-80366982D01*
X124561463Y-80282222D01*
X124561463Y-80282223D01*
X124219443Y-81221914D01*
X118170266Y-81221914D01*
X118301038Y-80811491D01*
X123091811Y-80811491D01*
X123749596Y-81050905D01*
X124091616Y-80111213D01*
X124091616Y-80111212D01*
X123858731Y-80026449D01*
X123800589Y-80012099D01*
X123656814Y-80013240D01*
X123519185Y-80054841D01*
X123398852Y-80133530D01*
X123305563Y-80242933D01*
X123279181Y-80296700D01*
X123091811Y-80811491D01*
X118301038Y-80811491D01*
X118468556Y-80285739D01*
X118469029Y-80284292D01*
X118864352Y-79099321D01*
X118864883Y-79097768D01*
X119270727Y-77934665D01*
X119271227Y-77933263D01*
X119520465Y-77249712D01*
X124394481Y-77249712D01*
X124395622Y-77393629D01*
X124417497Y-77465996D01*
X124437266Y-77531396D01*
X124516033Y-77651850D01*
X124516034Y-77651851D01*
X124516035Y-77651852D01*
X124593710Y-77718086D01*
X124625547Y-77745233D01*
X124679370Y-77771643D01*
X124740150Y-77793765D01*
X125615064Y-78112207D01*
X125673272Y-78126574D01*
X125817190Y-78125432D01*
X125954956Y-78083790D01*
X126075410Y-78005022D01*
X126168793Y-77895509D01*
X126195203Y-77841686D01*
X126346153Y-77426948D01*
X126374992Y-77381681D01*
X132237889Y-71518783D01*
X132237896Y-71518779D01*
X132281332Y-71475342D01*
X132281473Y-71475247D01*
X132317698Y-71439021D01*
X132421155Y-71335560D01*
X132606792Y-71109352D01*
X132769362Y-70866039D01*
X132907301Y-70607962D01*
X133019279Y-70337608D01*
X133065152Y-70186374D01*
X133104218Y-70057584D01*
X133111670Y-70020116D01*
X133161302Y-69770574D01*
X133189979Y-69479355D01*
X133189976Y-69333041D01*
X133189976Y-68781225D01*
X133195715Y-68743938D01*
X133212401Y-68710102D01*
X133250957Y-68655037D01*
X133425720Y-68405450D01*
X133454662Y-68352944D01*
X133490808Y-68213635D01*
X133486241Y-68069786D01*
X133441334Y-67933049D01*
X133359721Y-67814504D01*
X133314567Y-67775064D01*
X132498900Y-67203929D01*
X132465338Y-67185428D01*
X132446393Y-67174985D01*
X132307085Y-67138840D01*
X132163233Y-67143407D01*
X132026496Y-67188315D01*
X131907954Y-67269927D01*
X131868515Y-67315077D01*
X131609824Y-67684525D01*
X131580986Y-67711862D01*
X131573905Y-67718592D01*
X131573905Y-67718593D01*
X131426423Y-67858786D01*
X131391088Y-67909552D01*
X131310181Y-68025795D01*
X131310181Y-68025796D01*
X131229936Y-68212787D01*
X131229935Y-68212789D01*
X131224965Y-68224372D01*
X131224012Y-68223963D01*
X131211063Y-68254016D01*
X130953234Y-68622236D01*
X130924289Y-68674746D01*
X130901634Y-68762062D01*
X130888144Y-68814055D01*
X130892711Y-68957904D01*
X130937618Y-69094641D01*
X131019231Y-69213186D01*
X131064385Y-69252626D01*
X131095879Y-69274678D01*
X131130416Y-69298861D01*
X131171444Y-69347540D01*
X131182910Y-69410161D01*
X131177712Y-69476233D01*
X131174668Y-69495453D01*
X131143428Y-69625586D01*
X131137416Y-69644091D01*
X131086203Y-69767737D01*
X131077370Y-69785074D01*
X131007442Y-69899193D01*
X130996004Y-69914937D01*
X130906174Y-70020116D01*
X130899564Y-70027266D01*
X125555984Y-75370848D01*
X125516210Y-75397539D01*
X125469287Y-75407163D01*
X125332637Y-75408247D01*
X125194871Y-75449889D01*
X125074418Y-75528657D01*
X124981035Y-75638170D01*
X124954625Y-75691993D01*
X124795888Y-76128116D01*
X124775469Y-76164065D01*
X124735215Y-76213433D01*
X124641005Y-76393789D01*
X124610753Y-76499514D01*
X124588137Y-76578555D01*
X124585027Y-76589423D01*
X124574953Y-76721702D01*
X124567833Y-76754695D01*
X124408848Y-77191503D01*
X124394481Y-77249712D01*
X119520465Y-77249712D01*
X119687482Y-76791658D01*
X119688087Y-76790035D01*
X120114577Y-75670236D01*
X120115143Y-75668782D01*
X120551580Y-74570498D01*
X120552152Y-74569089D01*
X120998315Y-73492525D01*
X120999017Y-73490869D01*
X121074128Y-73316993D01*
X121454609Y-72436204D01*
X121455300Y-72434637D01*
X121920293Y-71401511D01*
X121921072Y-71399817D01*
X121921585Y-71398723D01*
X122394980Y-70388507D01*
X122395755Y-70386885D01*
X122878572Y-69397089D01*
X122879357Y-69395514D01*
X123370707Y-68427588D01*
X123371607Y-68425850D01*
X123708334Y-67788376D01*
X128974090Y-67788376D01*
X129177098Y-67930524D01*
X129229549Y-67959435D01*
X129368720Y-67995544D01*
X129512428Y-67990982D01*
X129649027Y-67946119D01*
X129767452Y-67864590D01*
X129806854Y-67819479D01*
X130121074Y-67370727D01*
X130121074Y-67370726D01*
X129547667Y-66969223D01*
X129547666Y-66969223D01*
X128974090Y-67788375D01*
X128974090Y-67788376D01*
X123708334Y-67788376D01*
X123871420Y-67479629D01*
X123872247Y-67478095D01*
X124178081Y-66921307D01*
X128185443Y-66921307D01*
X128190006Y-67065015D01*
X128234868Y-67201612D01*
X128316400Y-67320040D01*
X128361504Y-67359437D01*
X128564515Y-67501587D01*
X129138092Y-66682435D01*
X129138092Y-66682434D01*
X128962735Y-66559648D01*
X129834454Y-66559648D01*
X130407861Y-66961150D01*
X130722084Y-66512395D01*
X130750994Y-66459945D01*
X130787104Y-66320776D01*
X130782541Y-66177068D01*
X130737679Y-66040471D01*
X130656147Y-65922043D01*
X130611043Y-65882646D01*
X130408031Y-65740495D01*
X129834454Y-66559647D01*
X129834454Y-66559648D01*
X128962735Y-66559648D01*
X128564685Y-66280931D01*
X128564684Y-66280931D01*
X128250466Y-66729683D01*
X128221553Y-66782138D01*
X128185443Y-66921307D01*
X124178081Y-66921307D01*
X124380186Y-66553362D01*
X124381119Y-66551697D01*
X124769917Y-65871356D01*
X128851472Y-65871356D01*
X129424879Y-66272859D01*
X129424880Y-66272859D01*
X129998456Y-65453707D01*
X129998456Y-65453706D01*
X129795451Y-65311562D01*
X129742996Y-65282648D01*
X129603827Y-65246539D01*
X129460119Y-65251101D01*
X129323520Y-65295964D01*
X129205094Y-65377493D01*
X129165696Y-65422599D01*
X128851473Y-65871356D01*
X128851472Y-65871356D01*
X124769917Y-65871356D01*
X124897038Y-65648912D01*
X124898024Y-65647220D01*
X125421518Y-64766114D01*
X125422580Y-64764362D01*
X125953553Y-63905186D01*
X125954704Y-63903361D01*
X125992245Y-63844941D01*
X126492914Y-63065812D01*
X126494111Y-63063985D01*
X126498424Y-63057532D01*
X126598753Y-62907406D01*
X130995466Y-62907406D01*
X131000033Y-63051257D01*
X131044939Y-63187990D01*
X131044940Y-63187993D01*
X131126553Y-63306538D01*
X131171707Y-63345978D01*
X131987374Y-63917113D01*
X132039880Y-63946056D01*
X132179189Y-63982202D01*
X132323039Y-63977635D01*
X132459775Y-63932727D01*
X132459775Y-63932726D01*
X132459777Y-63932726D01*
X132502430Y-63903361D01*
X132578320Y-63851114D01*
X132617761Y-63805961D01*
X133533042Y-62498802D01*
X133561984Y-62446296D01*
X133568544Y-62421011D01*
X133600889Y-62364473D01*
X134140362Y-61825000D01*
X144525001Y-61825000D01*
X144525001Y-61841643D01*
X144535056Y-61940082D01*
X144587906Y-62099573D01*
X144676114Y-62242581D01*
X144794918Y-62361385D01*
X144937926Y-62449593D01*
X145097416Y-62502443D01*
X145195857Y-62512500D01*
X145250000Y-62512500D01*
X145250000Y-61825000D01*
X145750000Y-61825000D01*
X145750000Y-62512499D01*
X145804143Y-62512499D01*
X145902582Y-62502443D01*
X146062073Y-62449593D01*
X146103332Y-62424144D01*
X155929406Y-62424144D01*
X155948170Y-62440171D01*
X156091529Y-62518983D01*
X156249984Y-62559668D01*
X156413584Y-62559668D01*
X156572036Y-62518984D01*
X156715031Y-62440372D01*
X156715031Y-62440371D01*
X156314105Y-62039447D01*
X156314104Y-62039447D01*
X155929406Y-62424144D01*
X146103332Y-62424144D01*
X146205081Y-62361385D01*
X146323885Y-62242581D01*
X146412093Y-62099573D01*
X146464943Y-61940083D01*
X146475000Y-61841643D01*
X146475000Y-61825000D01*
X145750000Y-61825000D01*
X145250000Y-61825000D01*
X144525001Y-61825000D01*
X134140362Y-61825000D01*
X134215346Y-61750016D01*
X155440332Y-61750016D01*
X155481016Y-61908471D01*
X155559830Y-62051833D01*
X155575852Y-62070593D01*
X155960553Y-61685895D01*
X155960553Y-61685894D01*
X155559627Y-61284968D01*
X155559626Y-61284968D01*
X155481016Y-61427961D01*
X155440332Y-61586416D01*
X155440332Y-61750016D01*
X134215346Y-61750016D01*
X134394211Y-61571151D01*
X134394264Y-61571089D01*
X134463423Y-61501932D01*
X134653463Y-61270371D01*
X134819890Y-61021298D01*
X134961102Y-60757111D01*
X135075739Y-60480355D01*
X135085788Y-60447225D01*
X135118770Y-60338503D01*
X135144202Y-60292740D01*
X135186254Y-60261552D01*
X135237430Y-60250499D01*
X135797870Y-60250499D01*
X135797872Y-60250499D01*
X135857483Y-60244091D01*
X135992331Y-60193796D01*
X136107546Y-60107546D01*
X136193796Y-59992331D01*
X136244091Y-59857483D01*
X136250500Y-59797873D01*
X136250499Y-57202128D01*
X136244091Y-57142517D01*
X136193796Y-57007669D01*
X136107546Y-56892454D01*
X135992331Y-56806204D01*
X135857483Y-56755909D01*
X135797873Y-56749500D01*
X135797869Y-56749500D01*
X133202130Y-56749500D01*
X133142515Y-56755909D01*
X133007669Y-56806204D01*
X132892454Y-56892454D01*
X132806204Y-57007668D01*
X132755909Y-57142515D01*
X132755909Y-57142517D01*
X132752478Y-57174434D01*
X132749500Y-57202130D01*
X132749500Y-59797869D01*
X132755909Y-59857484D01*
X132774806Y-59908148D01*
X132806204Y-59992331D01*
X132892454Y-60107546D01*
X133007669Y-60193796D01*
X133142517Y-60244091D01*
X133202127Y-60250500D01*
X133282037Y-60250499D01*
X133336878Y-60263286D01*
X133380411Y-60299012D01*
X133403652Y-60350308D01*
X133401810Y-60406593D01*
X133375263Y-60456259D01*
X133298772Y-60543479D01*
X133293224Y-60549401D01*
X133235530Y-60607093D01*
X133235514Y-60607111D01*
X132620210Y-61222415D01*
X132565098Y-61254380D01*
X132501387Y-61254760D01*
X132414407Y-61232192D01*
X132270555Y-61236759D01*
X132133818Y-61281667D01*
X132015276Y-61363279D01*
X131975834Y-61408433D01*
X131060556Y-62715588D01*
X131031611Y-62768098D01*
X130995466Y-62907406D01*
X126598753Y-62907406D01*
X127039352Y-62248120D01*
X127040549Y-62246365D01*
X127592615Y-61452240D01*
X127593806Y-61450559D01*
X128152639Y-60677973D01*
X128153796Y-60676406D01*
X128718824Y-59925697D01*
X128720165Y-59923949D01*
X129291267Y-59195033D01*
X129292781Y-59193143D01*
X129317391Y-59163000D01*
X129885038Y-58467732D01*
X129886559Y-58465909D01*
X130484990Y-57763151D01*
X130486570Y-57761334D01*
X131090629Y-57081479D01*
X131092326Y-57079611D01*
X131701867Y-56422608D01*
X131703678Y-56420698D01*
X132318528Y-55786606D01*
X132320392Y-55784728D01*
X132619985Y-55489279D01*
X132940142Y-55173551D01*
X132942190Y-55171577D01*
X133566731Y-54583315D01*
X133568802Y-54581411D01*
X133586834Y-54565205D01*
X134158632Y-54051295D01*
X134197850Y-54016047D01*
X134200059Y-54014108D01*
X134455055Y-53795631D01*
X134833233Y-53471614D01*
X134835472Y-53469743D01*
X135472773Y-52950217D01*
X135475050Y-52948407D01*
X136115973Y-52451850D01*
X136118429Y-52449996D01*
X136762956Y-51976422D01*
X136765459Y-51974632D01*
X137413033Y-51524050D01*
X137415732Y-51522224D01*
X137829921Y-51250000D01*
X142250000Y-51250000D01*
X143750000Y-51250000D01*
X143750000Y-49750000D01*
X144250000Y-49750000D01*
X144250000Y-51250000D01*
X145750000Y-51250000D01*
X146350000Y-51250000D01*
X147350000Y-51250000D01*
X147350000Y-50550000D01*
X147850000Y-50550000D01*
X147850000Y-51250000D01*
X148850000Y-51250000D01*
X148850000Y-51002176D01*
X148843597Y-50942624D01*
X148793352Y-50807910D01*
X148707188Y-50692811D01*
X148592089Y-50606647D01*
X148457375Y-50556402D01*
X148397824Y-50550000D01*
X147850000Y-50550000D01*
X147350000Y-50550000D01*
X146802176Y-50550000D01*
X146742624Y-50556402D01*
X146607910Y-50606647D01*
X146492811Y-50692811D01*
X146406647Y-50807910D01*
X146356402Y-50942624D01*
X146350000Y-51002176D01*
X146350000Y-51250000D01*
X145750000Y-51250000D01*
X145750000Y-50202176D01*
X145743597Y-50142624D01*
X145693352Y-50007910D01*
X145607188Y-49892811D01*
X145492089Y-49806647D01*
X145357375Y-49756402D01*
X145297824Y-49750000D01*
X144250000Y-49750000D01*
X143750000Y-49750000D01*
X142702176Y-49750000D01*
X142642624Y-49756402D01*
X142507910Y-49806647D01*
X142392811Y-49892811D01*
X142306647Y-50007910D01*
X142256402Y-50142624D01*
X142250000Y-50202176D01*
X142250000Y-51250000D01*
X137829921Y-51250000D01*
X138066327Y-51094623D01*
X138069090Y-51092860D01*
X138722438Y-50688296D01*
X138725318Y-50686567D01*
X139381094Y-50305009D01*
X139384089Y-50303323D01*
X140042018Y-49944827D01*
X140045071Y-49943220D01*
X140704980Y-49607721D01*
X140708115Y-49606184D01*
X141369753Y-49293775D01*
X141373061Y-49292273D01*
X142036150Y-49002908D01*
X142039481Y-49001513D01*
X142703741Y-48735252D01*
X142707231Y-48733916D01*
X143372465Y-48490749D01*
X143376063Y-48489497D01*
X144042014Y-48269423D01*
X144045703Y-48268269D01*
X144712072Y-48071321D01*
X144715828Y-48070276D01*
X145382351Y-47896457D01*
X145386270Y-47895504D01*
X146052763Y-47744807D01*
X146056673Y-47743991D01*
X146722862Y-47616458D01*
X146726896Y-47615756D01*
X147392627Y-47511375D01*
X147396720Y-47510803D01*
X148061654Y-47429603D01*
X148065852Y-47429163D01*
X148729685Y-47371145D01*
X148733929Y-47370848D01*
X149396438Y-47336023D01*
X149400764Y-47335872D01*
X150026843Y-47324872D01*
X150029022Y-47324853D01*
X150054659Y-47324853D01*
X150057623Y-47324888D01*
G37*
%TD.AperFunction*%
%TD*%
M02*
